%TF.GenerationSoftware,KiCad,Pcbnew,10.0.5*%
%TF.CreationDate,2026-08-12T11:49:27+02:00*%
%TF.ProjectId,LM399VoltageStandard,4c4d3339-3956-46f6-9c74-616765537461,rev?*%
%TF.SameCoordinates,Original*%
%TF.FileFunction,Copper,L4,Bot*%
%TF.FilePolarity,Positive*%
%FSLAX46Y46*%
G04 Gerber Fmt 4.6, Leading zero omitted, Abs format (unit mm)*
G04 Created by KiCad (PCBNEW 10.0.5) date 2026-08-12 11:49:27*
%MOMM*%
%LPD*%
G01*
G04 APERTURE LIST*
G04 Aperture macros list*
%AMRoundRect*
0 Rectangle with rounded corners*
0 $1 Rounding radius*
0 $2 $3 $4 $5 $6 $7 $8 $9 X,Y pos of 4 corners*
0 Add a 4 corners polygon primitive as box body*
4,1,4,$2,$3,$4,$5,$6,$7,$8,$9,$2,$3,0*
0 Add four circle primitives for the rounded corners*
1,1,$1+$1,$2,$3*
1,1,$1+$1,$4,$5*
1,1,$1+$1,$6,$7*
1,1,$1+$1,$8,$9*
0 Add four rect primitives between the rounded corners*
20,1,$1+$1,$2,$3,$4,$5,0*
20,1,$1+$1,$4,$5,$6,$7,0*
20,1,$1+$1,$6,$7,$8,$9,0*
20,1,$1+$1,$8,$9,$2,$3,0*%
%AMFreePoly0*
4,1,23,0.500000,-0.750000,0.000000,-0.750000,0.000000,-0.745722,-0.065263,-0.745722,-0.191342,-0.711940,-0.304381,-0.646677,-0.396677,-0.554381,-0.461940,-0.441342,-0.495722,-0.315263,-0.495722,-0.250000,-0.500000,-0.250000,-0.500000,0.250000,-0.495722,0.250000,-0.495722,0.315263,-0.461940,0.441342,-0.396677,0.554381,-0.304381,0.646677,-0.191342,0.711940,-0.065263,0.745722,0.000000,0.745722,
0.000000,0.750000,0.500000,0.750000,0.500000,-0.750000,0.500000,-0.750000,$1*%
%AMFreePoly1*
4,1,23,0.000000,0.745722,0.065263,0.745722,0.191342,0.711940,0.304381,0.646677,0.396677,0.554381,0.461940,0.441342,0.495722,0.315263,0.495722,0.250000,0.500000,0.250000,0.500000,-0.250000,0.495722,-0.250000,0.495722,-0.315263,0.461940,-0.441342,0.396677,-0.554381,0.304381,-0.646677,0.191342,-0.711940,0.065263,-0.745722,0.000000,-0.745722,0.000000,-0.750000,-0.500000,-0.750000,
-0.500000,0.750000,0.000000,0.750000,0.000000,0.745722,0.000000,0.745722,$1*%
G04 Aperture macros list end*
%TA.AperFunction,ComponentPad*%
%ADD10C,1.600000*%
%TD*%
%TA.AperFunction,ComponentPad*%
%ADD11RoundRect,0.250000X0.750000X-0.750000X0.750000X0.750000X-0.750000X0.750000X-0.750000X-0.750000X0*%
%TD*%
%TA.AperFunction,ComponentPad*%
%ADD12C,2.000000*%
%TD*%
%TA.AperFunction,ComponentPad*%
%ADD13C,1.400000*%
%TD*%
%TA.AperFunction,ComponentPad*%
%ADD14C,3.600000*%
%TD*%
%TA.AperFunction,ConnectorPad*%
%ADD15C,6.400000*%
%TD*%
%TA.AperFunction,ComponentPad*%
%ADD16R,1.700000X1.700000*%
%TD*%
%TA.AperFunction,ComponentPad*%
%ADD17C,1.700000*%
%TD*%
%TA.AperFunction,ComponentPad*%
%ADD18R,1.800000X1.800000*%
%TD*%
%TA.AperFunction,ComponentPad*%
%ADD19C,1.800000*%
%TD*%
%TA.AperFunction,ComponentPad*%
%ADD20RoundRect,0.250000X-0.550000X0.550000X-0.550000X-0.550000X0.550000X-0.550000X0.550000X0.550000X0*%
%TD*%
%TA.AperFunction,ComponentPad*%
%ADD21O,1.600000X1.200000*%
%TD*%
%TA.AperFunction,ComponentPad*%
%ADD22C,1.200000*%
%TD*%
%TA.AperFunction,ComponentPad*%
%ADD23RoundRect,0.250000X0.550000X0.550000X-0.550000X0.550000X-0.550000X-0.550000X0.550000X-0.550000X0*%
%TD*%
%TA.AperFunction,ComponentPad*%
%ADD24RoundRect,0.250000X-0.750000X0.750000X-0.750000X-0.750000X0.750000X-0.750000X0.750000X0.750000X0*%
%TD*%
%TA.AperFunction,ComponentPad*%
%ADD25R,1.905000X2.000000*%
%TD*%
%TA.AperFunction,ComponentPad*%
%ADD26O,1.905000X2.000000*%
%TD*%
%TA.AperFunction,ComponentPad*%
%ADD27RoundRect,0.250001X-1.149999X-1.149999X1.149999X-1.149999X1.149999X1.149999X-1.149999X1.149999X0*%
%TD*%
%TA.AperFunction,ComponentPad*%
%ADD28C,2.800000*%
%TD*%
%TA.AperFunction,ComponentPad*%
%ADD29R,2.000000X1.905000*%
%TD*%
%TA.AperFunction,ComponentPad*%
%ADD30O,2.000000X1.905000*%
%TD*%
%TA.AperFunction,ComponentPad*%
%ADD31R,1.050000X1.500000*%
%TD*%
%TA.AperFunction,ComponentPad*%
%ADD32O,1.050000X1.500000*%
%TD*%
%TA.AperFunction,ComponentPad*%
%ADD33O,1.100000X1.600000*%
%TD*%
%TA.AperFunction,SMDPad,CuDef*%
%ADD34RoundRect,0.250000X-0.262500X-0.450000X0.262500X-0.450000X0.262500X0.450000X-0.262500X0.450000X0*%
%TD*%
%TA.AperFunction,SMDPad,CuDef*%
%ADD35RoundRect,0.225000X0.225000X0.250000X-0.225000X0.250000X-0.225000X-0.250000X0.225000X-0.250000X0*%
%TD*%
%TA.AperFunction,SMDPad,CuDef*%
%ADD36FreePoly0,90.000000*%
%TD*%
%TA.AperFunction,SMDPad,CuDef*%
%ADD37FreePoly1,90.000000*%
%TD*%
%TA.AperFunction,SMDPad,CuDef*%
%ADD38RoundRect,0.250000X-0.475000X0.250000X-0.475000X-0.250000X0.475000X-0.250000X0.475000X0.250000X0*%
%TD*%
%TA.AperFunction,SMDPad,CuDef*%
%ADD39RoundRect,0.200000X-0.200000X-0.275000X0.200000X-0.275000X0.200000X0.275000X-0.200000X0.275000X0*%
%TD*%
%TA.AperFunction,SMDPad,CuDef*%
%ADD40RoundRect,0.250000X0.250000X0.475000X-0.250000X0.475000X-0.250000X-0.475000X0.250000X-0.475000X0*%
%TD*%
%TA.AperFunction,SMDPad,CuDef*%
%ADD41FreePoly0,180.000000*%
%TD*%
%TA.AperFunction,SMDPad,CuDef*%
%ADD42FreePoly1,180.000000*%
%TD*%
%TA.AperFunction,SMDPad,CuDef*%
%ADD43RoundRect,0.225000X-0.250000X0.225000X-0.250000X-0.225000X0.250000X-0.225000X0.250000X0.225000X0*%
%TD*%
%TA.AperFunction,SMDPad,CuDef*%
%ADD44RoundRect,0.200000X-0.275000X0.200000X-0.275000X-0.200000X0.275000X-0.200000X0.275000X0.200000X0*%
%TD*%
%TA.AperFunction,SMDPad,CuDef*%
%ADD45RoundRect,0.225000X-0.225000X-0.250000X0.225000X-0.250000X0.225000X0.250000X-0.225000X0.250000X0*%
%TD*%
%TA.AperFunction,SMDPad,CuDef*%
%ADD46RoundRect,0.225000X-0.335876X-0.017678X-0.017678X-0.335876X0.335876X0.017678X0.017678X0.335876X0*%
%TD*%
%TA.AperFunction,SMDPad,CuDef*%
%ADD47RoundRect,0.150000X0.150000X-0.512500X0.150000X0.512500X-0.150000X0.512500X-0.150000X-0.512500X0*%
%TD*%
%TA.AperFunction,SMDPad,CuDef*%
%ADD48FreePoly0,270.000000*%
%TD*%
%TA.AperFunction,SMDPad,CuDef*%
%ADD49FreePoly1,270.000000*%
%TD*%
%TA.AperFunction,SMDPad,CuDef*%
%ADD50RoundRect,0.225000X-0.017678X0.335876X-0.335876X0.017678X0.017678X-0.335876X0.335876X-0.017678X0*%
%TD*%
%TA.AperFunction,ViaPad*%
%ADD51C,0.700000*%
%TD*%
%TA.AperFunction,ViaPad*%
%ADD52C,0.600000*%
%TD*%
%TA.AperFunction,ViaPad*%
%ADD53C,0.500000*%
%TD*%
%TA.AperFunction,ViaPad*%
%ADD54C,0.800000*%
%TD*%
%TA.AperFunction,Conductor*%
%ADD55C,0.600000*%
%TD*%
%TA.AperFunction,Conductor*%
%ADD56C,0.250000*%
%TD*%
%TA.AperFunction,Conductor*%
%ADD57C,1.000000*%
%TD*%
%TA.AperFunction,Conductor*%
%ADD58C,0.300000*%
%TD*%
%TA.AperFunction,Conductor*%
%ADD59C,0.200000*%
%TD*%
G04 APERTURE END LIST*
D10*
%TO.P,R9,1*%
%TO.N,Net-(JP11-A)*%
X113780000Y-53300000D03*
%TO.P,R9,2*%
%TO.N,Net-(U2--)*%
X103620000Y-53300000D03*
%TD*%
D11*
%TO.P,C15,1*%
%TO.N,/PowerSupply/HEATER_SENSE_L*%
X137550000Y-114350000D03*
D12*
%TO.P,C15,2*%
%TO.N,Masa*%
X137550000Y-110550000D03*
%TD*%
D13*
%TO.P,R12,1*%
%TO.N,Net-(JP13-A)*%
X118820000Y-48830000D03*
%TO.P,R12,2*%
%TO.N,Net-(R12-Pad2)*%
X118820000Y-56450000D03*
%TD*%
D10*
%TO.P,R4,1*%
%TO.N,Net-(JP10-B)*%
X101170000Y-44762500D03*
%TO.P,R4,2*%
%TO.N,Net-(U2--)*%
X101170000Y-48562500D03*
%TD*%
D14*
%TO.P,H3,1,1_1*%
%TO.N,Masa*%
X73750000Y-35250000D03*
D15*
X73750000Y-35250000D03*
%TD*%
D14*
%TO.P,H5,1,1_1*%
%TO.N,Net-(JP15-A)*%
X146000000Y-34000000D03*
D15*
X146000000Y-34000000D03*
%TD*%
D16*
%TO.P,J4,1,Pin_1_1*%
%TO.N,/MCU/CAL_EN*%
X88800000Y-106075000D03*
D17*
%TO.P,J4,2,Pin_2_2*%
%TO.N,Masa*%
X88800000Y-108615000D03*
%TD*%
D16*
%TO.P,J3,1,Pin_1_1*%
%TO.N,+3V3*%
X57890000Y-116500000D03*
D17*
%TO.P,J3,2,Pin_2_2*%
%TO.N,/MCU/SYS_JTMS_SWDIO*%
X60430000Y-116500000D03*
%TO.P,J3,3,Pin_3_3*%
%TO.N,/MCU/SYS_JTCK_SWCLK*%
X62970000Y-116500000D03*
%TO.P,J3,4,Pin_4_4*%
%TO.N,Masa*%
X65510000Y-116500000D03*
%TD*%
D18*
%TO.P,D5,1,BA_1*%
%TO.N,/MCU/LED_B*%
X83550000Y-96432000D03*
D19*
%TO.P,D5,2,GA_2*%
%TO.N,/MCU/LED_G*%
X83550000Y-98591000D03*
%TO.P,D5,3,K_3*%
%TO.N,Masa*%
X83550000Y-100750000D03*
%TO.P,D5,4,RA_4*%
%TO.N,/MCU/LED_R*%
X83550000Y-102909000D03*
%TD*%
D14*
%TO.P,H8,1,1_1*%
%TO.N,Net-(JP18-A)*%
X54000000Y-34000000D03*
D15*
X54000000Y-34000000D03*
%TD*%
D20*
%TO.P,C16,1*%
%TO.N,+15V*%
X100450000Y-61450000D03*
D10*
%TO.P,C16,2*%
%TO.N,Masa*%
X100450000Y-63450000D03*
%TD*%
D21*
%TO.P,U1,1*%
%TO.N,Net-(U2-+)*%
X90710000Y-59767500D03*
D22*
%TO.P,U1,2*%
%TO.N,Masa*%
X89440000Y-58497500D03*
%TO.P,U1,3*%
%TO.N,+15V_H*%
X88170000Y-59767500D03*
%TO.P,U1,4*%
%TO.N,Masa*%
X89440000Y-61037500D03*
%TD*%
D14*
%TO.P,H1,1,1_1*%
%TO.N,Masa*%
X134750000Y-75250000D03*
D15*
X134750000Y-75250000D03*
%TD*%
D23*
%TO.P,C17,1*%
%TO.N,+15V_H*%
X82155113Y-68400000D03*
D10*
%TO.P,C17,2*%
%TO.N,Masa*%
X80155113Y-68400000D03*
%TD*%
D13*
%TO.P,R14,1*%
%TO.N,Net-(R12-Pad2)*%
X118780000Y-58900000D03*
%TO.P,R14,2*%
%TO.N,Net-(U2--)*%
X111160000Y-58900000D03*
%TD*%
D24*
%TO.P,C4,1*%
%TO.N,VIN*%
X131000000Y-119982323D03*
D12*
%TO.P,C4,2*%
%TO.N,Masa*%
X131000000Y-123782323D03*
%TD*%
D25*
%TO.P,U6,1,VI_1*%
%TO.N,VIN*%
X85350000Y-126700000D03*
D26*
%TO.P,U6,2,GND_2*%
%TO.N,Masa*%
X82810000Y-126700000D03*
%TO.P,U6,3,VO_3*%
%TO.N,+5V*%
X80270000Y-126700000D03*
%TD*%
D23*
%TO.P,C9,1*%
%TO.N,+15V*%
X116100000Y-107500000D03*
D10*
%TO.P,C9,2*%
%TO.N,Masa*%
X114100000Y-107500000D03*
%TD*%
D27*
%TO.P,J1,1,Pin_1_1*%
%TO.N,Net-(D2-K)*%
X100750000Y-125750000D03*
D28*
%TO.P,J1,2,Pin_2_2*%
%TO.N,Net-(D1-K)*%
X105750000Y-125750000D03*
%TD*%
D10*
%TO.P,R5,1*%
%TO.N,Net-(U2--)*%
X101170000Y-51950000D03*
%TO.P,R5,2*%
%TO.N,Masa*%
X101170000Y-55750000D03*
%TD*%
D23*
%TO.P,C14,1*%
%TO.N,+15V_H*%
X130155112Y-111400000D03*
D10*
%TO.P,C14,2*%
%TO.N,Masa*%
X128155112Y-111400000D03*
%TD*%
D29*
%TO.P,U5,1,VI_1*%
%TO.N,/PowerSupply/HEATER_SENSE_L*%
X139400000Y-120710000D03*
D30*
%TO.P,U5,2,GND_2*%
%TO.N,Masa*%
X139400000Y-123250000D03*
%TO.P,U5,3,VO_3*%
%TO.N,+15V_H*%
X139400000Y-125790000D03*
%TD*%
D31*
%TO.P,U12,1,+V_{S}_1*%
%TO.N,+15V_H*%
X96880000Y-70660000D03*
D32*
%TO.P,U12,2,V_{OUT}_2*%
%TO.N,TEMP_SENSE*%
X98150000Y-70660000D03*
%TO.P,U12,3,GND_3*%
%TO.N,Masa*%
X99420000Y-70660000D03*
%TD*%
D13*
%TO.P,R10,1*%
%TO.N,Net-(JP12-A)*%
X116370000Y-48840000D03*
%TO.P,R10,2*%
%TO.N,Net-(U2--)*%
X116370000Y-56460000D03*
%TD*%
D14*
%TO.P,H4,1,1_1*%
%TO.N,Masa*%
X134750000Y-35250000D03*
D15*
X134750000Y-35250000D03*
%TD*%
D14*
%TO.P,H2,1,1_1*%
%TO.N,Masa*%
X73750000Y-75250000D03*
D15*
X73750000Y-75250000D03*
%TD*%
D14*
%TO.P,H7,1,1_1*%
%TO.N,Net-(JP17-A)*%
X54000000Y-126000000D03*
D15*
X54000000Y-126000000D03*
%TD*%
D24*
%TO.P,C5,1*%
%TO.N,VIN*%
X119750000Y-119950000D03*
D12*
%TO.P,C5,2*%
%TO.N,Masa*%
X119750000Y-123750000D03*
%TD*%
D33*
%TO.P,J2,SH,Shield_SH*%
%TO.N,unconnected-(J2-Shield-PadSH)*%
X56195000Y-105450000D03*
%TO.N,unconnected-(J2-Shield-PadSH)_1*%
X56195000Y-110550000D03*
%TD*%
D10*
%TO.P,R15,1*%
%TO.N,Net-(JP14-A)*%
X121720000Y-48920000D03*
%TO.P,R15,2*%
%TO.N,Net-(U2--)*%
X121720000Y-59080000D03*
%TD*%
D20*
%TO.P,C23,1*%
%TO.N,VIN*%
X91550000Y-124794888D03*
D10*
%TO.P,C23,2*%
%TO.N,Masa*%
X91550000Y-126794888D03*
%TD*%
D14*
%TO.P,H6,1,1_1*%
%TO.N,Net-(JP16-A)*%
X146250000Y-126250000D03*
D15*
X146250000Y-126250000D03*
%TD*%
D34*
%TO.P,R23,1*%
%TO.N,VIN*%
X135025000Y-120600000D03*
%TO.P,R23,2*%
%TO.N,/PowerSupply/HEATER_SENSE_L*%
X136850000Y-120600000D03*
%TD*%
D35*
%TO.P,C42,1*%
%TO.N,+3V3*%
X129700000Y-113450000D03*
%TO.P,C42,2*%
%TO.N,Masa*%
X128150000Y-113450000D03*
%TD*%
D36*
%TO.P,JP17,1,A_1*%
%TO.N,Net-(JP17-A)*%
X54000000Y-121400000D03*
D37*
%TO.P,JP17,2,B_2*%
%TO.N,Masa*%
X54000000Y-120100000D03*
%TD*%
D35*
%TO.P,C47,1*%
%TO.N,Net-(U7-PB12)*%
X65675000Y-105400000D03*
%TO.P,C47,2*%
%TO.N,Masa*%
X64125000Y-105400000D03*
%TD*%
D38*
%TO.P,C12,1*%
%TO.N,/PowerSupply/HEATER_SENSE_L*%
X141950000Y-121200000D03*
%TO.P,C12,2*%
%TO.N,Masa*%
X141950000Y-123100000D03*
%TD*%
D39*
%TO.P,R27,1*%
%TO.N,HEATER_VOLTAGE_SENSE*%
X104100000Y-103150000D03*
%TO.P,R27,2*%
%TO.N,Masa*%
X105750000Y-103150000D03*
%TD*%
D40*
%TO.P,C13,1*%
%TO.N,+15V_H*%
X137050000Y-125850000D03*
%TO.P,C13,2*%
%TO.N,Masa*%
X135150000Y-125850000D03*
%TD*%
D41*
%TO.P,JP15,1,A_1*%
%TO.N,Net-(JP15-A)*%
X141500000Y-34000000D03*
D42*
%TO.P,JP15,2,B_2*%
%TO.N,Masa*%
X140200000Y-34000000D03*
%TD*%
D35*
%TO.P,C44,1*%
%TO.N,REFERENCE_VOLTAGE_SENSE*%
X77475000Y-107250000D03*
%TO.P,C44,2*%
%TO.N,Masa*%
X75925000Y-107250000D03*
%TD*%
D43*
%TO.P,C43,1*%
%TO.N,HEATER_SENSE_OUT*%
X74100000Y-106875000D03*
%TO.P,C43,2*%
%TO.N,Masa*%
X74100000Y-108425000D03*
%TD*%
D44*
%TO.P,R28,1*%
%TO.N,TEMP_SENSE*%
X66300000Y-102275000D03*
%TO.P,R28,2*%
%TO.N,Net-(U7-PB12)*%
X66300000Y-103925000D03*
%TD*%
D45*
%TO.P,C46,1*%
%TO.N,+15V_H*%
X97550000Y-68600000D03*
%TO.P,C46,2*%
%TO.N,Masa*%
X99100000Y-68600000D03*
%TD*%
D43*
%TO.P,C25,1*%
%TO.N,VIN*%
X89500000Y-125100000D03*
%TO.P,C25,2*%
%TO.N,Masa*%
X89500000Y-126650000D03*
%TD*%
D46*
%TO.P,C8,1*%
%TO.N,+15V_H*%
X86901992Y-61201992D03*
%TO.P,C8,2*%
%TO.N,Masa*%
X87998008Y-62298008D03*
%TD*%
D44*
%TO.P,R26,1*%
%TO.N,+15V_H*%
X102500000Y-101525000D03*
%TO.P,R26,2*%
%TO.N,HEATER_VOLTAGE_SENSE*%
X102500000Y-103175000D03*
%TD*%
D36*
%TO.P,JP16,1,A_1*%
%TO.N,Net-(JP16-A)*%
X146250000Y-121800000D03*
D37*
%TO.P,JP16,2,B_2*%
%TO.N,Masa*%
X146250000Y-120500000D03*
%TD*%
D47*
%TO.P,U11,1,+_1*%
%TO.N,VIN*%
X133200000Y-116600000D03*
%TO.P,U11,2,GND_2*%
%TO.N,Masa*%
X132250000Y-116600000D03*
%TO.P,U11,3,-_3*%
%TO.N,/PowerSupply/HEATER_SENSE_L*%
X131300000Y-116600000D03*
%TO.P,U11,4*%
%TO.N,HEATER_SENSE_OUT*%
X131300000Y-114325000D03*
%TO.P,U11,5,V+_5*%
%TO.N,+3V3*%
X133200000Y-114325000D03*
%TD*%
D43*
%TO.P,C7,1*%
%TO.N,VIN*%
X133100000Y-121225000D03*
%TO.P,C7,2*%
%TO.N,Masa*%
X133100000Y-122775000D03*
%TD*%
D48*
%TO.P,JP18,1,A_1*%
%TO.N,Net-(JP18-A)*%
X54000000Y-38750000D03*
D49*
%TO.P,JP18,2,B_2*%
%TO.N,Masa*%
X54000000Y-40050000D03*
%TD*%
D50*
%TO.P,C45,1*%
%TO.N,HEATER_VOLTAGE_SENSE*%
X73198008Y-103051992D03*
%TO.P,C45,2*%
%TO.N,Masa*%
X72101992Y-104148008D03*
%TD*%
D51*
%TO.N,Masa*%
X136750000Y-65500000D03*
X91500000Y-77250000D03*
X83900000Y-124250000D03*
X83500000Y-77250000D03*
D52*
X67750000Y-122250000D03*
D53*
X72600000Y-105550000D03*
D52*
X84200000Y-109350000D03*
D51*
X121500000Y-33250000D03*
X122700000Y-112400000D03*
X122700000Y-111550000D03*
X136750000Y-67500000D03*
D52*
X69250000Y-125250000D03*
D51*
X136750000Y-69500000D03*
X129500000Y-77250000D03*
X111500000Y-33250000D03*
X115500000Y-33250000D03*
D52*
X72450000Y-99600000D03*
X97920000Y-54950000D03*
X139250000Y-54250000D03*
D51*
X136750000Y-44250000D03*
X85500000Y-77250000D03*
D52*
X72800000Y-98400000D03*
D54*
X54000000Y-118500000D03*
D51*
X77500000Y-77250000D03*
D54*
X54000000Y-41500000D03*
D52*
X77150000Y-119650000D03*
D51*
X123500000Y-77250000D03*
X81500000Y-33250000D03*
X89500000Y-77250000D03*
D52*
X130650000Y-52200000D03*
X139250000Y-59500000D03*
D51*
X117500000Y-33250000D03*
X71750000Y-46750000D03*
X83950000Y-122100000D03*
D53*
X70600000Y-105500000D03*
D51*
X136750000Y-63500000D03*
X136750000Y-40250000D03*
X125500000Y-33250000D03*
X79500000Y-33250000D03*
X95500000Y-33250000D03*
X111500000Y-77250000D03*
X71750000Y-66750000D03*
X136750000Y-57500000D03*
D52*
X60750000Y-107800000D03*
D51*
X105500000Y-33250000D03*
X113500000Y-33250000D03*
X71750000Y-48750000D03*
D53*
X121850000Y-105150000D03*
D51*
X105500000Y-77250000D03*
X71750000Y-50750000D03*
X99500000Y-33250000D03*
D53*
X67300000Y-110700000D03*
D51*
X97500000Y-77250000D03*
X89500000Y-33250000D03*
X93500000Y-33250000D03*
D52*
X78933898Y-108112943D03*
X66500000Y-100850000D03*
D51*
X95500000Y-77250000D03*
X113500000Y-77250000D03*
X136750000Y-53500000D03*
X107000000Y-110500000D03*
X71750000Y-70750000D03*
X118700000Y-104800000D03*
D52*
X106650000Y-103150000D03*
D51*
X105000000Y-110500000D03*
X125500000Y-77250000D03*
X81500000Y-77250000D03*
X123500000Y-33250000D03*
X109500000Y-33250000D03*
X136750000Y-51500000D03*
X101500000Y-110500000D03*
D52*
X75100000Y-111350000D03*
X71283826Y-118327916D03*
X92920000Y-49950000D03*
D51*
X103500000Y-77250000D03*
X131500000Y-77250000D03*
X87500000Y-77250000D03*
X127500000Y-77250000D03*
X71750000Y-58750000D03*
D52*
X74100000Y-109450000D03*
X70750000Y-99550000D03*
D51*
X101500000Y-77250000D03*
D54*
X146250000Y-118500000D03*
D51*
X85500000Y-33250000D03*
D52*
X132250000Y-115200000D03*
D51*
X107500000Y-77250000D03*
X71750000Y-44750000D03*
X99500000Y-110500000D03*
X71750000Y-62750000D03*
D52*
X111050000Y-103200000D03*
D51*
X91500000Y-33250000D03*
X103500000Y-33250000D03*
D53*
X120300000Y-105150000D03*
D51*
X109500000Y-77250000D03*
X93500000Y-77250000D03*
D53*
X125900000Y-113700000D03*
D51*
X129500000Y-33250000D03*
X115500000Y-77250000D03*
X77500000Y-33250000D03*
X122550000Y-115400000D03*
D52*
X63400000Y-126300000D03*
D51*
X100500000Y-110500000D03*
X121500000Y-77250000D03*
D52*
X57550000Y-109550000D03*
X128032500Y-56175000D03*
X62206365Y-128175749D03*
X125982500Y-56175000D03*
D51*
X71750000Y-38750000D03*
X136750000Y-59500000D03*
X117500000Y-77250000D03*
D52*
X93170000Y-45950000D03*
X77500000Y-115750000D03*
D51*
X71750000Y-40750000D03*
X103250000Y-110500000D03*
X119500000Y-33250000D03*
D52*
X65000000Y-102800000D03*
D51*
X101500000Y-33250000D03*
X71750000Y-60750000D03*
X83500000Y-33250000D03*
X87500000Y-33250000D03*
X71750000Y-56750000D03*
X106000000Y-110500000D03*
X71750000Y-52750000D03*
D52*
X89170000Y-54017500D03*
D51*
X79500000Y-77250000D03*
X97500000Y-33250000D03*
X78400000Y-118650000D03*
X71750000Y-54750000D03*
X71750000Y-64750000D03*
X127500000Y-33250000D03*
X136750000Y-61500000D03*
X99500000Y-77250000D03*
D52*
X68499999Y-101209238D03*
D51*
X107500000Y-33250000D03*
X136750000Y-42250000D03*
X133750000Y-125850000D03*
X136750000Y-71500000D03*
D52*
X76000000Y-117500000D03*
D51*
X71750000Y-68750000D03*
X136750000Y-55500000D03*
D52*
X62400000Y-121950000D03*
D51*
X119500000Y-77250000D03*
X71750000Y-42750000D03*
D53*
X65350000Y-112500000D03*
D52*
%TO.N,/PowerSupply/HEATER_SENSE_L*%
X132250000Y-118000000D03*
X136850000Y-119000000D03*
%TO.N,+3V3*%
X76281250Y-111931250D03*
X62000000Y-113000000D03*
X78150000Y-100300000D03*
D53*
X81100000Y-116550000D03*
D52*
X68050000Y-115750000D03*
X132050000Y-112900000D03*
X73550000Y-118300000D03*
X70150000Y-110950000D03*
X68166314Y-104797758D03*
X65450000Y-125250000D03*
X63450000Y-123800000D03*
D51*
%TO.N,+15V*%
X118350000Y-108700000D03*
D52*
X89920000Y-49767500D03*
D51*
X95945000Y-44555000D03*
X117700000Y-108700000D03*
D52*
%TO.N,REFERENCE_VOLTAGE_SENSE*%
X80125000Y-105825000D03*
%TO.N,HEATER_SENSE_OUT*%
X74100000Y-105650000D03*
%TO.N,HEATER_VOLTAGE_SENSE*%
X73900000Y-102200000D03*
%TO.N,Net-(U7-PB12)*%
X66950000Y-105900000D03*
%TO.N,/MCU/SDA1*%
X73500000Y-114500000D03*
X61100000Y-124900000D03*
X67050000Y-118550000D03*
%TO.N,+15V_H*%
X117850000Y-100350000D03*
D53*
%TO.N,VIN*%
X116850000Y-112400000D03*
X121250000Y-109250000D03*
D52*
%TO.N,TEMP_SENSE*%
X82600000Y-86000000D03*
X87050000Y-81550000D03*
%TD*%
%TO.N,Masa*%
D55*
X132007323Y-122775000D02*
X131000000Y-123782323D01*
D56*
X88179492Y-62298008D02*
X89440000Y-61037500D01*
D55*
X91405112Y-126650000D02*
X91550000Y-126794888D01*
X89500000Y-126650000D02*
X91405112Y-126650000D01*
D56*
X105750000Y-103150000D02*
X106650000Y-103150000D01*
D55*
X135150000Y-125850000D02*
X133750000Y-125850000D01*
D57*
X54000000Y-120100000D02*
X54000000Y-118500000D01*
D56*
X75925000Y-107250000D02*
X75275000Y-107250000D01*
D57*
X146250000Y-120500000D02*
X146250000Y-118500000D01*
D56*
X99420000Y-68920000D02*
X99100000Y-68600000D01*
X72101992Y-104148008D02*
X72101992Y-105051992D01*
D57*
X140200000Y-34000000D02*
X136000000Y-34000000D01*
D56*
X99420000Y-70660000D02*
X99420000Y-68920000D01*
D55*
X139550000Y-123100000D02*
X139400000Y-123250000D01*
X141950000Y-123100000D02*
X139550000Y-123100000D01*
D56*
X75275000Y-107250000D02*
X74100000Y-108425000D01*
X74175000Y-109525000D02*
X74100000Y-109450000D01*
X87998008Y-62298008D02*
X88179492Y-62298008D01*
X126150000Y-113450000D02*
X125900000Y-113700000D01*
X128150000Y-113450000D02*
X126150000Y-113450000D01*
D55*
X132007323Y-122775000D02*
X133100000Y-122775000D01*
D57*
X136000000Y-34000000D02*
X134750000Y-35250000D01*
X54000000Y-40050000D02*
X54000000Y-41500000D01*
D56*
X74100000Y-108425000D02*
X74100000Y-109450000D01*
D58*
X132250000Y-116600000D02*
X132250000Y-115200000D01*
D56*
X72101992Y-105051992D02*
X72600000Y-105550000D01*
%TO.N,/PowerSupply/HEATER_SENSE_L*%
D55*
X139890000Y-121200000D02*
X139400000Y-120710000D01*
X139400000Y-120710000D02*
X136960000Y-120710000D01*
D58*
X136850000Y-119000000D02*
X136850000Y-120600000D01*
D55*
X136960000Y-120710000D02*
X136850000Y-120600000D01*
D58*
X131300000Y-116600000D02*
X131300000Y-117050000D01*
D55*
X141950000Y-121200000D02*
X139890000Y-121200000D01*
D58*
X131300000Y-117050000D02*
X132250000Y-118000000D01*
%TO.N,+3V3*%
X132600000Y-112900000D02*
X132050000Y-112900000D01*
D56*
X129700000Y-113450000D02*
X130250000Y-112900000D01*
D58*
X133200000Y-114325000D02*
X133200000Y-113500000D01*
D56*
X130250000Y-112900000D02*
X132050000Y-112900000D01*
D58*
X133200000Y-113500000D02*
X132600000Y-112900000D01*
%TO.N,Net-(JP15-A)*%
D57*
X141500000Y-34000000D02*
X146000000Y-34000000D01*
%TO.N,REFERENCE_VOLTAGE_SENSE*%
D56*
X80125000Y-105825000D02*
X78700000Y-107250000D01*
X78700000Y-107250000D02*
X77475000Y-107250000D01*
%TO.N,HEATER_SENSE_OUT*%
X82900000Y-105000000D02*
X92600000Y-114700000D01*
X92600000Y-114700000D02*
X130925000Y-114700000D01*
X74100000Y-105650000D02*
X74750000Y-105000000D01*
X74100000Y-105650000D02*
X74100000Y-106875000D01*
X130925000Y-114700000D02*
X131300000Y-114325000D01*
X74750000Y-105000000D02*
X82900000Y-105000000D01*
%TO.N,HEATER_VOLTAGE_SENSE*%
X86050000Y-104200000D02*
X75900000Y-104200000D01*
X87075000Y-103175000D02*
X86050000Y-104200000D01*
X102525000Y-103150000D02*
X102500000Y-103175000D01*
X73198008Y-103051992D02*
X73198008Y-102901992D01*
X75900000Y-104200000D02*
X73900000Y-102200000D01*
X102500000Y-103175000D02*
X87075000Y-103175000D01*
X104100000Y-103150000D02*
X102525000Y-103150000D01*
X73198008Y-102901992D02*
X73900000Y-102200000D01*
%TO.N,Net-(U7-PB12)*%
D59*
X66300000Y-105250000D02*
X66450000Y-105400000D01*
X65675000Y-105400000D02*
X66450000Y-105400000D01*
X66300000Y-103925000D02*
X66300000Y-105250000D01*
X66450000Y-105400000D02*
X66950000Y-105900000D01*
%TO.N,/MCU/SDA1*%
D56*
X69450000Y-118550000D02*
X73500000Y-114500000D01*
X61100000Y-124500000D02*
X67050000Y-118550000D01*
X67050000Y-118550000D02*
X69450000Y-118550000D01*
X61100000Y-124900000D02*
X61100000Y-124500000D01*
%TO.N,Net-(JP18-A)*%
D57*
X54000000Y-38750000D02*
X54000000Y-34000000D01*
%TO.N,+15V_H*%
D59*
X96880000Y-69270000D02*
X97550000Y-68600000D01*
X96880000Y-70660000D02*
X84415113Y-70660000D01*
D55*
X82550000Y-65387500D02*
X88170000Y-59767500D01*
X82550000Y-82750000D02*
X82550000Y-65387500D01*
X130155112Y-111400000D02*
X132450000Y-111400000D01*
X139340000Y-125850000D02*
X139400000Y-125790000D01*
D59*
X96880000Y-70660000D02*
X96880000Y-69270000D01*
D55*
X137050000Y-125850000D02*
X139340000Y-125850000D01*
D56*
X117850000Y-100350000D02*
X117850000Y-101000000D01*
D59*
X84415113Y-70660000D02*
X82155113Y-68400000D01*
D55*
X132500000Y-111350000D02*
X122200000Y-101050000D01*
X132450000Y-111400000D02*
X132500000Y-111350000D01*
X100850000Y-101050000D02*
X82550000Y-82750000D01*
X122200000Y-101050000D02*
X117900000Y-101050000D01*
X135900000Y-114750000D02*
X132500000Y-111350000D01*
X135900000Y-122290000D02*
X135900000Y-114750000D01*
X117900000Y-101050000D02*
X100850000Y-101050000D01*
X139400000Y-125790000D02*
X135900000Y-122290000D01*
D56*
X117850000Y-101000000D02*
X117900000Y-101050000D01*
%TO.N,VIN*%
D55*
X132242677Y-121225000D02*
X131000000Y-119982323D01*
X131000000Y-119982323D02*
X134407323Y-119982323D01*
X134407323Y-119982323D02*
X135025000Y-120600000D01*
X89500000Y-125100000D02*
X91244888Y-125100000D01*
X91244888Y-125100000D02*
X91550000Y-124794888D01*
D58*
X133200000Y-116600000D02*
X133200000Y-117550000D01*
X133200000Y-117550000D02*
X135025000Y-119375000D01*
X135025000Y-119375000D02*
X135025000Y-120600000D01*
D55*
X132242677Y-121225000D02*
X133100000Y-121225000D01*
%TO.N,TEMP_SENSE*%
D56*
X98150000Y-71660000D02*
X98150000Y-70660000D01*
X95360000Y-74450000D02*
X98150000Y-71660000D01*
X82575000Y-86000000D02*
X82600000Y-86000000D01*
X90450000Y-76100000D02*
X92100000Y-74450000D01*
X66300000Y-102275000D02*
X82575000Y-86000000D01*
X87050000Y-81550000D02*
X90450000Y-78150000D01*
X92100000Y-74450000D02*
X95360000Y-74450000D01*
X90450000Y-78150000D02*
X90450000Y-76100000D01*
%TO.N,Net-(JP17-A)*%
D57*
X54000000Y-121400000D02*
X54000000Y-126000000D01*
%TO.N,Net-(JP16-A)*%
X146250000Y-121800000D02*
X146250000Y-126250000D01*
%TD*%
M02*
