%TF.GenerationSoftware,KiCad,Pcbnew,10.0.5*%
%TF.CreationDate,2026-08-12T11:49:27+02:00*%
%TF.ProjectId,LM399VoltageStandard,4c4d3339-3956-46f6-9c74-616765537461,rev?*%
%TF.SameCoordinates,Original*%
%TF.FileFunction,Soldermask,Bot*%
%TF.FilePolarity,Negative*%
%FSLAX46Y46*%
G04 Gerber Fmt 4.6, Leading zero omitted, Abs format (unit mm)*
G04 Created by KiCad (PCBNEW 10.0.5) date 2026-08-12 11:49:27*
%MOMM*%
%LPD*%
G01*
G04 APERTURE LIST*
G04 Aperture macros list*
%AMRoundRect*
0 Rectangle with rounded corners*
0 $1 Rounding radius*
0 $2 $3 $4 $5 $6 $7 $8 $9 X,Y pos of 4 corners*
0 Add a 4 corners polygon primitive as box body*
4,1,4,$2,$3,$4,$5,$6,$7,$8,$9,$2,$3,0*
0 Add four circle primitives for the rounded corners*
1,1,$1+$1,$2,$3*
1,1,$1+$1,$4,$5*
1,1,$1+$1,$6,$7*
1,1,$1+$1,$8,$9*
0 Add four rect primitives between the rounded corners*
20,1,$1+$1,$2,$3,$4,$5,0*
20,1,$1+$1,$4,$5,$6,$7,0*
20,1,$1+$1,$6,$7,$8,$9,0*
20,1,$1+$1,$8,$9,$2,$3,0*%
%AMFreePoly0*
4,1,23,0.500000,-0.750000,0.000000,-0.750000,0.000000,-0.745722,-0.065263,-0.745722,-0.191342,-0.711940,-0.304381,-0.646677,-0.396677,-0.554381,-0.461940,-0.441342,-0.495722,-0.315263,-0.495722,-0.250000,-0.500000,-0.250000,-0.500000,0.250000,-0.495722,0.250000,-0.495722,0.315263,-0.461940,0.441342,-0.396677,0.554381,-0.304381,0.646677,-0.191342,0.711940,-0.065263,0.745722,0.000000,0.745722,
0.000000,0.750000,0.500000,0.750000,0.500000,-0.750000,0.500000,-0.750000,$1*%
%AMFreePoly1*
4,1,23,0.000000,0.745722,0.065263,0.745722,0.191342,0.711940,0.304381,0.646677,0.396677,0.554381,0.461940,0.441342,0.495722,0.315263,0.495722,0.250000,0.500000,0.250000,0.500000,-0.250000,0.495722,-0.250000,0.495722,-0.315263,0.461940,-0.441342,0.396677,-0.554381,0.304381,-0.646677,0.191342,-0.711940,0.065263,-0.745722,0.000000,-0.745722,0.000000,-0.750000,-0.500000,-0.750000,
-0.500000,0.750000,0.000000,0.750000,0.000000,0.745722,0.000000,0.745722,$1*%
G04 Aperture macros list end*
%ADD10C,1.600000*%
%ADD11RoundRect,0.250000X0.750000X-0.750000X0.750000X0.750000X-0.750000X0.750000X-0.750000X-0.750000X0*%
%ADD12C,2.000000*%
%ADD13C,1.400000*%
%ADD14C,3.600000*%
%ADD15C,6.400000*%
%ADD16R,1.700000X1.700000*%
%ADD17C,1.700000*%
%ADD18R,1.800000X1.800000*%
%ADD19C,1.800000*%
%ADD20RoundRect,0.250000X-0.550000X0.550000X-0.550000X-0.550000X0.550000X-0.550000X0.550000X0.550000X0*%
%ADD21O,1.600000X1.200000*%
%ADD22C,1.200000*%
%ADD23RoundRect,0.250000X0.550000X0.550000X-0.550000X0.550000X-0.550000X-0.550000X0.550000X-0.550000X0*%
%ADD24RoundRect,0.250000X-0.750000X0.750000X-0.750000X-0.750000X0.750000X-0.750000X0.750000X0.750000X0*%
%ADD25R,1.905000X2.000000*%
%ADD26O,1.905000X2.000000*%
%ADD27RoundRect,0.250001X-1.149999X-1.149999X1.149999X-1.149999X1.149999X1.149999X-1.149999X1.149999X0*%
%ADD28C,2.800000*%
%ADD29R,2.000000X1.905000*%
%ADD30O,2.000000X1.905000*%
%ADD31R,1.050000X1.500000*%
%ADD32O,1.050000X1.500000*%
%ADD33C,1.100000*%
%ADD34O,1.100000X1.600000*%
%ADD35RoundRect,0.250000X-0.262500X-0.450000X0.262500X-0.450000X0.262500X0.450000X-0.262500X0.450000X0*%
%ADD36RoundRect,0.225000X0.225000X0.250000X-0.225000X0.250000X-0.225000X-0.250000X0.225000X-0.250000X0*%
%ADD37FreePoly0,90.000000*%
%ADD38FreePoly1,90.000000*%
%ADD39RoundRect,0.250000X-0.475000X0.250000X-0.475000X-0.250000X0.475000X-0.250000X0.475000X0.250000X0*%
%ADD40RoundRect,0.200000X-0.200000X-0.275000X0.200000X-0.275000X0.200000X0.275000X-0.200000X0.275000X0*%
%ADD41RoundRect,0.250000X0.250000X0.475000X-0.250000X0.475000X-0.250000X-0.475000X0.250000X-0.475000X0*%
%ADD42FreePoly0,180.000000*%
%ADD43FreePoly1,180.000000*%
%ADD44RoundRect,0.225000X-0.250000X0.225000X-0.250000X-0.225000X0.250000X-0.225000X0.250000X0.225000X0*%
%ADD45RoundRect,0.200000X-0.275000X0.200000X-0.275000X-0.200000X0.275000X-0.200000X0.275000X0.200000X0*%
%ADD46RoundRect,0.225000X-0.225000X-0.250000X0.225000X-0.250000X0.225000X0.250000X-0.225000X0.250000X0*%
%ADD47RoundRect,0.225000X-0.335876X-0.017678X-0.017678X-0.335876X0.335876X0.017678X0.017678X0.335876X0*%
%ADD48RoundRect,0.150000X0.150000X-0.512500X0.150000X0.512500X-0.150000X0.512500X-0.150000X-0.512500X0*%
%ADD49FreePoly0,270.000000*%
%ADD50FreePoly1,270.000000*%
%ADD51RoundRect,0.225000X-0.017678X0.335876X-0.335876X0.017678X0.017678X-0.335876X0.335876X-0.017678X0*%
G04 APERTURE END LIST*
%TO.C,JP17*%
G36*
X53250000Y-120600000D02*
G01*
X54750000Y-120600000D01*
X54750000Y-120900000D01*
X53250000Y-120900000D01*
X53250000Y-120600000D01*
G37*
%TO.C,JP15*%
G36*
X140700000Y-33250000D02*
G01*
X141000000Y-33250000D01*
X141000000Y-34750000D01*
X140700000Y-34750000D01*
X140700000Y-33250000D01*
G37*
%TO.C,JP16*%
G36*
X145500000Y-121000000D02*
G01*
X147000000Y-121000000D01*
X147000000Y-121300000D01*
X145500000Y-121300000D01*
X145500000Y-121000000D01*
G37*
%TO.C,JP18*%
G36*
X53250000Y-39250000D02*
G01*
X54750000Y-39250000D01*
X54750000Y-39550000D01*
X53250000Y-39550000D01*
X53250000Y-39250000D01*
G37*
%TD*%
D10*
%TO.C,R9*%
X113780000Y-53300000D03*
X103620000Y-53300000D03*
%TD*%
D11*
%TO.C,C15*%
X137550000Y-114350000D03*
D12*
X137550000Y-110550000D03*
%TD*%
D13*
%TO.C,R12*%
X118820000Y-48830000D03*
X118820000Y-56450000D03*
%TD*%
D10*
%TO.C,R4*%
X101170000Y-44762500D03*
X101170000Y-48562500D03*
%TD*%
D14*
%TO.C,H3*%
X73750000Y-35250000D03*
D15*
X73750000Y-35250000D03*
%TD*%
D14*
%TO.C,H5*%
X146000000Y-34000000D03*
D15*
X146000000Y-34000000D03*
%TD*%
D16*
%TO.C,J4*%
X88800000Y-106075000D03*
D17*
X88800000Y-108615000D03*
%TD*%
D16*
%TO.C,J3*%
X57890000Y-116500000D03*
D17*
X60430000Y-116500000D03*
X62970000Y-116500000D03*
X65510000Y-116500000D03*
%TD*%
D18*
%TO.C,D5*%
X83550000Y-96432000D03*
D19*
X83550000Y-98591000D03*
X83550000Y-100750000D03*
X83550000Y-102909000D03*
%TD*%
D14*
%TO.C,H8*%
X54000000Y-34000000D03*
D15*
X54000000Y-34000000D03*
%TD*%
D20*
%TO.C,C16*%
X100450000Y-61450000D03*
D10*
X100450000Y-63450000D03*
%TD*%
D21*
%TO.C,U1*%
X90710000Y-59767500D03*
D22*
X89440000Y-58497500D03*
X88170000Y-59767500D03*
X89440000Y-61037500D03*
%TD*%
D14*
%TO.C,H1*%
X134750000Y-75250000D03*
D15*
X134750000Y-75250000D03*
%TD*%
D23*
%TO.C,C17*%
X82155113Y-68400000D03*
D10*
X80155113Y-68400000D03*
%TD*%
D13*
%TO.C,R14*%
X118780000Y-58900000D03*
X111160000Y-58900000D03*
%TD*%
D24*
%TO.C,C4*%
X131000000Y-119982323D03*
D12*
X131000000Y-123782323D03*
%TD*%
D25*
%TO.C,U6*%
X85350000Y-126700000D03*
D26*
X82810000Y-126700000D03*
X80270000Y-126700000D03*
%TD*%
D23*
%TO.C,C9*%
X116100000Y-107500000D03*
D10*
X114100000Y-107500000D03*
%TD*%
D27*
%TO.C,J1*%
X100750000Y-125750000D03*
D28*
X105750000Y-125750000D03*
%TD*%
D10*
%TO.C,R5*%
X101170000Y-51950000D03*
X101170000Y-55750000D03*
%TD*%
D23*
%TO.C,C14*%
X130155112Y-111400000D03*
D10*
X128155112Y-111400000D03*
%TD*%
D29*
%TO.C,U5*%
X139400000Y-120710000D03*
D30*
X139400000Y-123250000D03*
X139400000Y-125790000D03*
%TD*%
D31*
%TO.C,U12*%
X96880000Y-70660000D03*
D32*
X98150000Y-70660000D03*
X99420000Y-70660000D03*
%TD*%
D13*
%TO.C,R10*%
X116370000Y-48840000D03*
X116370000Y-56460000D03*
%TD*%
D14*
%TO.C,H4*%
X134750000Y-35250000D03*
D15*
X134750000Y-35250000D03*
%TD*%
D14*
%TO.C,H2*%
X73750000Y-75250000D03*
D15*
X73750000Y-75250000D03*
%TD*%
D14*
%TO.C,H7*%
X54000000Y-126000000D03*
D15*
X54000000Y-126000000D03*
%TD*%
D24*
%TO.C,C5*%
X119750000Y-119950000D03*
D12*
X119750000Y-123750000D03*
%TD*%
D33*
%TO.C,J2*%
X53995000Y-105500000D03*
X53995000Y-110500000D03*
D34*
X56195000Y-105450000D03*
X56195000Y-110550000D03*
%TD*%
D10*
%TO.C,R15*%
X121720000Y-48920000D03*
X121720000Y-59080000D03*
%TD*%
D20*
%TO.C,C23*%
X91550000Y-124794888D03*
D10*
X91550000Y-126794888D03*
%TD*%
D14*
%TO.C,H6*%
X146250000Y-126250000D03*
D15*
X146250000Y-126250000D03*
%TD*%
D35*
%TO.C,R23*%
X135025000Y-120600000D03*
X136850000Y-120600000D03*
%TD*%
D36*
%TO.C,C42*%
X129700000Y-113450000D03*
X128150000Y-113450000D03*
%TD*%
D37*
%TO.C,JP17*%
X54000000Y-121400000D03*
D38*
X54000000Y-120100000D03*
%TD*%
D36*
%TO.C,C47*%
X65675000Y-105400000D03*
X64125000Y-105400000D03*
%TD*%
D39*
%TO.C,C12*%
X141950000Y-121200000D03*
X141950000Y-123100000D03*
%TD*%
D40*
%TO.C,R27*%
X104100000Y-103150000D03*
X105750000Y-103150000D03*
%TD*%
D41*
%TO.C,C13*%
X137050000Y-125850000D03*
X135150000Y-125850000D03*
%TD*%
D42*
%TO.C,JP15*%
X141500000Y-34000000D03*
D43*
X140200000Y-34000000D03*
%TD*%
D36*
%TO.C,C44*%
X77475000Y-107250000D03*
X75925000Y-107250000D03*
%TD*%
D44*
%TO.C,C43*%
X74100000Y-106875000D03*
X74100000Y-108425000D03*
%TD*%
D45*
%TO.C,R28*%
X66300000Y-102275000D03*
X66300000Y-103925000D03*
%TD*%
D46*
%TO.C,C46*%
X97550000Y-68600000D03*
X99100000Y-68600000D03*
%TD*%
D44*
%TO.C,C25*%
X89500000Y-125100000D03*
X89500000Y-126650000D03*
%TD*%
D47*
%TO.C,C8*%
X86901992Y-61201992D03*
X87998008Y-62298008D03*
%TD*%
D45*
%TO.C,R26*%
X102500000Y-101525000D03*
X102500000Y-103175000D03*
%TD*%
D37*
%TO.C,JP16*%
X146250000Y-121800000D03*
D38*
X146250000Y-120500000D03*
%TD*%
D48*
%TO.C,U11*%
X133200000Y-116600000D03*
X132250000Y-116600000D03*
X131300000Y-116600000D03*
X131300000Y-114325000D03*
X133200000Y-114325000D03*
%TD*%
D44*
%TO.C,C7*%
X133100000Y-121225000D03*
X133100000Y-122775000D03*
%TD*%
D49*
%TO.C,JP18*%
X54000000Y-38750000D03*
D50*
X54000000Y-40050000D03*
%TD*%
D51*
%TO.C,C45*%
X73198008Y-103051992D03*
X72101992Y-104148008D03*
%TD*%
M02*
