%TF.GenerationSoftware,KiCad,Pcbnew,10.0.5*%
%TF.CreationDate,2026-08-12T11:50:09+02:00*%
%TF.ProjectId,LM399VoltageStandard,4c4d3339-3956-46f6-9c74-616765537461,rev?*%
%TF.SameCoordinates,Original*%
%TF.FileFunction,Copper,L2,Inr*%
%TF.FilePolarity,Positive*%
%FSLAX46Y46*%
G04 Gerber Fmt 4.6, Leading zero omitted, Abs format (unit mm)*
G04 Created by KiCad (PCBNEW 10.0.5) date 2026-08-12 11:50:09*
%MOMM*%
%LPD*%
G01*
G04 APERTURE LIST*
G04 Aperture macros list*
%AMRoundRect*
0 Rectangle with rounded corners*
0 $1 Rounding radius*
0 $2 $3 $4 $5 $6 $7 $8 $9 X,Y pos of 4 corners*
0 Add a 4 corners polygon primitive as box body*
4,1,4,$2,$3,$4,$5,$6,$7,$8,$9,$2,$3,0*
0 Add four circle primitives for the rounded corners*
1,1,$1+$1,$2,$3*
1,1,$1+$1,$4,$5*
1,1,$1+$1,$6,$7*
1,1,$1+$1,$8,$9*
0 Add four rect primitives between the rounded corners*
20,1,$1+$1,$2,$3,$4,$5,0*
20,1,$1+$1,$4,$5,$6,$7,0*
20,1,$1+$1,$6,$7,$8,$9,0*
20,1,$1+$1,$8,$9,$2,$3,0*%
G04 Aperture macros list end*
%TA.AperFunction,ComponentPad*%
%ADD10C,1.600000*%
%TD*%
%TA.AperFunction,ComponentPad*%
%ADD11RoundRect,0.250000X0.750000X-0.750000X0.750000X0.750000X-0.750000X0.750000X-0.750000X-0.750000X0*%
%TD*%
%TA.AperFunction,ComponentPad*%
%ADD12C,2.000000*%
%TD*%
%TA.AperFunction,ComponentPad*%
%ADD13C,1.400000*%
%TD*%
%TA.AperFunction,ComponentPad*%
%ADD14C,3.600000*%
%TD*%
%TA.AperFunction,ComponentPad*%
%ADD15R,1.700000X1.700000*%
%TD*%
%TA.AperFunction,ComponentPad*%
%ADD16C,1.700000*%
%TD*%
%TA.AperFunction,ComponentPad*%
%ADD17R,1.800000X1.800000*%
%TD*%
%TA.AperFunction,ComponentPad*%
%ADD18C,1.800000*%
%TD*%
%TA.AperFunction,ComponentPad*%
%ADD19RoundRect,0.250000X-0.550000X0.550000X-0.550000X-0.550000X0.550000X-0.550000X0.550000X0.550000X0*%
%TD*%
%TA.AperFunction,ComponentPad*%
%ADD20O,1.600000X1.200000*%
%TD*%
%TA.AperFunction,ComponentPad*%
%ADD21C,1.200000*%
%TD*%
%TA.AperFunction,ComponentPad*%
%ADD22RoundRect,0.250000X0.550000X0.550000X-0.550000X0.550000X-0.550000X-0.550000X0.550000X-0.550000X0*%
%TD*%
%TA.AperFunction,ComponentPad*%
%ADD23RoundRect,0.250000X-0.750000X0.750000X-0.750000X-0.750000X0.750000X-0.750000X0.750000X0.750000X0*%
%TD*%
%TA.AperFunction,ComponentPad*%
%ADD24R,1.905000X2.000000*%
%TD*%
%TA.AperFunction,ComponentPad*%
%ADD25O,1.905000X2.000000*%
%TD*%
%TA.AperFunction,ComponentPad*%
%ADD26RoundRect,0.250001X-1.149999X-1.149999X1.149999X-1.149999X1.149999X1.149999X-1.149999X1.149999X0*%
%TD*%
%TA.AperFunction,ComponentPad*%
%ADD27C,2.800000*%
%TD*%
%TA.AperFunction,ComponentPad*%
%ADD28R,2.000000X1.905000*%
%TD*%
%TA.AperFunction,ComponentPad*%
%ADD29O,2.000000X1.905000*%
%TD*%
%TA.AperFunction,ComponentPad*%
%ADD30R,1.050000X1.500000*%
%TD*%
%TA.AperFunction,ComponentPad*%
%ADD31O,1.050000X1.500000*%
%TD*%
%TA.AperFunction,ComponentPad*%
%ADD32O,1.100000X1.600000*%
%TD*%
%TA.AperFunction,ViaPad*%
%ADD33C,0.700000*%
%TD*%
%TA.AperFunction,ViaPad*%
%ADD34C,0.600000*%
%TD*%
%TA.AperFunction,ViaPad*%
%ADD35C,0.500000*%
%TD*%
%TA.AperFunction,ViaPad*%
%ADD36C,0.800000*%
%TD*%
G04 APERTURE END LIST*
D10*
%TO.N,Net-(JP11-A)*%
%TO.C,R9*%
X113780000Y-53300000D03*
%TO.N,Net-(U2--)*%
X103620000Y-53300000D03*
%TD*%
D11*
%TO.N,/PowerSupply/HEATER_SENSE_L*%
%TO.C,C15*%
X137550000Y-114350000D03*
D12*
%TO.N,Masa*%
X137550000Y-110550000D03*
%TD*%
D13*
%TO.N,Net-(JP13-A)*%
%TO.C,R12*%
X118820000Y-48830000D03*
%TO.N,Net-(R12-Pad2)*%
X118820000Y-56450000D03*
%TD*%
D10*
%TO.N,Net-(JP10-B)*%
%TO.C,R4*%
X101170000Y-44762500D03*
%TO.N,Net-(U2--)*%
X101170000Y-48562500D03*
%TD*%
D14*
%TO.N,Masa*%
%TO.C,H3*%
X73750000Y-35250000D03*
%TD*%
%TO.N,Net-(JP15-A)*%
%TO.C,H5*%
X146000000Y-34000000D03*
%TD*%
D15*
%TO.N,/MCU/CAL_EN*%
%TO.C,J4*%
X88800000Y-106075000D03*
D16*
%TO.N,Masa*%
X88800000Y-108615000D03*
%TD*%
D15*
%TO.N,+3V3*%
%TO.C,J3*%
X57890000Y-116500000D03*
D16*
%TO.N,/MCU/SYS_JTMS_SWDIO*%
X60430000Y-116500000D03*
%TO.N,/MCU/SYS_JTCK_SWCLK*%
X62970000Y-116500000D03*
%TO.N,Masa*%
X65510000Y-116500000D03*
%TD*%
D17*
%TO.N,/MCU/LED_B*%
%TO.C,D5*%
X83550000Y-96432000D03*
D18*
%TO.N,/MCU/LED_G*%
X83550000Y-98591000D03*
%TO.N,Masa*%
X83550000Y-100750000D03*
%TO.N,/MCU/LED_R*%
X83550000Y-102909000D03*
%TD*%
D14*
%TO.N,Net-(JP18-A)*%
%TO.C,H8*%
X54000000Y-34000000D03*
%TD*%
D19*
%TO.N,+15V*%
%TO.C,C16*%
X100450000Y-61450000D03*
D10*
%TO.N,Masa*%
X100450000Y-63450000D03*
%TD*%
D20*
%TO.N,Net-(U2-+)*%
%TO.C,U1*%
X90710000Y-59767500D03*
D21*
%TO.N,Masa*%
X89440000Y-58497500D03*
%TO.N,+15V_H*%
X88170000Y-59767500D03*
%TO.N,Masa*%
X89440000Y-61037500D03*
%TD*%
D14*
%TO.N,Masa*%
%TO.C,H1*%
X134750000Y-75250000D03*
%TD*%
D22*
%TO.N,+15V_H*%
%TO.C,C17*%
X82155113Y-68400000D03*
D10*
%TO.N,Masa*%
X80155113Y-68400000D03*
%TD*%
D13*
%TO.N,Net-(R12-Pad2)*%
%TO.C,R14*%
X118780000Y-58900000D03*
%TO.N,Net-(U2--)*%
X111160000Y-58900000D03*
%TD*%
D23*
%TO.N,VIN*%
%TO.C,C4*%
X131000000Y-119982323D03*
D12*
%TO.N,Masa*%
X131000000Y-123782323D03*
%TD*%
D24*
%TO.N,VIN*%
%TO.C,U6*%
X85350000Y-126700000D03*
D25*
%TO.N,Masa*%
X82810000Y-126700000D03*
%TO.N,+5V*%
X80270000Y-126700000D03*
%TD*%
D22*
%TO.N,+15V*%
%TO.C,C9*%
X116100000Y-107500000D03*
D10*
%TO.N,Masa*%
X114100000Y-107500000D03*
%TD*%
D26*
%TO.N,Net-(D2-K)*%
%TO.C,J1*%
X100750000Y-125750000D03*
D27*
%TO.N,Net-(D1-K)*%
X105750000Y-125750000D03*
%TD*%
D10*
%TO.N,Net-(U2--)*%
%TO.C,R5*%
X101170000Y-51950000D03*
%TO.N,Masa*%
X101170000Y-55750000D03*
%TD*%
D22*
%TO.N,+15V_H*%
%TO.C,C14*%
X130155112Y-111400000D03*
D10*
%TO.N,Masa*%
X128155112Y-111400000D03*
%TD*%
D28*
%TO.N,/PowerSupply/HEATER_SENSE_L*%
%TO.C,U5*%
X139400000Y-120710000D03*
D29*
%TO.N,Masa*%
X139400000Y-123250000D03*
%TO.N,+15V_H*%
X139400000Y-125790000D03*
%TD*%
D30*
%TO.N,+15V_H*%
%TO.C,U12*%
X96880000Y-70660000D03*
D31*
%TO.N,TEMP_SENSE*%
X98150000Y-70660000D03*
%TO.N,Masa*%
X99420000Y-70660000D03*
%TD*%
D13*
%TO.N,Net-(JP12-A)*%
%TO.C,R10*%
X116370000Y-48840000D03*
%TO.N,Net-(U2--)*%
X116370000Y-56460000D03*
%TD*%
D14*
%TO.N,Masa*%
%TO.C,H4*%
X134750000Y-35250000D03*
%TD*%
%TO.N,Masa*%
%TO.C,H2*%
X73750000Y-75250000D03*
%TD*%
%TO.N,Net-(JP17-A)*%
%TO.C,H7*%
X54000000Y-126000000D03*
%TD*%
D23*
%TO.N,VIN*%
%TO.C,C5*%
X119750000Y-119950000D03*
D12*
%TO.N,Masa*%
X119750000Y-123750000D03*
%TD*%
D32*
%TO.N,unconnected-(J2-Shield-PadSH)*%
%TO.C,J2*%
X56195000Y-105450000D03*
%TO.N,unconnected-(J2-Shield-PadSH)_1*%
X56195000Y-110550000D03*
%TD*%
D10*
%TO.N,Net-(JP14-A)*%
%TO.C,R15*%
X121720000Y-48920000D03*
%TO.N,Net-(U2--)*%
X121720000Y-59080000D03*
%TD*%
D19*
%TO.N,VIN*%
%TO.C,C23*%
X91550000Y-124794888D03*
D10*
%TO.N,Masa*%
X91550000Y-126794888D03*
%TD*%
D14*
%TO.N,Net-(JP16-A)*%
%TO.C,H6*%
X146250000Y-126250000D03*
%TD*%
D33*
%TO.N,Masa*%
X136750000Y-65500000D03*
X91500000Y-77250000D03*
X83900000Y-124250000D03*
X83500000Y-77250000D03*
D34*
X67750000Y-122250000D03*
D35*
X72600000Y-105550000D03*
D34*
X84200000Y-109350000D03*
D33*
X121500000Y-33250000D03*
X122700000Y-112400000D03*
X122700000Y-111550000D03*
X136750000Y-67500000D03*
D34*
X69250000Y-125250000D03*
D33*
X136750000Y-69500000D03*
X129500000Y-77250000D03*
X111500000Y-33250000D03*
X115500000Y-33250000D03*
D34*
X72450000Y-99600000D03*
X97920000Y-54950000D03*
X139250000Y-54250000D03*
D33*
X136750000Y-44250000D03*
X85500000Y-77250000D03*
D34*
X72800000Y-98400000D03*
D36*
X54000000Y-118500000D03*
D33*
X77500000Y-77250000D03*
D36*
X54000000Y-41500000D03*
D34*
X77150000Y-119650000D03*
D33*
X123500000Y-77250000D03*
X81500000Y-33250000D03*
X89500000Y-77250000D03*
D34*
X130650000Y-52200000D03*
X139250000Y-59500000D03*
D33*
X117500000Y-33250000D03*
X71750000Y-46750000D03*
X83950000Y-122100000D03*
D35*
X70600000Y-105500000D03*
D33*
X136750000Y-63500000D03*
X136750000Y-40250000D03*
X125500000Y-33250000D03*
X79500000Y-33250000D03*
X95500000Y-33250000D03*
X111500000Y-77250000D03*
X71750000Y-66750000D03*
X136750000Y-57500000D03*
D34*
X60750000Y-107800000D03*
D33*
X105500000Y-33250000D03*
X113500000Y-33250000D03*
X71750000Y-48750000D03*
D35*
X121850000Y-105150000D03*
D33*
X105500000Y-77250000D03*
X71750000Y-50750000D03*
X99500000Y-33250000D03*
D35*
X67300000Y-110700000D03*
D33*
X97500000Y-77250000D03*
X89500000Y-33250000D03*
X93500000Y-33250000D03*
D34*
X78933898Y-108112943D03*
X66500000Y-100850000D03*
D33*
X95500000Y-77250000D03*
X113500000Y-77250000D03*
X136750000Y-53500000D03*
X107000000Y-110500000D03*
X71750000Y-70750000D03*
X118700000Y-104800000D03*
D34*
X106650000Y-103150000D03*
D33*
X105000000Y-110500000D03*
X125500000Y-77250000D03*
X81500000Y-77250000D03*
X123500000Y-33250000D03*
X109500000Y-33250000D03*
X136750000Y-51500000D03*
X101500000Y-110500000D03*
D34*
X75100000Y-111350000D03*
X71283826Y-118327916D03*
X92920000Y-49950000D03*
D33*
X103500000Y-77250000D03*
X131500000Y-77250000D03*
X87500000Y-77250000D03*
X127500000Y-77250000D03*
X71750000Y-58750000D03*
D34*
X74100000Y-109450000D03*
X70750000Y-99550000D03*
D33*
X101500000Y-77250000D03*
D36*
X146250000Y-118500000D03*
D33*
X85500000Y-33250000D03*
D34*
X132250000Y-115200000D03*
D33*
X107500000Y-77250000D03*
X71750000Y-44750000D03*
X99500000Y-110500000D03*
X71750000Y-62750000D03*
D34*
X111050000Y-103200000D03*
D33*
X91500000Y-33250000D03*
X103500000Y-33250000D03*
D35*
X120300000Y-105150000D03*
D33*
X109500000Y-77250000D03*
X93500000Y-77250000D03*
D35*
X125900000Y-113700000D03*
D33*
X129500000Y-33250000D03*
X115500000Y-77250000D03*
X77500000Y-33250000D03*
X122550000Y-115400000D03*
D34*
X63400000Y-126300000D03*
D33*
X100500000Y-110500000D03*
X121500000Y-77250000D03*
D34*
X57550000Y-109550000D03*
X128032500Y-56175000D03*
X62206365Y-128175749D03*
X125982500Y-56175000D03*
D33*
X71750000Y-38750000D03*
X136750000Y-59500000D03*
X117500000Y-77250000D03*
D34*
X93170000Y-45950000D03*
X77500000Y-115750000D03*
D33*
X71750000Y-40750000D03*
X103250000Y-110500000D03*
X119500000Y-33250000D03*
D34*
X65000000Y-102800000D03*
D33*
X101500000Y-33250000D03*
X71750000Y-60750000D03*
X83500000Y-33250000D03*
X87500000Y-33250000D03*
X71750000Y-56750000D03*
X106000000Y-110500000D03*
X71750000Y-52750000D03*
D34*
X89170000Y-54017500D03*
D33*
X79500000Y-77250000D03*
X97500000Y-33250000D03*
X78400000Y-118650000D03*
X71750000Y-54750000D03*
X71750000Y-64750000D03*
X127500000Y-33250000D03*
X136750000Y-61500000D03*
X99500000Y-77250000D03*
D34*
X68499999Y-101209238D03*
D33*
X107500000Y-33250000D03*
X136750000Y-42250000D03*
X133750000Y-125850000D03*
X136750000Y-71500000D03*
D34*
X76000000Y-117500000D03*
D33*
X71750000Y-68750000D03*
X136750000Y-55500000D03*
D34*
X62400000Y-121950000D03*
D33*
X119500000Y-77250000D03*
X71750000Y-42750000D03*
D35*
X65350000Y-112500000D03*
D34*
%TO.N,/PowerSupply/HEATER_SENSE_L*%
X132250000Y-118000000D03*
X136850000Y-119000000D03*
%TO.N,+3V3*%
X76281250Y-111931250D03*
X62000000Y-113000000D03*
X78150000Y-100300000D03*
D35*
X81100000Y-116550000D03*
D34*
X68050000Y-115750000D03*
X132050000Y-112900000D03*
X73550000Y-118300000D03*
X70150000Y-110950000D03*
X68166314Y-104797758D03*
X65450000Y-125250000D03*
X63450000Y-123800000D03*
D33*
%TO.N,+15V*%
X118350000Y-108700000D03*
D34*
X89920000Y-49767500D03*
D33*
X95945000Y-44555000D03*
X117700000Y-108700000D03*
D34*
%TO.N,REFERENCE_VOLTAGE_SENSE*%
X80125000Y-105825000D03*
%TO.N,HEATER_SENSE_OUT*%
X74100000Y-105650000D03*
%TO.N,HEATER_VOLTAGE_SENSE*%
X73900000Y-102200000D03*
%TO.N,Net-(U7-PB12)*%
X66950000Y-105900000D03*
%TO.N,/MCU/SDA1*%
X73500000Y-114500000D03*
X61100000Y-124900000D03*
X67050000Y-118550000D03*
%TO.N,+15V_H*%
X117850000Y-100350000D03*
D35*
%TO.N,VIN*%
X116850000Y-112400000D03*
X121250000Y-109250000D03*
D34*
%TO.N,TEMP_SENSE*%
X82600000Y-86000000D03*
X87050000Y-81550000D03*
%TD*%
%TA.AperFunction,Conductor*%
%TO.N,Masa*%
G36*
X149442539Y-30520185D02*
G01*
X149488294Y-30572989D01*
X149499500Y-30624500D01*
X149499500Y-129375500D01*
X149479815Y-129442539D01*
X149427011Y-129488294D01*
X149375500Y-129499500D01*
X50624500Y-129499500D01*
X50557461Y-129479815D01*
X50511706Y-129427011D01*
X50500500Y-129375500D01*
X50500500Y-125862332D01*
X51899500Y-125862332D01*
X51899500Y-126137667D01*
X51899501Y-126137684D01*
X51935438Y-126410655D01*
X51935439Y-126410660D01*
X51935440Y-126410666D01*
X51952627Y-126474808D01*
X52006704Y-126676630D01*
X52112075Y-126931017D01*
X52112080Y-126931028D01*
X52175523Y-127040913D01*
X52249751Y-127169479D01*
X52249753Y-127169482D01*
X52249754Y-127169483D01*
X52417370Y-127387926D01*
X52417376Y-127387933D01*
X52612066Y-127582623D01*
X52612072Y-127582628D01*
X52830521Y-127750249D01*
X52973207Y-127832629D01*
X53068971Y-127887919D01*
X53068976Y-127887921D01*
X53068979Y-127887923D01*
X53323368Y-127993295D01*
X53589334Y-128064560D01*
X53862326Y-128100500D01*
X53862333Y-128100500D01*
X54137667Y-128100500D01*
X54137674Y-128100500D01*
X54410666Y-128064560D01*
X54676632Y-127993295D01*
X54931021Y-127887923D01*
X55169479Y-127750249D01*
X55387928Y-127582628D01*
X55582628Y-127387928D01*
X55750249Y-127169479D01*
X55887923Y-126931021D01*
X55993295Y-126676632D01*
X56026186Y-126553881D01*
X79017000Y-126553881D01*
X79017000Y-126846118D01*
X79047853Y-127040913D01*
X79108797Y-127228482D01*
X79188221Y-127384359D01*
X79198338Y-127404215D01*
X79314265Y-127563775D01*
X79453725Y-127703235D01*
X79613285Y-127819162D01*
X79684416Y-127855405D01*
X79789017Y-127908702D01*
X79882801Y-127939174D01*
X79976588Y-127969647D01*
X80066807Y-127983936D01*
X80171382Y-128000500D01*
X80171387Y-128000500D01*
X80368618Y-128000500D01*
X80463052Y-127985542D01*
X80563412Y-127969647D01*
X80750985Y-127908701D01*
X80926715Y-127819162D01*
X81086275Y-127703235D01*
X81225735Y-127563775D01*
X81324277Y-127428142D01*
X81379607Y-127385478D01*
X81449220Y-127379499D01*
X81511015Y-127412105D01*
X81535080Y-127444734D01*
X81567711Y-127508776D01*
X81702097Y-127693742D01*
X81863757Y-127855402D01*
X82048723Y-127989788D01*
X82252429Y-128093582D01*
X82469871Y-128164234D01*
X82560000Y-128178509D01*
X82560000Y-127190747D01*
X82597708Y-127212518D01*
X82737591Y-127250000D01*
X82882409Y-127250000D01*
X83022292Y-127212518D01*
X83060000Y-127190747D01*
X83060000Y-128178508D01*
X83150128Y-128164234D01*
X83367570Y-128093582D01*
X83571276Y-127989788D01*
X83756238Y-127855405D01*
X83893480Y-127718163D01*
X83954803Y-127684678D01*
X84024495Y-127689662D01*
X84080429Y-127731533D01*
X84095234Y-127761861D01*
X84096147Y-127761458D01*
X84145293Y-127872764D01*
X84145294Y-127872765D01*
X84224735Y-127952206D01*
X84327509Y-127997585D01*
X84352635Y-128000500D01*
X86347364Y-128000499D01*
X86347379Y-128000497D01*
X86347382Y-128000497D01*
X86372487Y-127997586D01*
X86372488Y-127997585D01*
X86372491Y-127997585D01*
X86475265Y-127952206D01*
X86554706Y-127872765D01*
X86600085Y-127769991D01*
X86603000Y-127744865D01*
X86602999Y-126692570D01*
X90250000Y-126692570D01*
X90250000Y-126897205D01*
X90282009Y-127099305D01*
X90345244Y-127293919D01*
X90438141Y-127476238D01*
X90438147Y-127476247D01*
X90470523Y-127520809D01*
X90470524Y-127520810D01*
X91150000Y-126841334D01*
X91150000Y-126847549D01*
X91177259Y-126949282D01*
X91229920Y-127040494D01*
X91304394Y-127114968D01*
X91395606Y-127167629D01*
X91497339Y-127194888D01*
X91503553Y-127194888D01*
X90824076Y-127874362D01*
X90868650Y-127906747D01*
X91050968Y-127999643D01*
X91245582Y-128062878D01*
X91447683Y-128094888D01*
X91652317Y-128094888D01*
X91854417Y-128062878D01*
X92049031Y-127999643D01*
X92231349Y-127906747D01*
X92275921Y-127874362D01*
X91596447Y-127194888D01*
X91602661Y-127194888D01*
X91704394Y-127167629D01*
X91795606Y-127114968D01*
X91870080Y-127040494D01*
X91922741Y-126949282D01*
X91950000Y-126847549D01*
X91950000Y-126841335D01*
X92629474Y-127520809D01*
X92661859Y-127476237D01*
X92754755Y-127293919D01*
X92817990Y-127099305D01*
X92850000Y-126897205D01*
X92850000Y-126692570D01*
X92817990Y-126490470D01*
X92754755Y-126295856D01*
X92661859Y-126113538D01*
X92629474Y-126068965D01*
X92629474Y-126068964D01*
X91950000Y-126748439D01*
X91950000Y-126742227D01*
X91922741Y-126640494D01*
X91870080Y-126549282D01*
X91795606Y-126474808D01*
X91704394Y-126422147D01*
X91602661Y-126394888D01*
X91596445Y-126394888D01*
X92059659Y-125931675D01*
X92120982Y-125898190D01*
X92139932Y-125895578D01*
X92143086Y-125895389D01*
X92143094Y-125895388D01*
X92143102Y-125895388D01*
X92231564Y-125884765D01*
X92372342Y-125829249D01*
X92492922Y-125737810D01*
X92584361Y-125617230D01*
X92639877Y-125476452D01*
X92650500Y-125387990D01*
X92650500Y-124556900D01*
X99049500Y-124556900D01*
X99049500Y-126943091D01*
X99060123Y-127031562D01*
X99115639Y-127172342D01*
X99115640Y-127172344D01*
X99207077Y-127292922D01*
X99327655Y-127384359D01*
X99327658Y-127384361D01*
X99468436Y-127439876D01*
X99556901Y-127450500D01*
X101943098Y-127450499D01*
X102031564Y-127439876D01*
X102172342Y-127384361D01*
X102292922Y-127292922D01*
X102384361Y-127172342D01*
X102439876Y-127031564D01*
X102450500Y-126943099D01*
X102450499Y-125638549D01*
X104049500Y-125638549D01*
X104049500Y-125861450D01*
X104049501Y-125861466D01*
X104078594Y-126082452D01*
X104078595Y-126082457D01*
X104078596Y-126082463D01*
X104129110Y-126270985D01*
X104136290Y-126297780D01*
X104136293Y-126297790D01*
X104214960Y-126487708D01*
X104221595Y-126503726D01*
X104333052Y-126696774D01*
X104333057Y-126696780D01*
X104333058Y-126696782D01*
X104468751Y-126873622D01*
X104468757Y-126873629D01*
X104626370Y-127031242D01*
X104626377Y-127031248D01*
X104638973Y-127040913D01*
X104803226Y-127166948D01*
X104996274Y-127278405D01*
X105202219Y-127363710D01*
X105417537Y-127421404D01*
X105638543Y-127450500D01*
X105638550Y-127450500D01*
X105861450Y-127450500D01*
X105861457Y-127450500D01*
X106082463Y-127421404D01*
X106297781Y-127363710D01*
X106503726Y-127278405D01*
X106696774Y-127166948D01*
X106873624Y-127031247D01*
X107031247Y-126873624D01*
X107166948Y-126696774D01*
X107278405Y-126503726D01*
X107363710Y-126297781D01*
X107421404Y-126082463D01*
X107450500Y-125861457D01*
X107450500Y-125638543D01*
X107421404Y-125417537D01*
X107363710Y-125202219D01*
X107335156Y-125133284D01*
X107278406Y-124996276D01*
X107278405Y-124996274D01*
X107270068Y-124981834D01*
X119083848Y-124981834D01*
X119212589Y-125047431D01*
X119422164Y-125115526D01*
X119639819Y-125150000D01*
X119860181Y-125150000D01*
X120077835Y-125115526D01*
X120287412Y-125047430D01*
X120352713Y-125014157D01*
X130333848Y-125014157D01*
X130462589Y-125079754D01*
X130672164Y-125147849D01*
X130889819Y-125182323D01*
X131110181Y-125182323D01*
X131327835Y-125147849D01*
X131537412Y-125079753D01*
X131666150Y-125014157D01*
X131000001Y-124348008D01*
X131000000Y-124348008D01*
X130333848Y-125014157D01*
X120352713Y-125014157D01*
X120416150Y-124981834D01*
X119750001Y-124315685D01*
X119750000Y-124315685D01*
X119083848Y-124981834D01*
X107270068Y-124981834D01*
X107268464Y-124979056D01*
X107166948Y-124803226D01*
X107063352Y-124668216D01*
X107031248Y-124626377D01*
X107031242Y-124626370D01*
X106873629Y-124468757D01*
X106873622Y-124468751D01*
X106696782Y-124333058D01*
X106696780Y-124333057D01*
X106696774Y-124333052D01*
X106503726Y-124221595D01*
X106503722Y-124221593D01*
X106297790Y-124136293D01*
X106297783Y-124136291D01*
X106297781Y-124136290D01*
X106082463Y-124078596D01*
X106082457Y-124078595D01*
X106082452Y-124078594D01*
X105861466Y-124049501D01*
X105861463Y-124049500D01*
X105861457Y-124049500D01*
X105638543Y-124049500D01*
X105638537Y-124049500D01*
X105638533Y-124049501D01*
X105417547Y-124078594D01*
X105417540Y-124078595D01*
X105417537Y-124078596D01*
X105279290Y-124115639D01*
X105202219Y-124136290D01*
X105202209Y-124136293D01*
X104996277Y-124221593D01*
X104996273Y-124221595D01*
X104803226Y-124333052D01*
X104803217Y-124333058D01*
X104626377Y-124468751D01*
X104626370Y-124468757D01*
X104468757Y-124626370D01*
X104468751Y-124626377D01*
X104333058Y-124803217D01*
X104333052Y-124803226D01*
X104221595Y-124996273D01*
X104221593Y-124996277D01*
X104136293Y-125202209D01*
X104136290Y-125202219D01*
X104082649Y-125402413D01*
X104078597Y-125417534D01*
X104078594Y-125417547D01*
X104049501Y-125638533D01*
X104049500Y-125638549D01*
X102450499Y-125638549D01*
X102450499Y-124556902D01*
X102439876Y-124468436D01*
X102384361Y-124327658D01*
X102378353Y-124319735D01*
X102292922Y-124207077D01*
X102172344Y-124115640D01*
X102172342Y-124115639D01*
X102031564Y-124060124D01*
X102031561Y-124060123D01*
X101943099Y-124049500D01*
X99556908Y-124049500D01*
X99468437Y-124060123D01*
X99327657Y-124115639D01*
X99327655Y-124115640D01*
X99207077Y-124207077D01*
X99115640Y-124327655D01*
X99103052Y-124359576D01*
X99067997Y-124448473D01*
X99060124Y-124468437D01*
X99060123Y-124468438D01*
X99049500Y-124556900D01*
X92650500Y-124556900D01*
X92650500Y-124201786D01*
X92639877Y-124113324D01*
X92584361Y-123972546D01*
X92584360Y-123972545D01*
X92584360Y-123972544D01*
X92492922Y-123851965D01*
X92372343Y-123760527D01*
X92358031Y-123754883D01*
X92231564Y-123705011D01*
X92231563Y-123705010D01*
X92231561Y-123705010D01*
X92185926Y-123699530D01*
X92143102Y-123694388D01*
X90956898Y-123694388D01*
X90917853Y-123699076D01*
X90868438Y-123705010D01*
X90727656Y-123760527D01*
X90607077Y-123851965D01*
X90515639Y-123972544D01*
X90460122Y-124113326D01*
X90455707Y-124150099D01*
X90449500Y-124201786D01*
X90449500Y-125387990D01*
X90454587Y-125430353D01*
X90460122Y-125476449D01*
X90515639Y-125617231D01*
X90607077Y-125737810D01*
X90727656Y-125829248D01*
X90727657Y-125829248D01*
X90727658Y-125829249D01*
X90868436Y-125884765D01*
X90956898Y-125895388D01*
X90956904Y-125895388D01*
X90956912Y-125895389D01*
X90960068Y-125895578D01*
X91025812Y-125919233D01*
X91040340Y-125931675D01*
X91503553Y-126394888D01*
X91497339Y-126394888D01*
X91395606Y-126422147D01*
X91304394Y-126474808D01*
X91229920Y-126549282D01*
X91177259Y-126640494D01*
X91150000Y-126742227D01*
X91150000Y-126748441D01*
X90470524Y-126068965D01*
X90470523Y-126068965D01*
X90438143Y-126113532D01*
X90345244Y-126295856D01*
X90282009Y-126490470D01*
X90250000Y-126692570D01*
X86602999Y-126692570D01*
X86602999Y-125655136D01*
X86602997Y-125655117D01*
X86600086Y-125630012D01*
X86600085Y-125630010D01*
X86600085Y-125630009D01*
X86554706Y-125527235D01*
X86475265Y-125447794D01*
X86435765Y-125430353D01*
X86372492Y-125402415D01*
X86347365Y-125399500D01*
X84352643Y-125399500D01*
X84352617Y-125399502D01*
X84327512Y-125402413D01*
X84327508Y-125402415D01*
X84224735Y-125447793D01*
X84145294Y-125527234D01*
X84096147Y-125638542D01*
X84094095Y-125637636D01*
X84064216Y-125686231D01*
X84001251Y-125716517D01*
X83931908Y-125707953D01*
X83893481Y-125681836D01*
X83756242Y-125544597D01*
X83571276Y-125410211D01*
X83367568Y-125306417D01*
X83150124Y-125235765D01*
X83060000Y-125221490D01*
X83060000Y-126209252D01*
X83022292Y-126187482D01*
X82882409Y-126150000D01*
X82737591Y-126150000D01*
X82597708Y-126187482D01*
X82560000Y-126209252D01*
X82560000Y-125221490D01*
X82559999Y-125221490D01*
X82469875Y-125235765D01*
X82252431Y-125306417D01*
X82048723Y-125410211D01*
X81863757Y-125544597D01*
X81702097Y-125706257D01*
X81567709Y-125891225D01*
X81535079Y-125955266D01*
X81487105Y-126006061D01*
X81419284Y-126022856D01*
X81353149Y-126000318D01*
X81324277Y-125971856D01*
X81295083Y-125931675D01*
X81225735Y-125836225D01*
X81086275Y-125696765D01*
X80926715Y-125580838D01*
X80855588Y-125544597D01*
X80750982Y-125491297D01*
X80563413Y-125430353D01*
X80368618Y-125399500D01*
X80368613Y-125399500D01*
X80171387Y-125399500D01*
X80171382Y-125399500D01*
X79976586Y-125430353D01*
X79789017Y-125491297D01*
X79613284Y-125580838D01*
X79453722Y-125696767D01*
X79314267Y-125836222D01*
X79198338Y-125995784D01*
X79108797Y-126171517D01*
X79047853Y-126359086D01*
X79017000Y-126553881D01*
X56026186Y-126553881D01*
X56064560Y-126410666D01*
X56100500Y-126137674D01*
X56100500Y-125862326D01*
X56064560Y-125589334D01*
X55993295Y-125323368D01*
X55887923Y-125068979D01*
X55750249Y-124830521D01*
X55742900Y-124820943D01*
X60499500Y-124820943D01*
X60499500Y-124979057D01*
X60540139Y-125130722D01*
X60540423Y-125131783D01*
X60540426Y-125131790D01*
X60619475Y-125268709D01*
X60619479Y-125268714D01*
X60619480Y-125268716D01*
X60731284Y-125380520D01*
X60731286Y-125380521D01*
X60731290Y-125380524D01*
X60795417Y-125417547D01*
X60868216Y-125459577D01*
X61020943Y-125500500D01*
X61020945Y-125500500D01*
X61179055Y-125500500D01*
X61179057Y-125500500D01*
X61331784Y-125459577D01*
X61468716Y-125380520D01*
X61580520Y-125268716D01*
X61636969Y-125170943D01*
X64849500Y-125170943D01*
X64849500Y-125329057D01*
X64888995Y-125476452D01*
X64890423Y-125481783D01*
X64890426Y-125481790D01*
X64969475Y-125618709D01*
X64969479Y-125618714D01*
X64969480Y-125618716D01*
X65081284Y-125730520D01*
X65081286Y-125730521D01*
X65081290Y-125730524D01*
X65218209Y-125809573D01*
X65218216Y-125809577D01*
X65370943Y-125850500D01*
X65370945Y-125850500D01*
X65529055Y-125850500D01*
X65529057Y-125850500D01*
X65681784Y-125809577D01*
X65818716Y-125730520D01*
X65930520Y-125618716D01*
X66009577Y-125481784D01*
X66050500Y-125329057D01*
X66050500Y-125170943D01*
X66009577Y-125018216D01*
X65986968Y-124979055D01*
X65930524Y-124881290D01*
X65930518Y-124881282D01*
X65818717Y-124769481D01*
X65818709Y-124769475D01*
X65681790Y-124690426D01*
X65681786Y-124690424D01*
X65681784Y-124690423D01*
X65529057Y-124649500D01*
X65370943Y-124649500D01*
X65218216Y-124690423D01*
X65218209Y-124690426D01*
X65081290Y-124769475D01*
X65081282Y-124769481D01*
X64969481Y-124881282D01*
X64969475Y-124881290D01*
X64890426Y-125018209D01*
X64890423Y-125018216D01*
X64849500Y-125170943D01*
X61636969Y-125170943D01*
X61659577Y-125131784D01*
X61700500Y-124979057D01*
X61700500Y-124820943D01*
X61659577Y-124668216D01*
X61659089Y-124667370D01*
X61580524Y-124531290D01*
X61580518Y-124531282D01*
X61468717Y-124419481D01*
X61468709Y-124419475D01*
X61331790Y-124340426D01*
X61331786Y-124340424D01*
X61331784Y-124340423D01*
X61179057Y-124299500D01*
X61020943Y-124299500D01*
X60868216Y-124340423D01*
X60868209Y-124340426D01*
X60731290Y-124419475D01*
X60731282Y-124419481D01*
X60619481Y-124531282D01*
X60619475Y-124531290D01*
X60540426Y-124668209D01*
X60540423Y-124668216D01*
X60499500Y-124820943D01*
X55742900Y-124820943D01*
X55625061Y-124667372D01*
X55582629Y-124612073D01*
X55582623Y-124612066D01*
X55387933Y-124417376D01*
X55387926Y-124417370D01*
X55169483Y-124249754D01*
X55169482Y-124249753D01*
X55169479Y-124249751D01*
X55052862Y-124182422D01*
X54931028Y-124112080D01*
X54931017Y-124112075D01*
X54676630Y-124006704D01*
X54543649Y-123971072D01*
X54410666Y-123935440D01*
X54410660Y-123935439D01*
X54410655Y-123935438D01*
X54137684Y-123899501D01*
X54137679Y-123899500D01*
X54137674Y-123899500D01*
X53862326Y-123899500D01*
X53862320Y-123899500D01*
X53862315Y-123899501D01*
X53589344Y-123935438D01*
X53589337Y-123935439D01*
X53589334Y-123935440D01*
X53561146Y-123942993D01*
X53323369Y-124006704D01*
X53068982Y-124112075D01*
X53068971Y-124112080D01*
X52830516Y-124249754D01*
X52612073Y-124417370D01*
X52612066Y-124417376D01*
X52417376Y-124612066D01*
X52417370Y-124612073D01*
X52249754Y-124830516D01*
X52112080Y-125068971D01*
X52112075Y-125068982D01*
X52006704Y-125323369D01*
X51960291Y-125496588D01*
X51937717Y-125580838D01*
X51935441Y-125589331D01*
X51935438Y-125589344D01*
X51899501Y-125862315D01*
X51899500Y-125862332D01*
X50500500Y-125862332D01*
X50500500Y-123720943D01*
X62849500Y-123720943D01*
X62849500Y-123879057D01*
X62875293Y-123975316D01*
X62890423Y-124031783D01*
X62890426Y-124031790D01*
X62969475Y-124168709D01*
X62969479Y-124168714D01*
X62969480Y-124168716D01*
X63081284Y-124280520D01*
X63081286Y-124280521D01*
X63081290Y-124280524D01*
X63162925Y-124327655D01*
X63218216Y-124359577D01*
X63370943Y-124400500D01*
X63370945Y-124400500D01*
X63529055Y-124400500D01*
X63529057Y-124400500D01*
X63681784Y-124359577D01*
X63818716Y-124280520D01*
X63930520Y-124168716D01*
X63935922Y-124159357D01*
X63949363Y-124136080D01*
X63982551Y-124078594D01*
X64009577Y-124031784D01*
X64050500Y-123879057D01*
X64050500Y-123720943D01*
X64028763Y-123639818D01*
X118350000Y-123639818D01*
X118350000Y-123860181D01*
X118384473Y-124077835D01*
X118452567Y-124287410D01*
X118518164Y-124416149D01*
X119184314Y-123750000D01*
X119184314Y-123749999D01*
X119118489Y-123684174D01*
X119250000Y-123684174D01*
X119250000Y-123815826D01*
X119284075Y-123942993D01*
X119349901Y-124057007D01*
X119442993Y-124150099D01*
X119557007Y-124215925D01*
X119684174Y-124250000D01*
X119815826Y-124250000D01*
X119942993Y-124215925D01*
X120057007Y-124150099D01*
X120150099Y-124057007D01*
X120215925Y-123942993D01*
X120250000Y-123815826D01*
X120250000Y-123749999D01*
X120315685Y-123749999D01*
X120315685Y-123750001D01*
X120981834Y-124416150D01*
X121047430Y-124287412D01*
X121115526Y-124077835D01*
X121150000Y-123860181D01*
X121150000Y-123672141D01*
X129600000Y-123672141D01*
X129600000Y-123892504D01*
X129634473Y-124110158D01*
X129702567Y-124319733D01*
X129768164Y-124448472D01*
X130434314Y-123782323D01*
X130434314Y-123782322D01*
X130368489Y-123716497D01*
X130500000Y-123716497D01*
X130500000Y-123848149D01*
X130534075Y-123975316D01*
X130599901Y-124089330D01*
X130692993Y-124182422D01*
X130807007Y-124248248D01*
X130934174Y-124282323D01*
X131065826Y-124282323D01*
X131192993Y-124248248D01*
X131307007Y-124182422D01*
X131400099Y-124089330D01*
X131465925Y-123975316D01*
X131500000Y-123848149D01*
X131500000Y-123782322D01*
X131565685Y-123782322D01*
X131565685Y-123782324D01*
X132231834Y-124448473D01*
X132297430Y-124319735D01*
X132365526Y-124110158D01*
X132400000Y-123892504D01*
X132400000Y-123672141D01*
X132369938Y-123482335D01*
X132365526Y-123454486D01*
X132297431Y-123244912D01*
X132231834Y-123116171D01*
X131565685Y-123782322D01*
X131500000Y-123782322D01*
X131500000Y-123716497D01*
X131465925Y-123589330D01*
X131400099Y-123475316D01*
X131307007Y-123382224D01*
X131192993Y-123316398D01*
X131065826Y-123282323D01*
X130934174Y-123282323D01*
X130807007Y-123316398D01*
X130692993Y-123382224D01*
X130599901Y-123475316D01*
X130534075Y-123589330D01*
X130500000Y-123716497D01*
X130368489Y-123716497D01*
X129768164Y-123116172D01*
X129702568Y-123244909D01*
X129702567Y-123244912D01*
X129634473Y-123454487D01*
X129600000Y-123672141D01*
X121150000Y-123672141D01*
X121150000Y-123639818D01*
X121115526Y-123422164D01*
X121047431Y-123212589D01*
X120981834Y-123083848D01*
X120315685Y-123749999D01*
X120250000Y-123749999D01*
X120250000Y-123684174D01*
X120215925Y-123557007D01*
X120150099Y-123442993D01*
X120057007Y-123349901D01*
X119942993Y-123284075D01*
X119815826Y-123250000D01*
X119684174Y-123250000D01*
X119557007Y-123284075D01*
X119442993Y-123349901D01*
X119349901Y-123442993D01*
X119284075Y-123557007D01*
X119250000Y-123684174D01*
X119118489Y-123684174D01*
X118518164Y-123083849D01*
X118452568Y-123212586D01*
X118452567Y-123212589D01*
X118384473Y-123422164D01*
X118350000Y-123639818D01*
X64028763Y-123639818D01*
X64009577Y-123568216D01*
X63955942Y-123475316D01*
X63930524Y-123431290D01*
X63930518Y-123431282D01*
X63818717Y-123319481D01*
X63818709Y-123319475D01*
X63681790Y-123240426D01*
X63681786Y-123240424D01*
X63681784Y-123240423D01*
X63529057Y-123199500D01*
X63370943Y-123199500D01*
X63218216Y-123240423D01*
X63218209Y-123240426D01*
X63081290Y-123319475D01*
X63081282Y-123319481D01*
X62969481Y-123431282D01*
X62969475Y-123431290D01*
X62890426Y-123568209D01*
X62890423Y-123568216D01*
X62849500Y-123720943D01*
X50500500Y-123720943D01*
X50500500Y-122518164D01*
X119083849Y-122518164D01*
X119750000Y-123184314D01*
X119750001Y-123184314D01*
X120383826Y-122550487D01*
X130333849Y-122550487D01*
X131000000Y-123216637D01*
X131000001Y-123216637D01*
X131216637Y-123000000D01*
X137921491Y-123000000D01*
X138909252Y-123000000D01*
X138887482Y-123037708D01*
X138850000Y-123177591D01*
X138850000Y-123322409D01*
X138887482Y-123462292D01*
X138909252Y-123500000D01*
X137921491Y-123500000D01*
X137935765Y-123590128D01*
X138006417Y-123807570D01*
X138110211Y-124011276D01*
X138244597Y-124196242D01*
X138406257Y-124357902D01*
X138591225Y-124492290D01*
X138655264Y-124524919D01*
X138706061Y-124572893D01*
X138722856Y-124640714D01*
X138700319Y-124706849D01*
X138671856Y-124735721D01*
X138536231Y-124834260D01*
X138536222Y-124834267D01*
X138396767Y-124973722D01*
X138280838Y-125133284D01*
X138191297Y-125309017D01*
X138130353Y-125496586D01*
X138099500Y-125691381D01*
X138099500Y-125888618D01*
X138130353Y-126083413D01*
X138191297Y-126270982D01*
X138250755Y-126387674D01*
X138280838Y-126446715D01*
X138396765Y-126606275D01*
X138536225Y-126745735D01*
X138695785Y-126861662D01*
X138855598Y-126943091D01*
X138871517Y-126951202D01*
X138965301Y-126981674D01*
X139059088Y-127012147D01*
X139149307Y-127026436D01*
X139253882Y-127043000D01*
X139253887Y-127043000D01*
X139546118Y-127043000D01*
X139640552Y-127028042D01*
X139740912Y-127012147D01*
X139928485Y-126951201D01*
X140104215Y-126861662D01*
X140263775Y-126745735D01*
X140403235Y-126606275D01*
X140519162Y-126446715D01*
X140608701Y-126270985D01*
X140660250Y-126112332D01*
X144149500Y-126112332D01*
X144149500Y-126387667D01*
X144149501Y-126387684D01*
X144185438Y-126660655D01*
X144185439Y-126660660D01*
X144185440Y-126660666D01*
X144207294Y-126742227D01*
X144256704Y-126926630D01*
X144362075Y-127181017D01*
X144362080Y-127181028D01*
X144418302Y-127278406D01*
X144499751Y-127419479D01*
X144499753Y-127419482D01*
X144499754Y-127419483D01*
X144667370Y-127637926D01*
X144667376Y-127637933D01*
X144862066Y-127832623D01*
X144862073Y-127832629D01*
X144914380Y-127872765D01*
X145080521Y-128000249D01*
X145233778Y-128088732D01*
X145318971Y-128137919D01*
X145318976Y-128137921D01*
X145318979Y-128137923D01*
X145573368Y-128243295D01*
X145839334Y-128314560D01*
X146112326Y-128350500D01*
X146112333Y-128350500D01*
X146387667Y-128350500D01*
X146387674Y-128350500D01*
X146660666Y-128314560D01*
X146926632Y-128243295D01*
X147181021Y-128137923D01*
X147419479Y-128000249D01*
X147637928Y-127832628D01*
X147832628Y-127637928D01*
X148000249Y-127419479D01*
X148137923Y-127181021D01*
X148243295Y-126926632D01*
X148314560Y-126660666D01*
X148350500Y-126387674D01*
X148350500Y-126112326D01*
X148314560Y-125839334D01*
X148243295Y-125573368D01*
X148137923Y-125318979D01*
X148137921Y-125318976D01*
X148137919Y-125318971D01*
X148070511Y-125202219D01*
X148000249Y-125080521D01*
X147918300Y-124973722D01*
X147832629Y-124862073D01*
X147832623Y-124862066D01*
X147637933Y-124667376D01*
X147637926Y-124667370D01*
X147419483Y-124499754D01*
X147419482Y-124499753D01*
X147419479Y-124499751D01*
X147324407Y-124444861D01*
X147181028Y-124362080D01*
X147181017Y-124362075D01*
X146926630Y-124256704D01*
X146774438Y-124215925D01*
X146660666Y-124185440D01*
X146660660Y-124185439D01*
X146660655Y-124185438D01*
X146387684Y-124149501D01*
X146387679Y-124149500D01*
X146387674Y-124149500D01*
X146112326Y-124149500D01*
X146112320Y-124149500D01*
X146112315Y-124149501D01*
X145839344Y-124185438D01*
X145839337Y-124185439D01*
X145839334Y-124185440D01*
X145799020Y-124196242D01*
X145573369Y-124256704D01*
X145318982Y-124362075D01*
X145318971Y-124362080D01*
X145080516Y-124499754D01*
X144862073Y-124667370D01*
X144862066Y-124667376D01*
X144667376Y-124862066D01*
X144667370Y-124862073D01*
X144499754Y-125080516D01*
X144362080Y-125318971D01*
X144362075Y-125318982D01*
X144256704Y-125573369D01*
X144185441Y-125839331D01*
X144185438Y-125839344D01*
X144149501Y-126112315D01*
X144149500Y-126112332D01*
X140660250Y-126112332D01*
X140669647Y-126083412D01*
X140693680Y-125931675D01*
X140700500Y-125888618D01*
X140700500Y-125691381D01*
X140674501Y-125527235D01*
X140669647Y-125496588D01*
X140638101Y-125399500D01*
X140608702Y-125309017D01*
X140588168Y-125268717D01*
X140519162Y-125133285D01*
X140403235Y-124973725D01*
X140263775Y-124834265D01*
X140128141Y-124735721D01*
X140085477Y-124680392D01*
X140079498Y-124610778D01*
X140112104Y-124548984D01*
X140144735Y-124524918D01*
X140208776Y-124492288D01*
X140393742Y-124357902D01*
X140555402Y-124196242D01*
X140689788Y-124011276D01*
X140793582Y-123807570D01*
X140864234Y-123590128D01*
X140878509Y-123500000D01*
X139890748Y-123500000D01*
X139912518Y-123462292D01*
X139950000Y-123322409D01*
X139950000Y-123177591D01*
X139912518Y-123037708D01*
X139890748Y-123000000D01*
X140878509Y-123000000D01*
X140864234Y-122909871D01*
X140793582Y-122692429D01*
X140689788Y-122488723D01*
X140555402Y-122303757D01*
X140418163Y-122166518D01*
X140384678Y-122105195D01*
X140389662Y-122035503D01*
X140431534Y-121979570D01*
X140461861Y-121964767D01*
X140461458Y-121963853D01*
X140508668Y-121943007D01*
X140572765Y-121914706D01*
X140652206Y-121835265D01*
X140697585Y-121732491D01*
X140700500Y-121707365D01*
X140700499Y-119712636D01*
X140700497Y-119712617D01*
X140697586Y-119687512D01*
X140697585Y-119687510D01*
X140697585Y-119687509D01*
X140652206Y-119584735D01*
X140572765Y-119505294D01*
X140572763Y-119505293D01*
X140469992Y-119459915D01*
X140444865Y-119457000D01*
X138355143Y-119457000D01*
X138355117Y-119457002D01*
X138330012Y-119459913D01*
X138330008Y-119459915D01*
X138227235Y-119505293D01*
X138147794Y-119584734D01*
X138102415Y-119687506D01*
X138102415Y-119687508D01*
X138099500Y-119712631D01*
X138099500Y-121707356D01*
X138099502Y-121707382D01*
X138102413Y-121732487D01*
X138102415Y-121732491D01*
X138147793Y-121835264D01*
X138147794Y-121835265D01*
X138227235Y-121914706D01*
X138297576Y-121945764D01*
X138338542Y-121963853D01*
X138337634Y-121965907D01*
X138386218Y-121995768D01*
X138416514Y-122058728D01*
X138407961Y-122128072D01*
X138381837Y-122166518D01*
X138244594Y-122303761D01*
X138110211Y-122488723D01*
X138006417Y-122692429D01*
X137935765Y-122909871D01*
X137921491Y-123000000D01*
X131216637Y-123000000D01*
X131666149Y-122550487D01*
X131537410Y-122484890D01*
X131327835Y-122416796D01*
X131110181Y-122382323D01*
X130889819Y-122382323D01*
X130672164Y-122416796D01*
X130462589Y-122484890D01*
X130462586Y-122484891D01*
X130333849Y-122550487D01*
X120383826Y-122550487D01*
X120416149Y-122518164D01*
X120287410Y-122452567D01*
X120077835Y-122384473D01*
X119860181Y-122350000D01*
X119639819Y-122350000D01*
X119422164Y-122384473D01*
X119212589Y-122452567D01*
X119212586Y-122452568D01*
X119083849Y-122518164D01*
X50500500Y-122518164D01*
X50500500Y-119156898D01*
X118449500Y-119156898D01*
X118449500Y-120743102D01*
X118453381Y-120775419D01*
X118460122Y-120831561D01*
X118515639Y-120972343D01*
X118607077Y-121092922D01*
X118727656Y-121184360D01*
X118727657Y-121184360D01*
X118727658Y-121184361D01*
X118868436Y-121239877D01*
X118956898Y-121250500D01*
X118956903Y-121250500D01*
X120543097Y-121250500D01*
X120543102Y-121250500D01*
X120631564Y-121239877D01*
X120772342Y-121184361D01*
X120892922Y-121092922D01*
X120984361Y-120972342D01*
X121039877Y-120831564D01*
X121050500Y-120743102D01*
X121050500Y-119189221D01*
X129699500Y-119189221D01*
X129699500Y-120775425D01*
X129705126Y-120822277D01*
X129710122Y-120863884D01*
X129765639Y-121004666D01*
X129857077Y-121125245D01*
X129977656Y-121216683D01*
X129977657Y-121216683D01*
X129977658Y-121216684D01*
X130118436Y-121272200D01*
X130206898Y-121282823D01*
X130206903Y-121282823D01*
X131793097Y-121282823D01*
X131793102Y-121282823D01*
X131881564Y-121272200D01*
X132022342Y-121216684D01*
X132142922Y-121125245D01*
X132234361Y-121004665D01*
X132289877Y-120863887D01*
X132300500Y-120775425D01*
X132300500Y-119189221D01*
X132289877Y-119100759D01*
X132234361Y-118959981D01*
X132204757Y-118920943D01*
X136249500Y-118920943D01*
X136249500Y-119079057D01*
X136279019Y-119189221D01*
X136290423Y-119231783D01*
X136290426Y-119231790D01*
X136369475Y-119368709D01*
X136369479Y-119368714D01*
X136369480Y-119368716D01*
X136481284Y-119480520D01*
X136481286Y-119480521D01*
X136481290Y-119480524D01*
X136524192Y-119505293D01*
X136618216Y-119559577D01*
X136770943Y-119600500D01*
X136770945Y-119600500D01*
X136929055Y-119600500D01*
X136929057Y-119600500D01*
X137081784Y-119559577D01*
X137218716Y-119480520D01*
X137330520Y-119368716D01*
X137409577Y-119231784D01*
X137450500Y-119079057D01*
X137450500Y-118920943D01*
X137409577Y-118768216D01*
X137400214Y-118751999D01*
X137330524Y-118631290D01*
X137330518Y-118631282D01*
X137218717Y-118519481D01*
X137218709Y-118519475D01*
X137081790Y-118440426D01*
X137081786Y-118440424D01*
X137081784Y-118440423D01*
X136929057Y-118399500D01*
X136770943Y-118399500D01*
X136618216Y-118440423D01*
X136618209Y-118440426D01*
X136481290Y-118519475D01*
X136481282Y-118519481D01*
X136369481Y-118631282D01*
X136369475Y-118631290D01*
X136290426Y-118768209D01*
X136290423Y-118768216D01*
X136249500Y-118920943D01*
X132204757Y-118920943D01*
X132142922Y-118839401D01*
X132109708Y-118814214D01*
X132100240Y-118802517D01*
X132092355Y-118783598D01*
X132080172Y-118767111D01*
X132079185Y-118751999D01*
X132073361Y-118738024D01*
X132076956Y-118717844D01*
X132075621Y-118697389D01*
X132082960Y-118684144D01*
X132085616Y-118669238D01*
X132099549Y-118654206D01*
X132109486Y-118636275D01*
X132122822Y-118629099D01*
X132133115Y-118617997D01*
X132152962Y-118612884D01*
X132171017Y-118603172D01*
X132196621Y-118600500D01*
X132329055Y-118600500D01*
X132329057Y-118600500D01*
X132481784Y-118559577D01*
X132618716Y-118480520D01*
X132730520Y-118368716D01*
X132809577Y-118231784D01*
X132850500Y-118079057D01*
X132850500Y-117920943D01*
X132809577Y-117768216D01*
X132769904Y-117699500D01*
X132730524Y-117631290D01*
X132730518Y-117631282D01*
X132618717Y-117519481D01*
X132618709Y-117519475D01*
X132481790Y-117440426D01*
X132481786Y-117440424D01*
X132481784Y-117440423D01*
X132329057Y-117399500D01*
X132170943Y-117399500D01*
X132018216Y-117440423D01*
X132018209Y-117440426D01*
X131881290Y-117519475D01*
X131881282Y-117519481D01*
X131769481Y-117631282D01*
X131769475Y-117631290D01*
X131690426Y-117768209D01*
X131690423Y-117768216D01*
X131649500Y-117920943D01*
X131649500Y-118079056D01*
X131690423Y-118231783D01*
X131690426Y-118231790D01*
X131769475Y-118368709D01*
X131769481Y-118368717D01*
X131870906Y-118470142D01*
X131904391Y-118531465D01*
X131899407Y-118601157D01*
X131857535Y-118657090D01*
X131792071Y-118681507D01*
X131783225Y-118681823D01*
X130206898Y-118681823D01*
X130167853Y-118686511D01*
X130118438Y-118692445D01*
X129977656Y-118747962D01*
X129857077Y-118839400D01*
X129765639Y-118959979D01*
X129710122Y-119100761D01*
X129704188Y-119150176D01*
X129699500Y-119189221D01*
X121050500Y-119189221D01*
X121050500Y-119156898D01*
X121039877Y-119068436D01*
X120984361Y-118927658D01*
X120984360Y-118927657D01*
X120984360Y-118927656D01*
X120892922Y-118807077D01*
X120772343Y-118715639D01*
X120631561Y-118660122D01*
X120585926Y-118654642D01*
X120543102Y-118649500D01*
X118956898Y-118649500D01*
X118917853Y-118654188D01*
X118868438Y-118660122D01*
X118727656Y-118715639D01*
X118607077Y-118807077D01*
X118515639Y-118927656D01*
X118460122Y-119068438D01*
X118454188Y-119117853D01*
X118449500Y-119156898D01*
X50500500Y-119156898D01*
X50500500Y-118470943D01*
X66449500Y-118470943D01*
X66449500Y-118629057D01*
X66490086Y-118780524D01*
X66490423Y-118781783D01*
X66490426Y-118781790D01*
X66569475Y-118918709D01*
X66569479Y-118918714D01*
X66569480Y-118918716D01*
X66681284Y-119030520D01*
X66681286Y-119030521D01*
X66681290Y-119030524D01*
X66802946Y-119100761D01*
X66818216Y-119109577D01*
X66970943Y-119150500D01*
X66970945Y-119150500D01*
X67129055Y-119150500D01*
X67129057Y-119150500D01*
X67281784Y-119109577D01*
X67418716Y-119030520D01*
X67530520Y-118918716D01*
X67609577Y-118781784D01*
X67650500Y-118629057D01*
X67650500Y-118470943D01*
X67609577Y-118318216D01*
X67553417Y-118220943D01*
X72949500Y-118220943D01*
X72949500Y-118379057D01*
X72987127Y-118519481D01*
X72990423Y-118531783D01*
X72990426Y-118531790D01*
X73069475Y-118668709D01*
X73069479Y-118668714D01*
X73069480Y-118668716D01*
X73181284Y-118780520D01*
X73181286Y-118780521D01*
X73181290Y-118780524D01*
X73219384Y-118802517D01*
X73318216Y-118859577D01*
X73470943Y-118900500D01*
X73470945Y-118900500D01*
X73629055Y-118900500D01*
X73629057Y-118900500D01*
X73781784Y-118859577D01*
X73918716Y-118780520D01*
X74030520Y-118668716D01*
X74109577Y-118531784D01*
X74150500Y-118379057D01*
X74150500Y-118220943D01*
X74109577Y-118068216D01*
X74109573Y-118068209D01*
X74030524Y-117931290D01*
X74030518Y-117931282D01*
X73918717Y-117819481D01*
X73918709Y-117819475D01*
X73781790Y-117740426D01*
X73781786Y-117740424D01*
X73781784Y-117740423D01*
X73629057Y-117699500D01*
X73470943Y-117699500D01*
X73318216Y-117740423D01*
X73318209Y-117740426D01*
X73181290Y-117819475D01*
X73181282Y-117819481D01*
X73069481Y-117931282D01*
X73069475Y-117931290D01*
X72990426Y-118068209D01*
X72990423Y-118068216D01*
X72949500Y-118220943D01*
X67553417Y-118220943D01*
X67530520Y-118181284D01*
X67418716Y-118069480D01*
X67418714Y-118069479D01*
X67418709Y-118069475D01*
X67281790Y-117990426D01*
X67281786Y-117990424D01*
X67281784Y-117990423D01*
X67129057Y-117949500D01*
X66970943Y-117949500D01*
X66818216Y-117990423D01*
X66818209Y-117990426D01*
X66681290Y-118069475D01*
X66681282Y-118069481D01*
X66569481Y-118181282D01*
X66569475Y-118181290D01*
X66490426Y-118318209D01*
X66490423Y-118318216D01*
X66449500Y-118470943D01*
X50500500Y-118470943D01*
X50500500Y-115605131D01*
X56739500Y-115605131D01*
X56739500Y-117394856D01*
X56739502Y-117394882D01*
X56742413Y-117419987D01*
X56742415Y-117419991D01*
X56787793Y-117522764D01*
X56787794Y-117522765D01*
X56867235Y-117602206D01*
X56970009Y-117647585D01*
X56995135Y-117650500D01*
X58784864Y-117650499D01*
X58784879Y-117650497D01*
X58784882Y-117650497D01*
X58809987Y-117647586D01*
X58809988Y-117647585D01*
X58809991Y-117647585D01*
X58912765Y-117602206D01*
X58992206Y-117522765D01*
X59037585Y-117419991D01*
X59040500Y-117394865D01*
X59040499Y-116657125D01*
X59060183Y-116590089D01*
X59112987Y-116544334D01*
X59182146Y-116534390D01*
X59245702Y-116563415D01*
X59283476Y-116622193D01*
X59286972Y-116637729D01*
X59307829Y-116769410D01*
X59363787Y-116941636D01*
X59363788Y-116941639D01*
X59419664Y-117051300D01*
X59444733Y-117100500D01*
X59446006Y-117102997D01*
X59552441Y-117249494D01*
X59552445Y-117249499D01*
X59680500Y-117377554D01*
X59680505Y-117377558D01*
X59804565Y-117467692D01*
X59827006Y-117483996D01*
X59903094Y-117522765D01*
X59988360Y-117566211D01*
X59988363Y-117566212D01*
X60074476Y-117594191D01*
X60160591Y-117622171D01*
X60243429Y-117635291D01*
X60339449Y-117650500D01*
X60339454Y-117650500D01*
X60520551Y-117650500D01*
X60607259Y-117636765D01*
X60699409Y-117622171D01*
X60871639Y-117566211D01*
X61032994Y-117483996D01*
X61179501Y-117377553D01*
X61307553Y-117249501D01*
X61413996Y-117102994D01*
X61496211Y-116941639D01*
X61552171Y-116769409D01*
X61566422Y-116679425D01*
X61577527Y-116609321D01*
X61607456Y-116546186D01*
X61666768Y-116509255D01*
X61736630Y-116510253D01*
X61794863Y-116548863D01*
X61822473Y-116609321D01*
X61847829Y-116769410D01*
X61903787Y-116941636D01*
X61903788Y-116941639D01*
X61959664Y-117051300D01*
X61984733Y-117100500D01*
X61986006Y-117102997D01*
X62092441Y-117249494D01*
X62092445Y-117249499D01*
X62220500Y-117377554D01*
X62220505Y-117377558D01*
X62344565Y-117467692D01*
X62367006Y-117483996D01*
X62443094Y-117522765D01*
X62528360Y-117566211D01*
X62528363Y-117566212D01*
X62614476Y-117594191D01*
X62700591Y-117622171D01*
X62783429Y-117635291D01*
X62879449Y-117650500D01*
X62879454Y-117650500D01*
X63060551Y-117650500D01*
X63147259Y-117636765D01*
X63239409Y-117622171D01*
X63411639Y-117566211D01*
X63572994Y-117483996D01*
X63661095Y-117419987D01*
X63719495Y-117377558D01*
X63719497Y-117377555D01*
X63719501Y-117377553D01*
X63847553Y-117249501D01*
X63953996Y-117102994D01*
X64021090Y-116971314D01*
X64069065Y-116920519D01*
X64136886Y-116903724D01*
X64203021Y-116926262D01*
X64246472Y-116980977D01*
X64249506Y-116989292D01*
X64258904Y-117018217D01*
X64355375Y-117207550D01*
X64394728Y-117261716D01*
X65027037Y-116629408D01*
X65044075Y-116692993D01*
X65109901Y-116807007D01*
X65202993Y-116900099D01*
X65317007Y-116965925D01*
X65380590Y-116982962D01*
X64748282Y-117615269D01*
X64748282Y-117615270D01*
X64802449Y-117654624D01*
X64991782Y-117751095D01*
X65193870Y-117816757D01*
X65403754Y-117850000D01*
X65616246Y-117850000D01*
X65826127Y-117816757D01*
X65826130Y-117816757D01*
X66028217Y-117751095D01*
X66217554Y-117654622D01*
X66271716Y-117615270D01*
X66271717Y-117615270D01*
X65639408Y-116982962D01*
X65702993Y-116965925D01*
X65817007Y-116900099D01*
X65910099Y-116807007D01*
X65975925Y-116692993D01*
X65992962Y-116629408D01*
X66625270Y-117261717D01*
X66625270Y-117261716D01*
X66664622Y-117207554D01*
X66761095Y-117018217D01*
X66826757Y-116816130D01*
X66826757Y-116816127D01*
X66860000Y-116606246D01*
X66860000Y-116477525D01*
X80549500Y-116477525D01*
X80549500Y-116622475D01*
X80587016Y-116762485D01*
X80587017Y-116762488D01*
X80659488Y-116888011D01*
X80659490Y-116888013D01*
X80659491Y-116888015D01*
X80761985Y-116990509D01*
X80761986Y-116990510D01*
X80761988Y-116990511D01*
X80887511Y-117062982D01*
X80887512Y-117062982D01*
X80887515Y-117062984D01*
X81027525Y-117100500D01*
X81027528Y-117100500D01*
X81172472Y-117100500D01*
X81172475Y-117100500D01*
X81312485Y-117062984D01*
X81438015Y-116990509D01*
X81540509Y-116888015D01*
X81612984Y-116762485D01*
X81650500Y-116622475D01*
X81650500Y-116477525D01*
X81612984Y-116337515D01*
X81596853Y-116309576D01*
X81540511Y-116211988D01*
X81540506Y-116211982D01*
X81438017Y-116109493D01*
X81438011Y-116109488D01*
X81312488Y-116037017D01*
X81312489Y-116037017D01*
X81301006Y-116033940D01*
X81172475Y-115999500D01*
X81027525Y-115999500D01*
X80898993Y-116033940D01*
X80887511Y-116037017D01*
X80761988Y-116109488D01*
X80761982Y-116109493D01*
X80659493Y-116211982D01*
X80659488Y-116211988D01*
X80587017Y-116337511D01*
X80587016Y-116337515D01*
X80549500Y-116477525D01*
X66860000Y-116477525D01*
X66860000Y-116393753D01*
X66826757Y-116183872D01*
X66826757Y-116183869D01*
X66761095Y-115981782D01*
X66664624Y-115792449D01*
X66625270Y-115738282D01*
X66625269Y-115738282D01*
X65992962Y-116370590D01*
X65975925Y-116307007D01*
X65910099Y-116192993D01*
X65817007Y-116099901D01*
X65702993Y-116034075D01*
X65639409Y-116017037D01*
X65985502Y-115670943D01*
X67449500Y-115670943D01*
X67449500Y-115829057D01*
X67490423Y-115981782D01*
X67490423Y-115981783D01*
X67490426Y-115981790D01*
X67569475Y-116118709D01*
X67569479Y-116118714D01*
X67569480Y-116118716D01*
X67681284Y-116230520D01*
X67681286Y-116230521D01*
X67681290Y-116230524D01*
X67818209Y-116309573D01*
X67818216Y-116309577D01*
X67970943Y-116350500D01*
X67970945Y-116350500D01*
X68129055Y-116350500D01*
X68129057Y-116350500D01*
X68281784Y-116309577D01*
X68418716Y-116230520D01*
X68530520Y-116118716D01*
X68609577Y-115981784D01*
X68650500Y-115829057D01*
X68650500Y-115670943D01*
X68609577Y-115518216D01*
X68608301Y-115516006D01*
X68530524Y-115381290D01*
X68530518Y-115381282D01*
X68418717Y-115269481D01*
X68418709Y-115269475D01*
X68281790Y-115190426D01*
X68281786Y-115190424D01*
X68281784Y-115190423D01*
X68129057Y-115149500D01*
X67970943Y-115149500D01*
X67818216Y-115190423D01*
X67818209Y-115190426D01*
X67681290Y-115269475D01*
X67681282Y-115269481D01*
X67569481Y-115381282D01*
X67569475Y-115381290D01*
X67490426Y-115518209D01*
X67490423Y-115518216D01*
X67449500Y-115670943D01*
X65985502Y-115670943D01*
X66271716Y-115384728D01*
X66217550Y-115345375D01*
X66028217Y-115248904D01*
X65826129Y-115183242D01*
X65616246Y-115150000D01*
X65403754Y-115150000D01*
X65193872Y-115183242D01*
X65193869Y-115183242D01*
X64991782Y-115248904D01*
X64802439Y-115345380D01*
X64748282Y-115384727D01*
X64748282Y-115384728D01*
X65380591Y-116017037D01*
X65317007Y-116034075D01*
X65202993Y-116099901D01*
X65109901Y-116192993D01*
X65044075Y-116307007D01*
X65027037Y-116370591D01*
X64394728Y-115738282D01*
X64394727Y-115738282D01*
X64355380Y-115792439D01*
X64258905Y-115981781D01*
X64249506Y-116010708D01*
X64210068Y-116068383D01*
X64145709Y-116095581D01*
X64076862Y-116083666D01*
X64025387Y-116036421D01*
X64021090Y-116028684D01*
X63997191Y-115981781D01*
X63953996Y-115897006D01*
X63940396Y-115878287D01*
X63847558Y-115750505D01*
X63847554Y-115750500D01*
X63719499Y-115622445D01*
X63719494Y-115622441D01*
X63595432Y-115532305D01*
X63572996Y-115516005D01*
X63411639Y-115433788D01*
X63411636Y-115433787D01*
X63239410Y-115377829D01*
X63060551Y-115349500D01*
X63060546Y-115349500D01*
X62879454Y-115349500D01*
X62879449Y-115349500D01*
X62700589Y-115377829D01*
X62528363Y-115433787D01*
X62528360Y-115433788D01*
X62367002Y-115516006D01*
X62220505Y-115622441D01*
X62220500Y-115622445D01*
X62092445Y-115750500D01*
X62092441Y-115750505D01*
X61986006Y-115897002D01*
X61903788Y-116058360D01*
X61903787Y-116058363D01*
X61847829Y-116230589D01*
X61822473Y-116390678D01*
X61792544Y-116453813D01*
X61733232Y-116490744D01*
X61663369Y-116489746D01*
X61605137Y-116451136D01*
X61577527Y-116390678D01*
X61563740Y-116303639D01*
X61552171Y-116230591D01*
X61509708Y-116099901D01*
X61496212Y-116058363D01*
X61496211Y-116058360D01*
X61457191Y-115981781D01*
X61413996Y-115897006D01*
X61400396Y-115878287D01*
X61307558Y-115750505D01*
X61307554Y-115750500D01*
X61179499Y-115622445D01*
X61179494Y-115622441D01*
X61032997Y-115516006D01*
X61032996Y-115516005D01*
X61032994Y-115516004D01*
X60956906Y-115477235D01*
X60871639Y-115433788D01*
X60871636Y-115433787D01*
X60699410Y-115377829D01*
X60520551Y-115349500D01*
X60520546Y-115349500D01*
X60339454Y-115349500D01*
X60339449Y-115349500D01*
X60160589Y-115377829D01*
X59988363Y-115433787D01*
X59988360Y-115433788D01*
X59827002Y-115516006D01*
X59680505Y-115622441D01*
X59680500Y-115622445D01*
X59552445Y-115750500D01*
X59552441Y-115750505D01*
X59446006Y-115897002D01*
X59363788Y-116058360D01*
X59363787Y-116058363D01*
X59307829Y-116230589D01*
X59286972Y-116362271D01*
X59257042Y-116425405D01*
X59197731Y-116462336D01*
X59127868Y-116461338D01*
X59069636Y-116422728D01*
X59041522Y-116358764D01*
X59040499Y-116342872D01*
X59040499Y-115605143D01*
X59040499Y-115605136D01*
X59038090Y-115584360D01*
X59037586Y-115580012D01*
X59037585Y-115580010D01*
X59037585Y-115580009D01*
X58992206Y-115477235D01*
X58912765Y-115397794D01*
X58912763Y-115397793D01*
X58809992Y-115352415D01*
X58784865Y-115349500D01*
X56995143Y-115349500D01*
X56995117Y-115349502D01*
X56970012Y-115352413D01*
X56970008Y-115352415D01*
X56867235Y-115397793D01*
X56787794Y-115477234D01*
X56742415Y-115580006D01*
X56742415Y-115580008D01*
X56739500Y-115605131D01*
X50500500Y-115605131D01*
X50500500Y-114420943D01*
X72899500Y-114420943D01*
X72899500Y-114579056D01*
X72940423Y-114731783D01*
X72940426Y-114731790D01*
X73019475Y-114868709D01*
X73019479Y-114868714D01*
X73019480Y-114868716D01*
X73131284Y-114980520D01*
X73131286Y-114980521D01*
X73131290Y-114980524D01*
X73268209Y-115059573D01*
X73268216Y-115059577D01*
X73420943Y-115100500D01*
X73420945Y-115100500D01*
X73579055Y-115100500D01*
X73579057Y-115100500D01*
X73731784Y-115059577D01*
X73868716Y-114980520D01*
X73980520Y-114868716D01*
X74059577Y-114731784D01*
X74100500Y-114579057D01*
X74100500Y-114420943D01*
X74059577Y-114268216D01*
X74059573Y-114268209D01*
X73980524Y-114131290D01*
X73980518Y-114131282D01*
X73868717Y-114019481D01*
X73868709Y-114019475D01*
X73731790Y-113940426D01*
X73731786Y-113940424D01*
X73731784Y-113940423D01*
X73579057Y-113899500D01*
X73420943Y-113899500D01*
X73268216Y-113940423D01*
X73268209Y-113940426D01*
X73131290Y-114019475D01*
X73131282Y-114019481D01*
X73019481Y-114131282D01*
X73019475Y-114131290D01*
X72940426Y-114268209D01*
X72940423Y-114268216D01*
X72899500Y-114420943D01*
X50500500Y-114420943D01*
X50500500Y-112920943D01*
X61399500Y-112920943D01*
X61399500Y-113079056D01*
X61440423Y-113231783D01*
X61440426Y-113231790D01*
X61519475Y-113368709D01*
X61519479Y-113368714D01*
X61519480Y-113368716D01*
X61631284Y-113480520D01*
X61631286Y-113480521D01*
X61631290Y-113480524D01*
X61763576Y-113556898D01*
X61768216Y-113559577D01*
X61920943Y-113600500D01*
X61920945Y-113600500D01*
X62079055Y-113600500D01*
X62079057Y-113600500D01*
X62231784Y-113559577D01*
X62236424Y-113556898D01*
X136249500Y-113556898D01*
X136249500Y-115143102D01*
X136254320Y-115183242D01*
X136260122Y-115231561D01*
X136315639Y-115372343D01*
X136407077Y-115492922D01*
X136527656Y-115584360D01*
X136527657Y-115584360D01*
X136527658Y-115584361D01*
X136668436Y-115639877D01*
X136756898Y-115650500D01*
X136756903Y-115650500D01*
X138343097Y-115650500D01*
X138343102Y-115650500D01*
X138431564Y-115639877D01*
X138572342Y-115584361D01*
X138692922Y-115492922D01*
X138784361Y-115372342D01*
X138839877Y-115231564D01*
X138850500Y-115143102D01*
X138850500Y-113556898D01*
X138839877Y-113468436D01*
X138784361Y-113327658D01*
X138784360Y-113327657D01*
X138784360Y-113327656D01*
X138692922Y-113207077D01*
X138572343Y-113115639D01*
X138431561Y-113060122D01*
X138385926Y-113054642D01*
X138343102Y-113049500D01*
X136756898Y-113049500D01*
X136717853Y-113054188D01*
X136668438Y-113060122D01*
X136527656Y-113115639D01*
X136407077Y-113207077D01*
X136315639Y-113327656D01*
X136260122Y-113468438D01*
X136254188Y-113517853D01*
X136249500Y-113556898D01*
X62236424Y-113556898D01*
X62368716Y-113480520D01*
X62480520Y-113368716D01*
X62559577Y-113231784D01*
X62600500Y-113079057D01*
X62600500Y-112920943D01*
X62559577Y-112768216D01*
X62520193Y-112700000D01*
X62480524Y-112631290D01*
X62480518Y-112631282D01*
X62368717Y-112519481D01*
X62368709Y-112519475D01*
X62231790Y-112440426D01*
X62231786Y-112440424D01*
X62231784Y-112440423D01*
X62079057Y-112399500D01*
X61920943Y-112399500D01*
X61768216Y-112440423D01*
X61768209Y-112440426D01*
X61631290Y-112519475D01*
X61631282Y-112519481D01*
X61519481Y-112631282D01*
X61519475Y-112631290D01*
X61440426Y-112768209D01*
X61440423Y-112768216D01*
X61399500Y-112920943D01*
X50500500Y-112920943D01*
X50500500Y-111852193D01*
X75680750Y-111852193D01*
X75680750Y-112010307D01*
X75699843Y-112081561D01*
X75721673Y-112163033D01*
X75721676Y-112163040D01*
X75800725Y-112299959D01*
X75800729Y-112299964D01*
X75800730Y-112299966D01*
X75912534Y-112411770D01*
X75912536Y-112411771D01*
X75912540Y-112411774D01*
X76049459Y-112490823D01*
X76049466Y-112490827D01*
X76202193Y-112531750D01*
X76202195Y-112531750D01*
X76360305Y-112531750D01*
X76360307Y-112531750D01*
X76513034Y-112490827D01*
X76649966Y-112411770D01*
X76734211Y-112327525D01*
X116299500Y-112327525D01*
X116299500Y-112472475D01*
X116315260Y-112531290D01*
X116337017Y-112612488D01*
X116409488Y-112738011D01*
X116409490Y-112738013D01*
X116409491Y-112738015D01*
X116511985Y-112840509D01*
X116511986Y-112840510D01*
X116511988Y-112840511D01*
X116637511Y-112912982D01*
X116637512Y-112912982D01*
X116637515Y-112912984D01*
X116777525Y-112950500D01*
X116777528Y-112950500D01*
X116922472Y-112950500D01*
X116922475Y-112950500D01*
X117062485Y-112912984D01*
X117188015Y-112840509D01*
X117207581Y-112820943D01*
X131449500Y-112820943D01*
X131449500Y-112979057D01*
X131476295Y-113079055D01*
X131490423Y-113131783D01*
X131490426Y-113131790D01*
X131569475Y-113268709D01*
X131569479Y-113268714D01*
X131569480Y-113268716D01*
X131681284Y-113380520D01*
X131681286Y-113380521D01*
X131681290Y-113380524D01*
X131794360Y-113445804D01*
X131818216Y-113459577D01*
X131970943Y-113500500D01*
X131970945Y-113500500D01*
X132129055Y-113500500D01*
X132129057Y-113500500D01*
X132281784Y-113459577D01*
X132418716Y-113380520D01*
X132530520Y-113268716D01*
X132609577Y-113131784D01*
X132650500Y-112979057D01*
X132650500Y-112820943D01*
X132609577Y-112668216D01*
X132588258Y-112631290D01*
X132530524Y-112531290D01*
X132530518Y-112531282D01*
X132418717Y-112419481D01*
X132418709Y-112419475D01*
X132281790Y-112340426D01*
X132281786Y-112340424D01*
X132281784Y-112340423D01*
X132129057Y-112299500D01*
X131970943Y-112299500D01*
X131818216Y-112340423D01*
X131818209Y-112340426D01*
X131681290Y-112419475D01*
X131681282Y-112419481D01*
X131569481Y-112531282D01*
X131569475Y-112531290D01*
X131490426Y-112668209D01*
X131490423Y-112668216D01*
X131449500Y-112820943D01*
X117207581Y-112820943D01*
X117290509Y-112738015D01*
X117362984Y-112612485D01*
X117400500Y-112472475D01*
X117400500Y-112327525D01*
X117362984Y-112187515D01*
X117348853Y-112163040D01*
X117290511Y-112061988D01*
X117290506Y-112061982D01*
X117188017Y-111959493D01*
X117188011Y-111959488D01*
X117062488Y-111887017D01*
X117062489Y-111887017D01*
X117051006Y-111883940D01*
X116922475Y-111849500D01*
X116777525Y-111849500D01*
X116648993Y-111883940D01*
X116637511Y-111887017D01*
X116511988Y-111959488D01*
X116511982Y-111959493D01*
X116409493Y-112061982D01*
X116409488Y-112061988D01*
X116337017Y-112187511D01*
X116337016Y-112187515D01*
X116299500Y-112327525D01*
X76734211Y-112327525D01*
X76761770Y-112299966D01*
X76770322Y-112285151D01*
X76786347Y-112257398D01*
X76806586Y-112222342D01*
X76840827Y-112163034D01*
X76881750Y-112010307D01*
X76881750Y-111852193D01*
X76840827Y-111699466D01*
X76809731Y-111645606D01*
X76761774Y-111562540D01*
X76761768Y-111562532D01*
X76649967Y-111450731D01*
X76649966Y-111450730D01*
X76513034Y-111371673D01*
X76360307Y-111330750D01*
X76202193Y-111330750D01*
X76049466Y-111371673D01*
X76049459Y-111371676D01*
X75912540Y-111450725D01*
X75912532Y-111450731D01*
X75800731Y-111562532D01*
X75800725Y-111562540D01*
X75721676Y-111699459D01*
X75721673Y-111699466D01*
X75680750Y-111852193D01*
X50500500Y-111852193D01*
X50500500Y-110421153D01*
X53194500Y-110421153D01*
X53194500Y-110578846D01*
X53225261Y-110733489D01*
X53225264Y-110733501D01*
X53285602Y-110879172D01*
X53285609Y-110879185D01*
X53373210Y-111010288D01*
X53373213Y-111010292D01*
X53484707Y-111121786D01*
X53484711Y-111121789D01*
X53615814Y-111209390D01*
X53615827Y-111209397D01*
X53703245Y-111245606D01*
X53761503Y-111269737D01*
X53901991Y-111297682D01*
X53916153Y-111300499D01*
X53916156Y-111300500D01*
X53916158Y-111300500D01*
X54073844Y-111300500D01*
X54073845Y-111300499D01*
X54228497Y-111269737D01*
X54374179Y-111209394D01*
X54505289Y-111121789D01*
X54616789Y-111010289D01*
X54704394Y-110879179D01*
X54707806Y-110870943D01*
X54734331Y-110806903D01*
X54764737Y-110733497D01*
X54795500Y-110578842D01*
X54795500Y-110421158D01*
X54795500Y-110421155D01*
X54795499Y-110421153D01*
X54789386Y-110390423D01*
X54764737Y-110266503D01*
X54743913Y-110216228D01*
X55344500Y-110216228D01*
X55344500Y-110883771D01*
X55377182Y-111048074D01*
X55377184Y-111048082D01*
X55441295Y-111202860D01*
X55534373Y-111342162D01*
X55652837Y-111460626D01*
X55726098Y-111509577D01*
X55792137Y-111553703D01*
X55946918Y-111617816D01*
X56086629Y-111645606D01*
X56111228Y-111650499D01*
X56111232Y-111650500D01*
X56111233Y-111650500D01*
X56278768Y-111650500D01*
X56278769Y-111650499D01*
X56443082Y-111617816D01*
X56597863Y-111553703D01*
X56737162Y-111460626D01*
X56855626Y-111342162D01*
X56948703Y-111202863D01*
X57012816Y-111048082D01*
X57045500Y-110883767D01*
X57045500Y-110870943D01*
X69549500Y-110870943D01*
X69549500Y-111029057D01*
X69574348Y-111121789D01*
X69590423Y-111181783D01*
X69590426Y-111181790D01*
X69669475Y-111318709D01*
X69669479Y-111318714D01*
X69669480Y-111318716D01*
X69781284Y-111430520D01*
X69781286Y-111430521D01*
X69781290Y-111430524D01*
X69905641Y-111502317D01*
X69918216Y-111509577D01*
X70070943Y-111550500D01*
X70070945Y-111550500D01*
X70229055Y-111550500D01*
X70229057Y-111550500D01*
X70381784Y-111509577D01*
X70518716Y-111430520D01*
X70630520Y-111318716D01*
X70642664Y-111297682D01*
X126855112Y-111297682D01*
X126855112Y-111502317D01*
X126887121Y-111704417D01*
X126950356Y-111899031D01*
X127043253Y-112081350D01*
X127043259Y-112081359D01*
X127075635Y-112125921D01*
X127075636Y-112125922D01*
X127755112Y-111446446D01*
X127755112Y-111452661D01*
X127782371Y-111554394D01*
X127835032Y-111645606D01*
X127909506Y-111720080D01*
X128000718Y-111772741D01*
X128102451Y-111800000D01*
X128108665Y-111800000D01*
X127429188Y-112479474D01*
X127473762Y-112511859D01*
X127656080Y-112604755D01*
X127850694Y-112667990D01*
X128052795Y-112700000D01*
X128257429Y-112700000D01*
X128318400Y-112690343D01*
X128459529Y-112667990D01*
X128654143Y-112604755D01*
X128836461Y-112511859D01*
X128881033Y-112479474D01*
X128201559Y-111800000D01*
X128207773Y-111800000D01*
X128309506Y-111772741D01*
X128400718Y-111720080D01*
X128475192Y-111645606D01*
X128527853Y-111554394D01*
X128555112Y-111452661D01*
X128555112Y-111446446D01*
X129018324Y-111909658D01*
X129051809Y-111970981D01*
X129054420Y-111989914D01*
X129054609Y-111993078D01*
X129065234Y-112081561D01*
X129120751Y-112222343D01*
X129212189Y-112342922D01*
X129332768Y-112434360D01*
X129332769Y-112434360D01*
X129332770Y-112434361D01*
X129473548Y-112489877D01*
X129562010Y-112500500D01*
X129562015Y-112500500D01*
X130748209Y-112500500D01*
X130748214Y-112500500D01*
X130836676Y-112489877D01*
X130977454Y-112434361D01*
X131098034Y-112342922D01*
X131189473Y-112222342D01*
X131244989Y-112081564D01*
X131255612Y-111993102D01*
X131255612Y-110806898D01*
X131244989Y-110718436D01*
X131189473Y-110577658D01*
X131189472Y-110577657D01*
X131189472Y-110577656D01*
X131132100Y-110502000D01*
X131098034Y-110457077D01*
X131064895Y-110431947D01*
X136050000Y-110431947D01*
X136050000Y-110668052D01*
X136086934Y-110901247D01*
X136159897Y-111125802D01*
X136267087Y-111336174D01*
X136327338Y-111419104D01*
X136327340Y-111419105D01*
X137067037Y-110679408D01*
X137084075Y-110742993D01*
X137149901Y-110857007D01*
X137242993Y-110950099D01*
X137357007Y-111015925D01*
X137420590Y-111032962D01*
X136680893Y-111772658D01*
X136763828Y-111832914D01*
X136974197Y-111940102D01*
X137198752Y-112013065D01*
X137198751Y-112013065D01*
X137431948Y-112050000D01*
X137668052Y-112050000D01*
X137901247Y-112013065D01*
X138125802Y-111940102D01*
X138336163Y-111832918D01*
X138336169Y-111832914D01*
X138419104Y-111772658D01*
X138419105Y-111772658D01*
X137679408Y-111032962D01*
X137742993Y-111015925D01*
X137857007Y-110950099D01*
X137950099Y-110857007D01*
X138015925Y-110742993D01*
X138032962Y-110679409D01*
X138772658Y-111419105D01*
X138772658Y-111419104D01*
X138832914Y-111336169D01*
X138832918Y-111336163D01*
X138940102Y-111125802D01*
X139013065Y-110901247D01*
X139050000Y-110668052D01*
X139050000Y-110431947D01*
X139013065Y-110198752D01*
X138940102Y-109974197D01*
X138832914Y-109763828D01*
X138772658Y-109680894D01*
X138772658Y-109680893D01*
X138032962Y-110420590D01*
X138015925Y-110357007D01*
X137950099Y-110242993D01*
X137857007Y-110149901D01*
X137742993Y-110084075D01*
X137679409Y-110067037D01*
X138419105Y-109327340D01*
X138419104Y-109327338D01*
X138336174Y-109267087D01*
X138125802Y-109159897D01*
X137901247Y-109086934D01*
X137901248Y-109086934D01*
X137668052Y-109050000D01*
X137431948Y-109050000D01*
X137198752Y-109086934D01*
X136974197Y-109159897D01*
X136763830Y-109267084D01*
X136680894Y-109327340D01*
X137420591Y-110067037D01*
X137357007Y-110084075D01*
X137242993Y-110149901D01*
X137149901Y-110242993D01*
X137084075Y-110357007D01*
X137067037Y-110420591D01*
X136327340Y-109680894D01*
X136267084Y-109763830D01*
X136159897Y-109974197D01*
X136086934Y-110198752D01*
X136050000Y-110431947D01*
X131064895Y-110431947D01*
X130977455Y-110365639D01*
X130836673Y-110310122D01*
X130791038Y-110304642D01*
X130748214Y-110299500D01*
X129562010Y-110299500D01*
X129522965Y-110304188D01*
X129473550Y-110310122D01*
X129332768Y-110365639D01*
X129212189Y-110457077D01*
X129120751Y-110577656D01*
X129065234Y-110718438D01*
X129054609Y-110806920D01*
X129054420Y-110810086D01*
X129030756Y-110875826D01*
X129018324Y-110890340D01*
X128555112Y-111353552D01*
X128555112Y-111347339D01*
X128527853Y-111245606D01*
X128475192Y-111154394D01*
X128400718Y-111079920D01*
X128309506Y-111027259D01*
X128207773Y-111000000D01*
X128201558Y-111000000D01*
X128881034Y-110320524D01*
X128881033Y-110320523D01*
X128836471Y-110288147D01*
X128836462Y-110288141D01*
X128654143Y-110195244D01*
X128459529Y-110132009D01*
X128257429Y-110100000D01*
X128052795Y-110100000D01*
X127850694Y-110132009D01*
X127656080Y-110195244D01*
X127473756Y-110288143D01*
X127429189Y-110320523D01*
X127429189Y-110320524D01*
X128108666Y-111000000D01*
X128102451Y-111000000D01*
X128000718Y-111027259D01*
X127909506Y-111079920D01*
X127835032Y-111154394D01*
X127782371Y-111245606D01*
X127755112Y-111347339D01*
X127755112Y-111353553D01*
X127075636Y-110674077D01*
X127075635Y-110674077D01*
X127043255Y-110718644D01*
X126950356Y-110900968D01*
X126887121Y-111095582D01*
X126855112Y-111297682D01*
X70642664Y-111297682D01*
X70709577Y-111181784D01*
X70750500Y-111029057D01*
X70750500Y-110870943D01*
X70709577Y-110718216D01*
X70650463Y-110615826D01*
X70630524Y-110581290D01*
X70630518Y-110581282D01*
X70518718Y-110469482D01*
X70518717Y-110469481D01*
X70518716Y-110469480D01*
X70518712Y-110469477D01*
X70518707Y-110469474D01*
X70381790Y-110390426D01*
X70381786Y-110390424D01*
X70381784Y-110390423D01*
X70229057Y-110349500D01*
X70070943Y-110349500D01*
X69918216Y-110390423D01*
X69918209Y-110390426D01*
X69781290Y-110469475D01*
X69781282Y-110469481D01*
X69669481Y-110581282D01*
X69669475Y-110581290D01*
X69590426Y-110718209D01*
X69590423Y-110718216D01*
X69549500Y-110870943D01*
X57045500Y-110870943D01*
X57045500Y-110216233D01*
X57012816Y-110051918D01*
X56948703Y-109897137D01*
X56855626Y-109757838D01*
X56855625Y-109757837D01*
X56855624Y-109757835D01*
X56737162Y-109639373D01*
X56597860Y-109546295D01*
X56443082Y-109482184D01*
X56443074Y-109482182D01*
X56278771Y-109449500D01*
X56278767Y-109449500D01*
X56111233Y-109449500D01*
X56111228Y-109449500D01*
X55946925Y-109482182D01*
X55946917Y-109482184D01*
X55792139Y-109546295D01*
X55652837Y-109639373D01*
X55534373Y-109757837D01*
X55441295Y-109897139D01*
X55377184Y-110051917D01*
X55377182Y-110051925D01*
X55344500Y-110216228D01*
X54743913Y-110216228D01*
X54735221Y-110195244D01*
X54704397Y-110120827D01*
X54704390Y-110120814D01*
X54616789Y-109989711D01*
X54616786Y-109989707D01*
X54505292Y-109878213D01*
X54505288Y-109878210D01*
X54374185Y-109790609D01*
X54374172Y-109790602D01*
X54228501Y-109730264D01*
X54228489Y-109730261D01*
X54073845Y-109699500D01*
X54073842Y-109699500D01*
X53916158Y-109699500D01*
X53916155Y-109699500D01*
X53761510Y-109730261D01*
X53761498Y-109730264D01*
X53615827Y-109790602D01*
X53615814Y-109790609D01*
X53484711Y-109878210D01*
X53484707Y-109878213D01*
X53373213Y-109989707D01*
X53373210Y-109989711D01*
X53285609Y-110120814D01*
X53285602Y-110120827D01*
X53225264Y-110266498D01*
X53225261Y-110266510D01*
X53194500Y-110421153D01*
X50500500Y-110421153D01*
X50500500Y-108508753D01*
X87450000Y-108508753D01*
X87450000Y-108721246D01*
X87483242Y-108931127D01*
X87483242Y-108931130D01*
X87548904Y-109133217D01*
X87645375Y-109322550D01*
X87684728Y-109376716D01*
X88317037Y-108744408D01*
X88334075Y-108807993D01*
X88399901Y-108922007D01*
X88492993Y-109015099D01*
X88607007Y-109080925D01*
X88670590Y-109097962D01*
X88038282Y-109730269D01*
X88038282Y-109730270D01*
X88092449Y-109769624D01*
X88281782Y-109866095D01*
X88483870Y-109931757D01*
X88693754Y-109965000D01*
X88906246Y-109965000D01*
X89116127Y-109931757D01*
X89116130Y-109931757D01*
X89318217Y-109866095D01*
X89507554Y-109769622D01*
X89561716Y-109730270D01*
X89561717Y-109730270D01*
X88929408Y-109097962D01*
X88992993Y-109080925D01*
X89107007Y-109015099D01*
X89200099Y-108922007D01*
X89265925Y-108807993D01*
X89282962Y-108744409D01*
X89915270Y-109376717D01*
X89915270Y-109376716D01*
X89954622Y-109322554D01*
X90051095Y-109133217D01*
X90116757Y-108931130D01*
X90116757Y-108931127D01*
X90150000Y-108721246D01*
X90150000Y-108508753D01*
X90116757Y-108298872D01*
X90116757Y-108298869D01*
X90051095Y-108096782D01*
X89954624Y-107907449D01*
X89915270Y-107853282D01*
X89915269Y-107853282D01*
X89282962Y-108485590D01*
X89265925Y-108422007D01*
X89200099Y-108307993D01*
X89107007Y-108214901D01*
X88992993Y-108149075D01*
X88929409Y-108132037D01*
X89561716Y-107499728D01*
X89553716Y-107493916D01*
X89492403Y-107451387D01*
X89475530Y-107430468D01*
X89455988Y-107412013D01*
X89453924Y-107403682D01*
X89449085Y-107397682D01*
X112800000Y-107397682D01*
X112800000Y-107602317D01*
X112832009Y-107804417D01*
X112895244Y-107999031D01*
X112988141Y-108181350D01*
X112988147Y-108181359D01*
X113020523Y-108225921D01*
X113020524Y-108225922D01*
X113700000Y-107546446D01*
X113700000Y-107552661D01*
X113727259Y-107654394D01*
X113779920Y-107745606D01*
X113854394Y-107820080D01*
X113945606Y-107872741D01*
X114047339Y-107900000D01*
X114053553Y-107900000D01*
X113374076Y-108579474D01*
X113418650Y-108611859D01*
X113600968Y-108704755D01*
X113795582Y-108767990D01*
X113997683Y-108800000D01*
X114202317Y-108800000D01*
X114404417Y-108767990D01*
X114599031Y-108704755D01*
X114781349Y-108611859D01*
X114825921Y-108579474D01*
X114146447Y-107900000D01*
X114152661Y-107900000D01*
X114254394Y-107872741D01*
X114345606Y-107820080D01*
X114420080Y-107745606D01*
X114472741Y-107654394D01*
X114500000Y-107552661D01*
X114500000Y-107546446D01*
X114963212Y-108009658D01*
X114996697Y-108070981D01*
X114999308Y-108089914D01*
X114999497Y-108093078D01*
X115010122Y-108181561D01*
X115010122Y-108181563D01*
X115010123Y-108181564D01*
X115027615Y-108225921D01*
X115065639Y-108322343D01*
X115157077Y-108442922D01*
X115277656Y-108534360D01*
X115277657Y-108534360D01*
X115277658Y-108534361D01*
X115418436Y-108589877D01*
X115506898Y-108600500D01*
X115506903Y-108600500D01*
X116693097Y-108600500D01*
X116693102Y-108600500D01*
X116781564Y-108589877D01*
X116846189Y-108564391D01*
X116880010Y-108551055D01*
X116949596Y-108544773D01*
X117011533Y-108577110D01*
X117046154Y-108637798D01*
X117049500Y-108666409D01*
X117049500Y-108764069D01*
X117049500Y-108764071D01*
X117049499Y-108764071D01*
X117074497Y-108889738D01*
X117074499Y-108889744D01*
X117123533Y-109008124D01*
X117123538Y-109008133D01*
X117194723Y-109114668D01*
X117194726Y-109114672D01*
X117285327Y-109205273D01*
X117285331Y-109205276D01*
X117391866Y-109276461D01*
X117391875Y-109276466D01*
X117418692Y-109287574D01*
X117510256Y-109325501D01*
X117510260Y-109325501D01*
X117510261Y-109325502D01*
X117635928Y-109350500D01*
X117635931Y-109350500D01*
X117764071Y-109350500D01*
X117848615Y-109333682D01*
X117889744Y-109325501D01*
X117977549Y-109289130D01*
X118047016Y-109281662D01*
X118072447Y-109289129D01*
X118160256Y-109325501D01*
X118160260Y-109325501D01*
X118160261Y-109325502D01*
X118285928Y-109350500D01*
X118285931Y-109350500D01*
X118414071Y-109350500D01*
X118498615Y-109333682D01*
X118539744Y-109325501D01*
X118658127Y-109276465D01*
X118764669Y-109205276D01*
X118792420Y-109177525D01*
X120699500Y-109177525D01*
X120699500Y-109322475D01*
X120733537Y-109449500D01*
X120737017Y-109462488D01*
X120809488Y-109588011D01*
X120809490Y-109588013D01*
X120809491Y-109588015D01*
X120911985Y-109690509D01*
X120911986Y-109690510D01*
X120911988Y-109690511D01*
X121037511Y-109762982D01*
X121037512Y-109762982D01*
X121037515Y-109762984D01*
X121177525Y-109800500D01*
X121177528Y-109800500D01*
X121322472Y-109800500D01*
X121322475Y-109800500D01*
X121462485Y-109762984D01*
X121588015Y-109690509D01*
X121690509Y-109588015D01*
X121762984Y-109462485D01*
X121800500Y-109322475D01*
X121800500Y-109177525D01*
X121762984Y-109037515D01*
X121746020Y-109008133D01*
X121690511Y-108911988D01*
X121690506Y-108911982D01*
X121588017Y-108809493D01*
X121588011Y-108809488D01*
X121462488Y-108737017D01*
X121462489Y-108737017D01*
X121451006Y-108733940D01*
X121322475Y-108699500D01*
X121177525Y-108699500D01*
X121048993Y-108733940D01*
X121037511Y-108737017D01*
X120911988Y-108809488D01*
X120911982Y-108809493D01*
X120809493Y-108911982D01*
X120809488Y-108911988D01*
X120737017Y-109037511D01*
X120737016Y-109037515D01*
X120699500Y-109177525D01*
X118792420Y-109177525D01*
X118855276Y-109114669D01*
X118857808Y-109110879D01*
X118864739Y-109100508D01*
X118864739Y-109100507D01*
X118926461Y-109008133D01*
X118926461Y-109008132D01*
X118926465Y-109008127D01*
X118975501Y-108889744D01*
X118983682Y-108848615D01*
X119000500Y-108764071D01*
X119000500Y-108635928D01*
X118975502Y-108510261D01*
X118975501Y-108510260D01*
X118975501Y-108510256D01*
X118926465Y-108391873D01*
X118926464Y-108391872D01*
X118926461Y-108391866D01*
X118855276Y-108285331D01*
X118855273Y-108285327D01*
X118764672Y-108194726D01*
X118764668Y-108194723D01*
X118658133Y-108123538D01*
X118658124Y-108123533D01*
X118539744Y-108074499D01*
X118539738Y-108074497D01*
X118414071Y-108049500D01*
X118414069Y-108049500D01*
X118285931Y-108049500D01*
X118285929Y-108049500D01*
X118160261Y-108074497D01*
X118160251Y-108074500D01*
X118072452Y-108110868D01*
X118002983Y-108118337D01*
X117977548Y-108110868D01*
X117889748Y-108074500D01*
X117889738Y-108074497D01*
X117764071Y-108049500D01*
X117764069Y-108049500D01*
X117635931Y-108049500D01*
X117635929Y-108049500D01*
X117510261Y-108074497D01*
X117510255Y-108074499D01*
X117391875Y-108123533D01*
X117386498Y-108126408D01*
X117385706Y-108124926D01*
X117326713Y-108143398D01*
X117259333Y-108124913D01*
X117212643Y-108072934D01*
X117200500Y-108019418D01*
X117200500Y-106906903D01*
X117200500Y-106906898D01*
X117189877Y-106818436D01*
X117134361Y-106677658D01*
X117134360Y-106677657D01*
X117134360Y-106677656D01*
X117042922Y-106557077D01*
X116922343Y-106465639D01*
X116781561Y-106410122D01*
X116735926Y-106404642D01*
X116693102Y-106399500D01*
X115506898Y-106399500D01*
X115467853Y-106404188D01*
X115418438Y-106410122D01*
X115277656Y-106465639D01*
X115157077Y-106557077D01*
X115065639Y-106677656D01*
X115010122Y-106818438D01*
X114999497Y-106906920D01*
X114999308Y-106910086D01*
X114975644Y-106975826D01*
X114963212Y-106990340D01*
X114500000Y-107453552D01*
X114500000Y-107447339D01*
X114472741Y-107345606D01*
X114420080Y-107254394D01*
X114345606Y-107179920D01*
X114254394Y-107127259D01*
X114152661Y-107100000D01*
X114146446Y-107100000D01*
X114825922Y-106420524D01*
X114825921Y-106420523D01*
X114781359Y-106388147D01*
X114781350Y-106388141D01*
X114599031Y-106295244D01*
X114404417Y-106232009D01*
X114202317Y-106200000D01*
X113997683Y-106200000D01*
X113795582Y-106232009D01*
X113600968Y-106295244D01*
X113418644Y-106388143D01*
X113374077Y-106420523D01*
X113374077Y-106420524D01*
X114053554Y-107100000D01*
X114047339Y-107100000D01*
X113945606Y-107127259D01*
X113854394Y-107179920D01*
X113779920Y-107254394D01*
X113727259Y-107345606D01*
X113700000Y-107447339D01*
X113700000Y-107453553D01*
X113020524Y-106774077D01*
X113020523Y-106774077D01*
X112988143Y-106818644D01*
X112895244Y-107000968D01*
X112832009Y-107195582D01*
X112800000Y-107397682D01*
X89449085Y-107397682D01*
X89448538Y-107397004D01*
X89445652Y-107370281D01*
X89439191Y-107344192D01*
X89441958Y-107336070D01*
X89441037Y-107327538D01*
X89453057Y-107303496D01*
X89461726Y-107278057D01*
X89468445Y-107272720D01*
X89472284Y-107265044D01*
X89495395Y-107251317D01*
X89516440Y-107234604D01*
X89527009Y-107232540D01*
X89532356Y-107229365D01*
X89541604Y-107229691D01*
X89563076Y-107225499D01*
X89694864Y-107225499D01*
X89694879Y-107225497D01*
X89694882Y-107225497D01*
X89719987Y-107222586D01*
X89719988Y-107222585D01*
X89719991Y-107222585D01*
X89822765Y-107177206D01*
X89902206Y-107097765D01*
X89947585Y-106994991D01*
X89950500Y-106969865D01*
X89950499Y-106056790D01*
X89950499Y-105180143D01*
X89950499Y-105180136D01*
X89950497Y-105180117D01*
X89947586Y-105155012D01*
X89947585Y-105155010D01*
X89947585Y-105155009D01*
X89902206Y-105052235D01*
X89822765Y-104972794D01*
X89822763Y-104972793D01*
X89719992Y-104927415D01*
X89694865Y-104924500D01*
X87905143Y-104924500D01*
X87905117Y-104924502D01*
X87880012Y-104927413D01*
X87880008Y-104927415D01*
X87777235Y-104972793D01*
X87697794Y-105052234D01*
X87652415Y-105155006D01*
X87652415Y-105155008D01*
X87649500Y-105180131D01*
X87649500Y-106969856D01*
X87649502Y-106969882D01*
X87652413Y-106994987D01*
X87652415Y-106994991D01*
X87697793Y-107097764D01*
X87697794Y-107097765D01*
X87777235Y-107177206D01*
X87880009Y-107222585D01*
X87905135Y-107225500D01*
X88036923Y-107225499D01*
X88103960Y-107245183D01*
X88149715Y-107297987D01*
X88159659Y-107367145D01*
X88130635Y-107430701D01*
X88096387Y-107457507D01*
X88096590Y-107457838D01*
X88093715Y-107459599D01*
X88093239Y-107459972D01*
X88092451Y-107460373D01*
X88092440Y-107460380D01*
X88038282Y-107499727D01*
X88038282Y-107499728D01*
X88670591Y-108132037D01*
X88607007Y-108149075D01*
X88492993Y-108214901D01*
X88399901Y-108307993D01*
X88334075Y-108422007D01*
X88317037Y-108485591D01*
X87684728Y-107853282D01*
X87684727Y-107853282D01*
X87645380Y-107907439D01*
X87548904Y-108096782D01*
X87483242Y-108298869D01*
X87483242Y-108298872D01*
X87450000Y-108508753D01*
X50500500Y-108508753D01*
X50500500Y-105421153D01*
X53194500Y-105421153D01*
X53194500Y-105578846D01*
X53225261Y-105733489D01*
X53225264Y-105733501D01*
X53285602Y-105879172D01*
X53285609Y-105879185D01*
X53373210Y-106010288D01*
X53373213Y-106010292D01*
X53484707Y-106121786D01*
X53484711Y-106121789D01*
X53615814Y-106209390D01*
X53615827Y-106209397D01*
X53715060Y-106250500D01*
X53761503Y-106269737D01*
X53916153Y-106300499D01*
X53916156Y-106300500D01*
X53916158Y-106300500D01*
X54073844Y-106300500D01*
X54073845Y-106300499D01*
X54228497Y-106269737D01*
X54374179Y-106209394D01*
X54505289Y-106121789D01*
X54616789Y-106010289D01*
X54704394Y-105879179D01*
X54764737Y-105733497D01*
X54795500Y-105578842D01*
X54795500Y-105421158D01*
X54795500Y-105421155D01*
X54795499Y-105421153D01*
X54782805Y-105357335D01*
X54764737Y-105266503D01*
X54728963Y-105180136D01*
X54719626Y-105157593D01*
X54704395Y-105120823D01*
X54704390Y-105120814D01*
X54701326Y-105116228D01*
X55344500Y-105116228D01*
X55344500Y-105783771D01*
X55377182Y-105948074D01*
X55377184Y-105948082D01*
X55441295Y-106102860D01*
X55534373Y-106242162D01*
X55652837Y-106360626D01*
X55726915Y-106410123D01*
X55792137Y-106453703D01*
X55792138Y-106453703D01*
X55792139Y-106453704D01*
X55806318Y-106459577D01*
X55946918Y-106517816D01*
X56111228Y-106550499D01*
X56111232Y-106550500D01*
X56111233Y-106550500D01*
X56278768Y-106550500D01*
X56278769Y-106550499D01*
X56443082Y-106517816D01*
X56597863Y-106453703D01*
X56737162Y-106360626D01*
X56855626Y-106242162D01*
X56948703Y-106102863D01*
X57012816Y-105948082D01*
X57038105Y-105820943D01*
X66349500Y-105820943D01*
X66349500Y-105979057D01*
X66390086Y-106130524D01*
X66390423Y-106131783D01*
X66390426Y-106131790D01*
X66469475Y-106268709D01*
X66469479Y-106268714D01*
X66469480Y-106268716D01*
X66581284Y-106380520D01*
X66581286Y-106380521D01*
X66581290Y-106380524D01*
X66718209Y-106459573D01*
X66718216Y-106459577D01*
X66870943Y-106500500D01*
X66870945Y-106500500D01*
X67029055Y-106500500D01*
X67029057Y-106500500D01*
X67181784Y-106459577D01*
X67318716Y-106380520D01*
X67430520Y-106268716D01*
X67509577Y-106131784D01*
X67550500Y-105979057D01*
X67550500Y-105820943D01*
X67509577Y-105668216D01*
X67453417Y-105570943D01*
X73499500Y-105570943D01*
X73499500Y-105729057D01*
X73524122Y-105820945D01*
X73540423Y-105881783D01*
X73540426Y-105881790D01*
X73619475Y-106018709D01*
X73619479Y-106018714D01*
X73619480Y-106018716D01*
X73731284Y-106130520D01*
X73731286Y-106130521D01*
X73731290Y-106130524D01*
X73840745Y-106193717D01*
X73868216Y-106209577D01*
X74020943Y-106250500D01*
X74020945Y-106250500D01*
X74179055Y-106250500D01*
X74179057Y-106250500D01*
X74331784Y-106209577D01*
X74468716Y-106130520D01*
X74580520Y-106018716D01*
X74659577Y-105881784D01*
X74695975Y-105745943D01*
X79524500Y-105745943D01*
X79524500Y-105904057D01*
X79552965Y-106010288D01*
X79565423Y-106056783D01*
X79565426Y-106056790D01*
X79644475Y-106193709D01*
X79644479Y-106193714D01*
X79644480Y-106193716D01*
X79756284Y-106305520D01*
X79756286Y-106305521D01*
X79756290Y-106305524D01*
X79886189Y-106380520D01*
X79893216Y-106384577D01*
X80045943Y-106425500D01*
X80045945Y-106425500D01*
X80204055Y-106425500D01*
X80204057Y-106425500D01*
X80356784Y-106384577D01*
X80493716Y-106305520D01*
X80605520Y-106193716D01*
X80684577Y-106056784D01*
X80725500Y-105904057D01*
X80725500Y-105745943D01*
X80684577Y-105593216D01*
X80671718Y-105570943D01*
X80605524Y-105456290D01*
X80605518Y-105456282D01*
X80493717Y-105344481D01*
X80493712Y-105344477D01*
X80388861Y-105283942D01*
X80388860Y-105283942D01*
X80356784Y-105265423D01*
X80204057Y-105224500D01*
X80045943Y-105224500D01*
X79893216Y-105265423D01*
X79893209Y-105265426D01*
X79756290Y-105344475D01*
X79756282Y-105344481D01*
X79644481Y-105456282D01*
X79644475Y-105456290D01*
X79565426Y-105593209D01*
X79565423Y-105593216D01*
X79524500Y-105745943D01*
X74695975Y-105745943D01*
X74700500Y-105729057D01*
X74700500Y-105570943D01*
X74659577Y-105418216D01*
X74624427Y-105357334D01*
X74580524Y-105281290D01*
X74580518Y-105281282D01*
X74468717Y-105169481D01*
X74468709Y-105169475D01*
X74331790Y-105090426D01*
X74331786Y-105090424D01*
X74331784Y-105090423D01*
X74179057Y-105049500D01*
X74020943Y-105049500D01*
X73868216Y-105090423D01*
X73868209Y-105090426D01*
X73731290Y-105169475D01*
X73731282Y-105169481D01*
X73619481Y-105281282D01*
X73619475Y-105281290D01*
X73540426Y-105418209D01*
X73540423Y-105418216D01*
X73499500Y-105570943D01*
X67453417Y-105570943D01*
X67430520Y-105531284D01*
X67318716Y-105419480D01*
X67318714Y-105419479D01*
X67318709Y-105419475D01*
X67181790Y-105340426D01*
X67181786Y-105340424D01*
X67181784Y-105340423D01*
X67029057Y-105299500D01*
X66870943Y-105299500D01*
X66718216Y-105340423D01*
X66718209Y-105340426D01*
X66581290Y-105419475D01*
X66581282Y-105419481D01*
X66469481Y-105531282D01*
X66469475Y-105531290D01*
X66390426Y-105668209D01*
X66390423Y-105668216D01*
X66349500Y-105820943D01*
X57038105Y-105820943D01*
X57045500Y-105783767D01*
X57045500Y-105116233D01*
X57012816Y-104951918D01*
X56948703Y-104797137D01*
X56896294Y-104718701D01*
X67565814Y-104718701D01*
X67565814Y-104876815D01*
X67596065Y-104989711D01*
X67606737Y-105029541D01*
X67606740Y-105029548D01*
X67685789Y-105166467D01*
X67685793Y-105166472D01*
X67685794Y-105166474D01*
X67797598Y-105278278D01*
X67797600Y-105278279D01*
X67797604Y-105278282D01*
X67912259Y-105344477D01*
X67934530Y-105357335D01*
X68087257Y-105398258D01*
X68087259Y-105398258D01*
X68245369Y-105398258D01*
X68245371Y-105398258D01*
X68398098Y-105357335D01*
X68535030Y-105278278D01*
X68646834Y-105166474D01*
X68725891Y-105029542D01*
X68766814Y-104876815D01*
X68766814Y-104718701D01*
X68725891Y-104565974D01*
X68710533Y-104539373D01*
X68646838Y-104429048D01*
X68646832Y-104429040D01*
X68535031Y-104317239D01*
X68535023Y-104317233D01*
X68398104Y-104238184D01*
X68398100Y-104238182D01*
X68398098Y-104238181D01*
X68245371Y-104197258D01*
X68087257Y-104197258D01*
X67934530Y-104238181D01*
X67934523Y-104238184D01*
X67797604Y-104317233D01*
X67797596Y-104317239D01*
X67685795Y-104429040D01*
X67685789Y-104429048D01*
X67606740Y-104565967D01*
X67606737Y-104565974D01*
X67565814Y-104718701D01*
X56896294Y-104718701D01*
X56855626Y-104657838D01*
X56855625Y-104657837D01*
X56855623Y-104657834D01*
X56737162Y-104539373D01*
X56597860Y-104446295D01*
X56443082Y-104382184D01*
X56443074Y-104382182D01*
X56278771Y-104349500D01*
X56278767Y-104349500D01*
X56111233Y-104349500D01*
X56111228Y-104349500D01*
X55946925Y-104382182D01*
X55946917Y-104382184D01*
X55792139Y-104446295D01*
X55652837Y-104539373D01*
X55534373Y-104657837D01*
X55441295Y-104797139D01*
X55377184Y-104951917D01*
X55377182Y-104951925D01*
X55344500Y-105116228D01*
X54701326Y-105116228D01*
X54616789Y-104989711D01*
X54616786Y-104989707D01*
X54505292Y-104878213D01*
X54505288Y-104878210D01*
X54374185Y-104790609D01*
X54374172Y-104790602D01*
X54228501Y-104730264D01*
X54228489Y-104730261D01*
X54073845Y-104699500D01*
X54073842Y-104699500D01*
X53916158Y-104699500D01*
X53916155Y-104699500D01*
X53761510Y-104730261D01*
X53761498Y-104730264D01*
X53615827Y-104790602D01*
X53615814Y-104790609D01*
X53484711Y-104878210D01*
X53484707Y-104878213D01*
X53373213Y-104989707D01*
X53373210Y-104989711D01*
X53285609Y-105120814D01*
X53285602Y-105120827D01*
X53225264Y-105266498D01*
X53225261Y-105266510D01*
X53194500Y-105421153D01*
X50500500Y-105421153D01*
X50500500Y-102120943D01*
X73299500Y-102120943D01*
X73299500Y-102279057D01*
X73299700Y-102279801D01*
X73340423Y-102431783D01*
X73340426Y-102431790D01*
X73419475Y-102568709D01*
X73419479Y-102568714D01*
X73419480Y-102568716D01*
X73531284Y-102680520D01*
X73531286Y-102680521D01*
X73531290Y-102680524D01*
X73668209Y-102759573D01*
X73668216Y-102759577D01*
X73820943Y-102800500D01*
X73820945Y-102800500D01*
X73979055Y-102800500D01*
X73979057Y-102800500D01*
X74131784Y-102759577D01*
X74268716Y-102680520D01*
X74380520Y-102568716D01*
X74459577Y-102431784D01*
X74500500Y-102279057D01*
X74500500Y-102120943D01*
X74459577Y-101968216D01*
X74420808Y-101901065D01*
X74380524Y-101831290D01*
X74380518Y-101831282D01*
X74268717Y-101719481D01*
X74268709Y-101719475D01*
X74131790Y-101640426D01*
X74131786Y-101640424D01*
X74131784Y-101640423D01*
X73979057Y-101599500D01*
X73820943Y-101599500D01*
X73668216Y-101640423D01*
X73668209Y-101640426D01*
X73531290Y-101719475D01*
X73531282Y-101719481D01*
X73419481Y-101831282D01*
X73419475Y-101831290D01*
X73340426Y-101968209D01*
X73340423Y-101968216D01*
X73299500Y-102120943D01*
X50500500Y-102120943D01*
X50500500Y-100220943D01*
X77549500Y-100220943D01*
X77549500Y-100379057D01*
X77562898Y-100429057D01*
X77590423Y-100531783D01*
X77590426Y-100531790D01*
X77669475Y-100668709D01*
X77669479Y-100668714D01*
X77669480Y-100668716D01*
X77781284Y-100780520D01*
X77781286Y-100780521D01*
X77781290Y-100780524D01*
X77867887Y-100830520D01*
X77918216Y-100859577D01*
X78070943Y-100900500D01*
X78070945Y-100900500D01*
X78229055Y-100900500D01*
X78229057Y-100900500D01*
X78381784Y-100859577D01*
X78518716Y-100780520D01*
X78630520Y-100668716D01*
X78647204Y-100639818D01*
X82150000Y-100639818D01*
X82150000Y-100860181D01*
X82184473Y-101077835D01*
X82252567Y-101287410D01*
X82352611Y-101483756D01*
X82398932Y-101547513D01*
X83107861Y-100838584D01*
X83130667Y-100923694D01*
X83189910Y-101026306D01*
X83273694Y-101110090D01*
X83376306Y-101169333D01*
X83461414Y-101192137D01*
X82752485Y-101901065D01*
X82755857Y-101943906D01*
X82741493Y-102012283D01*
X82719921Y-102041316D01*
X82634309Y-102126928D01*
X82523240Y-102279800D01*
X82437454Y-102448163D01*
X82379059Y-102627881D01*
X82349500Y-102814513D01*
X82349500Y-103003486D01*
X82379059Y-103190118D01*
X82437454Y-103369836D01*
X82523240Y-103538199D01*
X82634310Y-103691073D01*
X82767927Y-103824690D01*
X82920801Y-103935760D01*
X83000347Y-103976290D01*
X83089163Y-104021545D01*
X83089165Y-104021545D01*
X83089168Y-104021547D01*
X83185497Y-104052846D01*
X83268881Y-104079940D01*
X83455514Y-104109500D01*
X83455519Y-104109500D01*
X83644486Y-104109500D01*
X83831118Y-104079940D01*
X84010832Y-104021547D01*
X84179199Y-103935760D01*
X84332073Y-103824690D01*
X84465690Y-103691073D01*
X84576760Y-103538199D01*
X84662547Y-103369832D01*
X84720940Y-103190118D01*
X84750500Y-103003486D01*
X84750500Y-102814513D01*
X84720940Y-102627881D01*
X84662545Y-102448163D01*
X84576759Y-102279800D01*
X84576219Y-102279057D01*
X84465690Y-102126927D01*
X84380079Y-102041316D01*
X84346594Y-101979993D01*
X84344142Y-101943906D01*
X84347513Y-101901065D01*
X83638585Y-101192138D01*
X83723694Y-101169333D01*
X83826306Y-101110090D01*
X83910090Y-101026306D01*
X83969333Y-100923694D01*
X83992137Y-100838585D01*
X84701066Y-101547514D01*
X84701066Y-101547513D01*
X84747386Y-101483760D01*
X84847432Y-101287410D01*
X84915526Y-101077835D01*
X84950000Y-100860181D01*
X84950000Y-100639818D01*
X84915526Y-100422164D01*
X84876202Y-100301134D01*
X84866392Y-100270943D01*
X117249500Y-100270943D01*
X117249500Y-100429057D01*
X117277026Y-100531783D01*
X117290423Y-100581783D01*
X117290426Y-100581790D01*
X117369475Y-100718709D01*
X117369479Y-100718714D01*
X117369480Y-100718716D01*
X117481284Y-100830520D01*
X117481286Y-100830521D01*
X117481290Y-100830524D01*
X117602492Y-100900499D01*
X117618216Y-100909577D01*
X117770943Y-100950500D01*
X117770945Y-100950500D01*
X117929055Y-100950500D01*
X117929057Y-100950500D01*
X118081784Y-100909577D01*
X118218716Y-100830520D01*
X118330520Y-100718716D01*
X118409577Y-100581784D01*
X118450500Y-100429057D01*
X118450500Y-100270943D01*
X118409577Y-100118216D01*
X118380706Y-100068209D01*
X118330524Y-99981290D01*
X118330518Y-99981282D01*
X118218717Y-99869481D01*
X118218709Y-99869475D01*
X118081790Y-99790426D01*
X118081786Y-99790424D01*
X118081784Y-99790423D01*
X117929057Y-99749500D01*
X117770943Y-99749500D01*
X117618216Y-99790423D01*
X117618209Y-99790426D01*
X117481290Y-99869475D01*
X117481282Y-99869481D01*
X117369481Y-99981282D01*
X117369475Y-99981290D01*
X117290426Y-100118209D01*
X117290423Y-100118216D01*
X117249500Y-100270943D01*
X84866392Y-100270943D01*
X84847432Y-100212589D01*
X84747388Y-100016243D01*
X84701066Y-99952485D01*
X84701065Y-99952485D01*
X83992137Y-100661413D01*
X83969333Y-100576306D01*
X83910090Y-100473694D01*
X83826306Y-100389910D01*
X83723694Y-100330667D01*
X83638583Y-100307861D01*
X84347512Y-99598933D01*
X84344141Y-99556096D01*
X84358504Y-99487718D01*
X84380072Y-99458690D01*
X84465690Y-99373073D01*
X84576760Y-99220199D01*
X84662547Y-99051832D01*
X84720940Y-98872118D01*
X84750500Y-98685486D01*
X84750500Y-98496513D01*
X84720940Y-98309881D01*
X84662545Y-98130163D01*
X84576759Y-97961800D01*
X84470516Y-97815570D01*
X84447036Y-97749764D01*
X84462861Y-97681710D01*
X84512967Y-97633015D01*
X84520718Y-97629263D01*
X84622765Y-97584206D01*
X84702206Y-97504765D01*
X84747585Y-97401991D01*
X84750500Y-97376865D01*
X84750499Y-95487136D01*
X84750497Y-95487117D01*
X84747586Y-95462012D01*
X84747585Y-95462010D01*
X84747585Y-95462009D01*
X84702206Y-95359235D01*
X84622765Y-95279794D01*
X84622763Y-95279793D01*
X84519992Y-95234415D01*
X84494865Y-95231500D01*
X82605143Y-95231500D01*
X82605117Y-95231502D01*
X82580012Y-95234413D01*
X82580008Y-95234415D01*
X82477235Y-95279793D01*
X82397794Y-95359234D01*
X82352415Y-95462006D01*
X82352415Y-95462008D01*
X82349500Y-95487131D01*
X82349500Y-97376856D01*
X82349502Y-97376882D01*
X82352413Y-97401987D01*
X82352415Y-97401991D01*
X82397793Y-97504764D01*
X82397794Y-97504765D01*
X82477235Y-97584206D01*
X82547965Y-97615436D01*
X82579252Y-97629251D01*
X82632628Y-97674337D01*
X82653155Y-97741123D01*
X82634317Y-97808405D01*
X82629483Y-97815571D01*
X82523240Y-97961800D01*
X82437454Y-98130163D01*
X82379059Y-98309881D01*
X82349500Y-98496513D01*
X82349500Y-98685486D01*
X82379059Y-98872118D01*
X82437454Y-99051836D01*
X82523240Y-99220199D01*
X82634310Y-99373073D01*
X82634312Y-99373075D01*
X82719920Y-99458683D01*
X82753405Y-99520006D01*
X82755857Y-99556093D01*
X82752485Y-99598932D01*
X83461414Y-100307861D01*
X83376306Y-100330667D01*
X83273694Y-100389910D01*
X83189910Y-100473694D01*
X83130667Y-100576306D01*
X83107861Y-100661414D01*
X82398932Y-99952485D01*
X82398931Y-99952485D01*
X82352616Y-100016233D01*
X82252567Y-100212589D01*
X82184473Y-100422164D01*
X82150000Y-100639818D01*
X78647204Y-100639818D01*
X78709577Y-100531784D01*
X78750500Y-100379057D01*
X78750500Y-100220943D01*
X78709577Y-100068216D01*
X78659391Y-99981290D01*
X78630524Y-99931290D01*
X78630518Y-99931282D01*
X78518717Y-99819481D01*
X78518709Y-99819475D01*
X78381790Y-99740426D01*
X78381786Y-99740424D01*
X78381784Y-99740423D01*
X78229057Y-99699500D01*
X78070943Y-99699500D01*
X77918216Y-99740423D01*
X77918209Y-99740426D01*
X77781290Y-99819475D01*
X77781282Y-99819481D01*
X77669481Y-99931282D01*
X77669475Y-99931290D01*
X77590426Y-100068209D01*
X77590423Y-100068216D01*
X77549500Y-100220943D01*
X50500500Y-100220943D01*
X50500500Y-85920943D01*
X81999500Y-85920943D01*
X81999500Y-86079056D01*
X82040423Y-86231783D01*
X82040426Y-86231790D01*
X82119475Y-86368709D01*
X82119479Y-86368714D01*
X82119480Y-86368716D01*
X82231284Y-86480520D01*
X82231286Y-86480521D01*
X82231290Y-86480524D01*
X82368209Y-86559573D01*
X82368216Y-86559577D01*
X82520943Y-86600500D01*
X82520945Y-86600500D01*
X82679055Y-86600500D01*
X82679057Y-86600500D01*
X82831784Y-86559577D01*
X82968716Y-86480520D01*
X83080520Y-86368716D01*
X83159577Y-86231784D01*
X83200500Y-86079057D01*
X83200500Y-85920943D01*
X83159577Y-85768216D01*
X83159573Y-85768209D01*
X83080524Y-85631290D01*
X83080518Y-85631282D01*
X82968717Y-85519481D01*
X82968709Y-85519475D01*
X82831790Y-85440426D01*
X82831786Y-85440424D01*
X82831784Y-85440423D01*
X82679057Y-85399500D01*
X82520943Y-85399500D01*
X82368216Y-85440423D01*
X82368209Y-85440426D01*
X82231290Y-85519475D01*
X82231282Y-85519481D01*
X82119481Y-85631282D01*
X82119475Y-85631290D01*
X82040426Y-85768209D01*
X82040423Y-85768216D01*
X81999500Y-85920943D01*
X50500500Y-85920943D01*
X50500500Y-81470943D01*
X86449500Y-81470943D01*
X86449500Y-81629056D01*
X86490423Y-81781783D01*
X86490426Y-81781790D01*
X86569475Y-81918709D01*
X86569479Y-81918714D01*
X86569480Y-81918716D01*
X86681284Y-82030520D01*
X86681286Y-82030521D01*
X86681290Y-82030524D01*
X86818209Y-82109573D01*
X86818216Y-82109577D01*
X86970943Y-82150500D01*
X86970945Y-82150500D01*
X87129055Y-82150500D01*
X87129057Y-82150500D01*
X87281784Y-82109577D01*
X87418716Y-82030520D01*
X87530520Y-81918716D01*
X87609577Y-81781784D01*
X87650500Y-81629057D01*
X87650500Y-81470943D01*
X87609577Y-81318216D01*
X87609573Y-81318209D01*
X87530524Y-81181290D01*
X87530518Y-81181282D01*
X87418717Y-81069481D01*
X87418709Y-81069475D01*
X87281790Y-80990426D01*
X87281786Y-80990424D01*
X87281784Y-80990423D01*
X87129057Y-80949500D01*
X86970943Y-80949500D01*
X86818216Y-80990423D01*
X86818209Y-80990426D01*
X86681290Y-81069475D01*
X86681282Y-81069481D01*
X86569481Y-81181282D01*
X86569475Y-81181290D01*
X86490426Y-81318209D01*
X86490423Y-81318216D01*
X86449500Y-81470943D01*
X50500500Y-81470943D01*
X50500500Y-69865131D01*
X96054500Y-69865131D01*
X96054500Y-71454856D01*
X96054502Y-71454882D01*
X96057413Y-71479987D01*
X96057415Y-71479991D01*
X96102793Y-71582764D01*
X96102794Y-71582765D01*
X96182235Y-71662206D01*
X96285009Y-71707585D01*
X96310135Y-71710500D01*
X97449864Y-71710499D01*
X97449879Y-71710497D01*
X97449882Y-71710497D01*
X97474987Y-71707586D01*
X97474988Y-71707585D01*
X97474991Y-71707585D01*
X97577765Y-71662206D01*
X97605761Y-71634209D01*
X97667081Y-71600725D01*
X97736773Y-71605709D01*
X97753332Y-71614183D01*
X97753604Y-71613675D01*
X97758985Y-71616551D01*
X97869205Y-71662205D01*
X97909211Y-71678776D01*
X97909215Y-71678776D01*
X97909216Y-71678777D01*
X98068692Y-71710500D01*
X98068695Y-71710500D01*
X98231307Y-71710500D01*
X98338598Y-71689157D01*
X98390789Y-71678776D01*
X98541021Y-71616548D01*
X98552892Y-71608616D01*
X98619565Y-71587736D01*
X98686946Y-71606218D01*
X98709466Y-71624035D01*
X98766601Y-71681171D01*
X98934473Y-71793340D01*
X98934486Y-71793347D01*
X99121016Y-71870609D01*
X99121025Y-71870612D01*
X99170000Y-71880353D01*
X99170000Y-70940330D01*
X99189745Y-70960075D01*
X99275255Y-71009444D01*
X99370630Y-71035000D01*
X99469370Y-71035000D01*
X99564745Y-71009444D01*
X99650255Y-70960075D01*
X99670000Y-70940330D01*
X99670000Y-71880352D01*
X99718974Y-71870612D01*
X99718983Y-71870609D01*
X99905513Y-71793347D01*
X99905526Y-71793340D01*
X100073399Y-71681170D01*
X100073403Y-71681167D01*
X100216167Y-71538403D01*
X100216170Y-71538399D01*
X100328340Y-71370526D01*
X100328347Y-71370513D01*
X100405609Y-71183983D01*
X100405612Y-71183974D01*
X100444999Y-70985958D01*
X100445000Y-70985955D01*
X100445000Y-70910000D01*
X99700330Y-70910000D01*
X99720075Y-70890255D01*
X99769444Y-70804745D01*
X99795000Y-70709370D01*
X99795000Y-70610630D01*
X99769444Y-70515255D01*
X99720075Y-70429745D01*
X99700330Y-70410000D01*
X100445000Y-70410000D01*
X100445000Y-70334045D01*
X100444999Y-70334041D01*
X100405612Y-70136025D01*
X100405609Y-70136016D01*
X100328347Y-69949486D01*
X100328340Y-69949473D01*
X100216170Y-69781600D01*
X100216167Y-69781596D01*
X100073403Y-69638832D01*
X100073399Y-69638829D01*
X99905526Y-69526659D01*
X99905513Y-69526652D01*
X99718984Y-69449390D01*
X99718977Y-69449388D01*
X99670000Y-69439645D01*
X99670000Y-70379670D01*
X99650255Y-70359925D01*
X99564745Y-70310556D01*
X99469370Y-70285000D01*
X99370630Y-70285000D01*
X99275255Y-70310556D01*
X99189745Y-70359925D01*
X99170000Y-70379670D01*
X99170000Y-69439646D01*
X99169999Y-69439645D01*
X99121022Y-69449388D01*
X99121015Y-69449390D01*
X98934486Y-69526652D01*
X98934473Y-69526659D01*
X98766603Y-69638827D01*
X98709464Y-69695965D01*
X98648140Y-69729449D01*
X98578449Y-69724463D01*
X98552893Y-69711384D01*
X98541027Y-69703455D01*
X98541014Y-69703448D01*
X98390793Y-69641225D01*
X98390783Y-69641222D01*
X98231307Y-69609500D01*
X98231305Y-69609500D01*
X98068695Y-69609500D01*
X98068693Y-69609500D01*
X97909216Y-69641222D01*
X97909206Y-69641225D01*
X97758980Y-69703450D01*
X97753609Y-69706322D01*
X97752526Y-69704296D01*
X97695575Y-69722090D01*
X97628206Y-69703562D01*
X97605760Y-69685789D01*
X97577765Y-69657794D01*
X97474992Y-69612415D01*
X97449865Y-69609500D01*
X96310143Y-69609500D01*
X96310117Y-69609502D01*
X96285012Y-69612413D01*
X96285008Y-69612415D01*
X96182235Y-69657793D01*
X96102794Y-69737234D01*
X96057415Y-69840006D01*
X96057415Y-69840008D01*
X96054500Y-69865131D01*
X50500500Y-69865131D01*
X50500500Y-68297682D01*
X78855113Y-68297682D01*
X78855113Y-68502317D01*
X78887122Y-68704417D01*
X78950357Y-68899031D01*
X79043254Y-69081350D01*
X79043260Y-69081359D01*
X79075636Y-69125921D01*
X79075637Y-69125922D01*
X79755113Y-68446446D01*
X79755113Y-68452661D01*
X79782372Y-68554394D01*
X79835033Y-68645606D01*
X79909507Y-68720080D01*
X80000719Y-68772741D01*
X80102452Y-68800000D01*
X80108666Y-68800000D01*
X79429189Y-69479474D01*
X79473763Y-69511859D01*
X79656081Y-69604755D01*
X79850695Y-69667990D01*
X80052796Y-69700000D01*
X80257430Y-69700000D01*
X80459530Y-69667990D01*
X80654144Y-69604755D01*
X80836462Y-69511859D01*
X80881034Y-69479474D01*
X80201560Y-68800000D01*
X80207774Y-68800000D01*
X80309507Y-68772741D01*
X80400719Y-68720080D01*
X80475193Y-68645606D01*
X80527854Y-68554394D01*
X80555113Y-68452661D01*
X80555113Y-68446446D01*
X81018325Y-68909658D01*
X81051810Y-68970981D01*
X81054421Y-68989914D01*
X81054610Y-68993078D01*
X81065235Y-69081561D01*
X81120752Y-69222343D01*
X81212190Y-69342922D01*
X81332769Y-69434360D01*
X81332770Y-69434360D01*
X81332771Y-69434361D01*
X81473549Y-69489877D01*
X81562011Y-69500500D01*
X81562016Y-69500500D01*
X82748210Y-69500500D01*
X82748215Y-69500500D01*
X82836677Y-69489877D01*
X82977455Y-69434361D01*
X83098035Y-69342922D01*
X83189474Y-69222342D01*
X83244990Y-69081564D01*
X83255613Y-68993102D01*
X83255613Y-67806898D01*
X83244990Y-67718436D01*
X83189474Y-67577658D01*
X83189473Y-67577657D01*
X83189473Y-67577656D01*
X83098035Y-67457077D01*
X82977456Y-67365639D01*
X82836674Y-67310122D01*
X82791039Y-67304642D01*
X82748215Y-67299500D01*
X81562011Y-67299500D01*
X81522966Y-67304188D01*
X81473551Y-67310122D01*
X81332769Y-67365639D01*
X81212190Y-67457077D01*
X81120752Y-67577656D01*
X81065235Y-67718438D01*
X81054610Y-67806920D01*
X81054421Y-67810086D01*
X81030757Y-67875826D01*
X81018325Y-67890340D01*
X80555113Y-68353552D01*
X80555113Y-68347339D01*
X80527854Y-68245606D01*
X80475193Y-68154394D01*
X80400719Y-68079920D01*
X80309507Y-68027259D01*
X80207774Y-68000000D01*
X80201559Y-68000000D01*
X80881035Y-67320524D01*
X80881034Y-67320523D01*
X80836472Y-67288147D01*
X80836463Y-67288141D01*
X80654144Y-67195244D01*
X80459530Y-67132009D01*
X80257430Y-67100000D01*
X80052796Y-67100000D01*
X79850695Y-67132009D01*
X79656081Y-67195244D01*
X79473757Y-67288143D01*
X79429190Y-67320523D01*
X79429190Y-67320524D01*
X80108667Y-68000000D01*
X80102452Y-68000000D01*
X80000719Y-68027259D01*
X79909507Y-68079920D01*
X79835033Y-68154394D01*
X79782372Y-68245606D01*
X79755113Y-68347339D01*
X79755113Y-68353553D01*
X79075637Y-67674077D01*
X79075636Y-67674077D01*
X79043256Y-67718644D01*
X78950357Y-67900968D01*
X78887122Y-68095582D01*
X78855113Y-68297682D01*
X50500500Y-68297682D01*
X50500500Y-63347682D01*
X99150000Y-63347682D01*
X99150000Y-63552317D01*
X99182009Y-63754417D01*
X99245244Y-63949031D01*
X99338141Y-64131350D01*
X99338147Y-64131359D01*
X99370523Y-64175921D01*
X99370524Y-64175922D01*
X100050000Y-63496446D01*
X100050000Y-63502661D01*
X100077259Y-63604394D01*
X100129920Y-63695606D01*
X100204394Y-63770080D01*
X100295606Y-63822741D01*
X100397339Y-63850000D01*
X100403553Y-63850000D01*
X99724076Y-64529474D01*
X99768650Y-64561859D01*
X99950968Y-64654755D01*
X100145582Y-64717990D01*
X100347683Y-64750000D01*
X100552317Y-64750000D01*
X100754417Y-64717990D01*
X100949031Y-64654755D01*
X101131349Y-64561859D01*
X101175921Y-64529474D01*
X100496447Y-63850000D01*
X100502661Y-63850000D01*
X100604394Y-63822741D01*
X100695606Y-63770080D01*
X100770080Y-63695606D01*
X100822741Y-63604394D01*
X100850000Y-63502661D01*
X100850000Y-63496447D01*
X101529474Y-64175921D01*
X101561859Y-64131349D01*
X101654755Y-63949031D01*
X101717990Y-63754417D01*
X101750000Y-63552317D01*
X101750000Y-63347682D01*
X101717990Y-63145582D01*
X101654755Y-62950968D01*
X101561859Y-62768650D01*
X101529474Y-62724077D01*
X101529474Y-62724076D01*
X100850000Y-63403551D01*
X100850000Y-63397339D01*
X100822741Y-63295606D01*
X100770080Y-63204394D01*
X100695606Y-63129920D01*
X100604394Y-63077259D01*
X100502661Y-63050000D01*
X100496445Y-63050000D01*
X100959659Y-62586787D01*
X101020982Y-62553302D01*
X101039932Y-62550690D01*
X101043086Y-62550501D01*
X101043094Y-62550500D01*
X101043102Y-62550500D01*
X101131564Y-62539877D01*
X101272342Y-62484361D01*
X101392922Y-62392922D01*
X101484361Y-62272342D01*
X101539877Y-62131564D01*
X101550500Y-62043102D01*
X101550500Y-60856898D01*
X101539877Y-60768436D01*
X101484361Y-60627658D01*
X101484360Y-60627657D01*
X101484360Y-60627656D01*
X101392922Y-60507077D01*
X101272343Y-60415639D01*
X101131561Y-60360122D01*
X101085926Y-60354642D01*
X101043102Y-60349500D01*
X99856898Y-60349500D01*
X99817853Y-60354188D01*
X99768438Y-60360122D01*
X99627656Y-60415639D01*
X99507077Y-60507077D01*
X99415639Y-60627656D01*
X99360122Y-60768438D01*
X99355174Y-60809647D01*
X99349500Y-60856898D01*
X99349500Y-62043102D01*
X99351158Y-62056908D01*
X99360122Y-62131561D01*
X99415639Y-62272343D01*
X99507077Y-62392922D01*
X99627656Y-62484360D01*
X99627657Y-62484360D01*
X99627658Y-62484361D01*
X99768436Y-62539877D01*
X99856898Y-62550500D01*
X99856904Y-62550500D01*
X99856912Y-62550501D01*
X99860068Y-62550690D01*
X99925812Y-62574345D01*
X99940340Y-62586787D01*
X100403553Y-63050000D01*
X100397339Y-63050000D01*
X100295606Y-63077259D01*
X100204394Y-63129920D01*
X100129920Y-63204394D01*
X100077259Y-63295606D01*
X100050000Y-63397339D01*
X100050000Y-63403553D01*
X99370524Y-62724077D01*
X99370523Y-62724077D01*
X99338143Y-62768644D01*
X99245244Y-62950968D01*
X99182009Y-63145582D01*
X99150000Y-63347682D01*
X50500500Y-63347682D01*
X50500500Y-61973789D01*
X88857261Y-61973789D01*
X88857262Y-61973790D01*
X88863471Y-61978301D01*
X89017742Y-62056908D01*
X89182415Y-62110414D01*
X89353429Y-62137500D01*
X89526571Y-62137500D01*
X89697584Y-62110414D01*
X89862257Y-62056908D01*
X90016525Y-61978303D01*
X90022736Y-61973789D01*
X90022737Y-61973789D01*
X89440001Y-61391053D01*
X89440000Y-61391053D01*
X88857261Y-61973789D01*
X50500500Y-61973789D01*
X50500500Y-59678804D01*
X87269500Y-59678804D01*
X87269500Y-59856195D01*
X87304103Y-60030158D01*
X87304106Y-60030167D01*
X87371983Y-60194040D01*
X87371990Y-60194053D01*
X87470535Y-60341534D01*
X87470538Y-60341538D01*
X87595961Y-60466961D01*
X87595965Y-60466964D01*
X87743446Y-60565509D01*
X87743459Y-60565516D01*
X87866363Y-60616423D01*
X87907334Y-60633394D01*
X87907336Y-60633394D01*
X87907341Y-60633396D01*
X88081304Y-60667999D01*
X88081307Y-60668000D01*
X88239627Y-60668000D01*
X88306666Y-60687685D01*
X88352421Y-60740489D01*
X88362365Y-60809647D01*
X88362100Y-60811398D01*
X88340000Y-60950929D01*
X88340000Y-61124071D01*
X88367085Y-61295084D01*
X88420592Y-61459759D01*
X88499196Y-61614025D01*
X88503709Y-61620236D01*
X88503709Y-61620237D01*
X89090000Y-61033946D01*
X89090000Y-61083578D01*
X89113852Y-61172595D01*
X89159930Y-61252405D01*
X89225095Y-61317570D01*
X89304905Y-61363648D01*
X89393922Y-61387500D01*
X89486078Y-61387500D01*
X89575095Y-61363648D01*
X89654905Y-61317570D01*
X89720070Y-61252405D01*
X89766148Y-61172595D01*
X89790000Y-61083578D01*
X89790000Y-61033947D01*
X90376289Y-61620236D01*
X90380803Y-61614025D01*
X90459408Y-61459757D01*
X90512914Y-61295084D01*
X90540000Y-61124071D01*
X90540000Y-60950929D01*
X90527592Y-60872590D01*
X90517900Y-60811398D01*
X90526854Y-60742105D01*
X90571851Y-60688653D01*
X90638602Y-60668013D01*
X90640373Y-60668000D01*
X90998693Y-60668000D01*
X90998694Y-60667999D01*
X91056682Y-60656464D01*
X91172658Y-60633396D01*
X91172661Y-60633394D01*
X91172666Y-60633394D01*
X91336547Y-60565513D01*
X91484035Y-60466964D01*
X91609464Y-60341535D01*
X91708013Y-60194047D01*
X91775894Y-60030166D01*
X91777672Y-60021231D01*
X91810499Y-59856195D01*
X91810500Y-59856193D01*
X91810500Y-59678806D01*
X91810499Y-59678804D01*
X91775896Y-59504841D01*
X91775893Y-59504832D01*
X91708016Y-59340959D01*
X91708009Y-59340946D01*
X91609464Y-59193465D01*
X91609461Y-59193461D01*
X91484038Y-59068038D01*
X91484034Y-59068035D01*
X91380033Y-58998543D01*
X110159499Y-58998543D01*
X110197947Y-59191829D01*
X110197950Y-59191839D01*
X110273364Y-59373907D01*
X110273371Y-59373920D01*
X110382860Y-59537781D01*
X110382863Y-59537785D01*
X110522214Y-59677136D01*
X110522218Y-59677139D01*
X110686079Y-59786628D01*
X110686092Y-59786635D01*
X110854022Y-59856193D01*
X110868165Y-59862051D01*
X110868169Y-59862051D01*
X110868170Y-59862052D01*
X111061456Y-59900500D01*
X111061459Y-59900500D01*
X111258543Y-59900500D01*
X111388582Y-59874632D01*
X111451835Y-59862051D01*
X111633914Y-59786632D01*
X111797782Y-59677139D01*
X111937139Y-59537782D01*
X112046632Y-59373914D01*
X112122051Y-59191835D01*
X112146676Y-59068038D01*
X112160500Y-58998543D01*
X117779499Y-58998543D01*
X117817947Y-59191829D01*
X117817950Y-59191839D01*
X117893364Y-59373907D01*
X117893371Y-59373920D01*
X118002860Y-59537781D01*
X118002863Y-59537785D01*
X118142214Y-59677136D01*
X118142218Y-59677139D01*
X118306079Y-59786628D01*
X118306092Y-59786635D01*
X118474022Y-59856193D01*
X118488165Y-59862051D01*
X118488169Y-59862051D01*
X118488170Y-59862052D01*
X118681456Y-59900500D01*
X118681459Y-59900500D01*
X118878543Y-59900500D01*
X119008582Y-59874632D01*
X119071835Y-59862051D01*
X119253914Y-59786632D01*
X119417782Y-59677139D01*
X119557139Y-59537782D01*
X119666632Y-59373914D01*
X119742051Y-59191835D01*
X119766676Y-59068038D01*
X119780500Y-58998543D01*
X119780500Y-58993389D01*
X120619500Y-58993389D01*
X120619500Y-59166611D01*
X120646598Y-59337701D01*
X120700127Y-59502445D01*
X120778768Y-59656788D01*
X120880586Y-59796928D01*
X121003072Y-59919414D01*
X121143212Y-60021232D01*
X121297555Y-60099873D01*
X121462299Y-60153402D01*
X121633389Y-60180500D01*
X121633390Y-60180500D01*
X121806610Y-60180500D01*
X121806611Y-60180500D01*
X121977701Y-60153402D01*
X122142445Y-60099873D01*
X122296788Y-60021232D01*
X122436928Y-59919414D01*
X122559414Y-59796928D01*
X122661232Y-59656788D01*
X122739873Y-59502445D01*
X122793402Y-59337701D01*
X122820500Y-59166611D01*
X122820500Y-58993389D01*
X122793402Y-58822299D01*
X122739873Y-58657555D01*
X122661232Y-58503212D01*
X122559414Y-58363072D01*
X122436928Y-58240586D01*
X122296788Y-58138768D01*
X122142445Y-58060127D01*
X121977701Y-58006598D01*
X121977699Y-58006597D01*
X121977698Y-58006597D01*
X121846271Y-57985781D01*
X121806611Y-57979500D01*
X121633389Y-57979500D01*
X121593728Y-57985781D01*
X121462302Y-58006597D01*
X121297552Y-58060128D01*
X121143211Y-58138768D01*
X121131193Y-58147500D01*
X121003072Y-58240586D01*
X121003070Y-58240588D01*
X121003069Y-58240588D01*
X120880588Y-58363069D01*
X120880588Y-58363070D01*
X120880586Y-58363072D01*
X120836859Y-58423256D01*
X120778768Y-58503211D01*
X120700128Y-58657552D01*
X120646597Y-58822302D01*
X120639520Y-58866987D01*
X120619500Y-58993389D01*
X119780500Y-58993389D01*
X119780500Y-58801456D01*
X119742052Y-58608170D01*
X119742051Y-58608169D01*
X119742051Y-58608165D01*
X119733117Y-58586596D01*
X119666635Y-58426092D01*
X119666628Y-58426079D01*
X119557139Y-58262218D01*
X119557136Y-58262214D01*
X119417785Y-58122863D01*
X119417781Y-58122860D01*
X119253920Y-58013371D01*
X119253907Y-58013364D01*
X119071839Y-57937950D01*
X119071829Y-57937947D01*
X118878543Y-57899500D01*
X118878541Y-57899500D01*
X118681459Y-57899500D01*
X118681457Y-57899500D01*
X118488170Y-57937947D01*
X118488160Y-57937950D01*
X118306092Y-58013364D01*
X118306079Y-58013371D01*
X118142218Y-58122860D01*
X118142214Y-58122863D01*
X118002863Y-58262214D01*
X118002860Y-58262218D01*
X117893371Y-58426079D01*
X117893364Y-58426092D01*
X117817950Y-58608160D01*
X117817947Y-58608170D01*
X117779500Y-58801456D01*
X117779500Y-58801459D01*
X117779500Y-58998541D01*
X117779500Y-58998543D01*
X117779499Y-58998543D01*
X112160500Y-58998543D01*
X112160500Y-58801456D01*
X112122052Y-58608170D01*
X112122051Y-58608169D01*
X112122051Y-58608165D01*
X112113117Y-58586596D01*
X112046635Y-58426092D01*
X112046628Y-58426079D01*
X111937139Y-58262218D01*
X111937136Y-58262214D01*
X111797785Y-58122863D01*
X111797781Y-58122860D01*
X111633920Y-58013371D01*
X111633907Y-58013364D01*
X111451839Y-57937950D01*
X111451829Y-57937947D01*
X111258543Y-57899500D01*
X111258541Y-57899500D01*
X111061459Y-57899500D01*
X111061457Y-57899500D01*
X110868170Y-57937947D01*
X110868160Y-57937950D01*
X110686092Y-58013364D01*
X110686079Y-58013371D01*
X110522218Y-58122860D01*
X110522214Y-58122863D01*
X110382863Y-58262214D01*
X110382860Y-58262218D01*
X110273371Y-58426079D01*
X110273364Y-58426092D01*
X110197950Y-58608160D01*
X110197947Y-58608170D01*
X110159500Y-58801456D01*
X110159500Y-58801459D01*
X110159500Y-58998541D01*
X110159500Y-58998543D01*
X110159499Y-58998543D01*
X91380033Y-58998543D01*
X91336553Y-58969490D01*
X91336541Y-58969483D01*
X91192757Y-58909928D01*
X91172667Y-58901606D01*
X91172658Y-58901603D01*
X90998694Y-58867000D01*
X90998691Y-58867000D01*
X90640373Y-58867000D01*
X90573334Y-58847315D01*
X90527579Y-58794511D01*
X90517635Y-58725353D01*
X90517900Y-58723602D01*
X90540000Y-58584070D01*
X90540000Y-58410928D01*
X90512914Y-58239915D01*
X90459408Y-58075242D01*
X90380801Y-57920971D01*
X90376290Y-57914762D01*
X90376289Y-57914761D01*
X89790000Y-58501051D01*
X89790000Y-58451422D01*
X89766148Y-58362405D01*
X89720070Y-58282595D01*
X89654905Y-58217430D01*
X89575095Y-58171352D01*
X89486078Y-58147500D01*
X89393922Y-58147500D01*
X89304905Y-58171352D01*
X89225095Y-58217430D01*
X89159930Y-58282595D01*
X89113852Y-58362405D01*
X89090000Y-58451422D01*
X89090000Y-58501052D01*
X88503709Y-57914761D01*
X88503708Y-57914761D01*
X88499203Y-57920963D01*
X88499193Y-57920980D01*
X88420592Y-58075240D01*
X88367085Y-58239915D01*
X88340000Y-58410928D01*
X88340000Y-58584070D01*
X88362100Y-58723602D01*
X88353146Y-58792895D01*
X88308150Y-58846347D01*
X88241398Y-58866987D01*
X88239627Y-58867000D01*
X88081306Y-58867000D01*
X87907341Y-58901603D01*
X87907332Y-58901606D01*
X87743459Y-58969483D01*
X87743446Y-58969490D01*
X87595965Y-59068035D01*
X87595961Y-59068038D01*
X87470538Y-59193461D01*
X87470535Y-59193465D01*
X87371990Y-59340946D01*
X87371983Y-59340959D01*
X87304106Y-59504832D01*
X87304103Y-59504841D01*
X87269500Y-59678804D01*
X50500500Y-59678804D01*
X50500500Y-57561208D01*
X88857261Y-57561208D01*
X88857261Y-57561209D01*
X89440000Y-58143946D01*
X89440001Y-58143946D01*
X90022737Y-57561209D01*
X90016525Y-57556696D01*
X89862259Y-57478092D01*
X89697584Y-57424585D01*
X89526571Y-57397500D01*
X89353429Y-57397500D01*
X89182415Y-57424585D01*
X89017740Y-57478092D01*
X88863480Y-57556693D01*
X88863463Y-57556703D01*
X88857261Y-57561208D01*
X50500500Y-57561208D01*
X50500500Y-55647682D01*
X99870000Y-55647682D01*
X99870000Y-55852317D01*
X99902009Y-56054417D01*
X99965244Y-56249031D01*
X100058141Y-56431350D01*
X100058147Y-56431359D01*
X100090523Y-56475921D01*
X100090524Y-56475922D01*
X100770000Y-55796446D01*
X100770000Y-55802661D01*
X100797259Y-55904394D01*
X100849920Y-55995606D01*
X100924394Y-56070080D01*
X101015606Y-56122741D01*
X101117339Y-56150000D01*
X101123553Y-56150000D01*
X100444076Y-56829474D01*
X100488650Y-56861859D01*
X100670968Y-56954755D01*
X100865582Y-57017990D01*
X101067683Y-57050000D01*
X101272317Y-57050000D01*
X101474417Y-57017990D01*
X101669031Y-56954755D01*
X101851349Y-56861859D01*
X101895921Y-56829474D01*
X101624990Y-56558543D01*
X115369499Y-56558543D01*
X115407947Y-56751829D01*
X115407950Y-56751839D01*
X115483364Y-56933907D01*
X115483371Y-56933920D01*
X115592860Y-57097781D01*
X115592863Y-57097785D01*
X115732214Y-57237136D01*
X115732218Y-57237139D01*
X115896079Y-57346628D01*
X115896092Y-57346635D01*
X116054025Y-57412052D01*
X116078165Y-57422051D01*
X116078169Y-57422051D01*
X116078170Y-57422052D01*
X116271456Y-57460500D01*
X116271459Y-57460500D01*
X116468543Y-57460500D01*
X116598582Y-57434632D01*
X116661835Y-57422051D01*
X116843914Y-57346632D01*
X117007782Y-57237139D01*
X117147139Y-57097782D01*
X117256632Y-56933914D01*
X117332051Y-56751835D01*
X117370500Y-56558541D01*
X117370500Y-56548543D01*
X117819499Y-56548543D01*
X117857947Y-56741829D01*
X117857950Y-56741839D01*
X117933364Y-56923907D01*
X117933371Y-56923920D01*
X118042860Y-57087781D01*
X118042863Y-57087785D01*
X118182214Y-57227136D01*
X118182218Y-57227139D01*
X118346079Y-57336628D01*
X118346092Y-57336635D01*
X118528160Y-57412049D01*
X118528165Y-57412051D01*
X118528169Y-57412051D01*
X118528170Y-57412052D01*
X118721456Y-57450500D01*
X118721459Y-57450500D01*
X118918543Y-57450500D01*
X119061572Y-57422049D01*
X119111835Y-57412051D01*
X119252655Y-57353721D01*
X119293907Y-57336635D01*
X119293907Y-57336634D01*
X119293914Y-57336632D01*
X119457782Y-57227139D01*
X119597139Y-57087782D01*
X119706632Y-56923914D01*
X119782051Y-56741835D01*
X119794632Y-56678582D01*
X119820500Y-56548543D01*
X119820500Y-56351456D01*
X119782052Y-56158170D01*
X119782051Y-56158169D01*
X119782051Y-56158165D01*
X119759430Y-56103553D01*
X119706635Y-55976092D01*
X119706628Y-55976079D01*
X119597139Y-55812218D01*
X119597136Y-55812214D01*
X119457785Y-55672863D01*
X119457781Y-55672860D01*
X119293920Y-55563371D01*
X119293907Y-55563364D01*
X119111839Y-55487950D01*
X119111829Y-55487947D01*
X118918543Y-55449500D01*
X118918541Y-55449500D01*
X118721459Y-55449500D01*
X118721457Y-55449500D01*
X118528170Y-55487947D01*
X118528160Y-55487950D01*
X118346092Y-55563364D01*
X118346079Y-55563371D01*
X118182218Y-55672860D01*
X118182214Y-55672863D01*
X118042863Y-55812214D01*
X118042860Y-55812218D01*
X117933371Y-55976079D01*
X117933364Y-55976092D01*
X117857950Y-56158160D01*
X117857947Y-56158170D01*
X117819500Y-56351456D01*
X117819500Y-56351459D01*
X117819500Y-56548541D01*
X117819500Y-56548543D01*
X117819499Y-56548543D01*
X117370500Y-56548543D01*
X117370500Y-56361459D01*
X117368510Y-56351456D01*
X117332052Y-56168170D01*
X117332051Y-56168169D01*
X117332051Y-56168165D01*
X117291423Y-56070080D01*
X117256635Y-55986092D01*
X117256628Y-55986079D01*
X117147139Y-55822218D01*
X117147136Y-55822214D01*
X117007785Y-55682863D01*
X117007781Y-55682860D01*
X116843920Y-55573371D01*
X116843907Y-55573364D01*
X116661839Y-55497950D01*
X116661829Y-55497947D01*
X116468543Y-55459500D01*
X116468541Y-55459500D01*
X116271459Y-55459500D01*
X116271457Y-55459500D01*
X116078170Y-55497947D01*
X116078160Y-55497950D01*
X115896092Y-55573364D01*
X115896079Y-55573371D01*
X115732218Y-55682860D01*
X115732214Y-55682863D01*
X115592863Y-55822214D01*
X115592860Y-55822218D01*
X115483371Y-55986079D01*
X115483364Y-55986092D01*
X115407950Y-56168160D01*
X115407947Y-56168170D01*
X115369500Y-56361456D01*
X115369500Y-56361459D01*
X115369500Y-56558541D01*
X115369500Y-56558543D01*
X115369499Y-56558543D01*
X101624990Y-56558543D01*
X101216447Y-56150000D01*
X101222661Y-56150000D01*
X101324394Y-56122741D01*
X101415606Y-56070080D01*
X101490080Y-55995606D01*
X101542741Y-55904394D01*
X101570000Y-55802661D01*
X101570000Y-55796447D01*
X102249474Y-56475921D01*
X102281859Y-56431349D01*
X102349258Y-56299072D01*
X102374755Y-56249031D01*
X102437990Y-56054417D01*
X102470000Y-55852317D01*
X102470000Y-55647682D01*
X102437990Y-55445582D01*
X102374755Y-55250968D01*
X102281859Y-55068650D01*
X102249474Y-55024077D01*
X102249474Y-55024076D01*
X101570000Y-55703551D01*
X101570000Y-55697339D01*
X101542741Y-55595606D01*
X101490080Y-55504394D01*
X101415606Y-55429920D01*
X101324394Y-55377259D01*
X101222661Y-55350000D01*
X101216446Y-55350000D01*
X101895922Y-54670524D01*
X101895921Y-54670523D01*
X101851359Y-54638147D01*
X101851350Y-54638141D01*
X101669031Y-54545244D01*
X101474417Y-54482009D01*
X101272317Y-54450000D01*
X101067683Y-54450000D01*
X100865582Y-54482009D01*
X100670968Y-54545244D01*
X100488644Y-54638143D01*
X100444077Y-54670523D01*
X100444077Y-54670524D01*
X101123554Y-55350000D01*
X101117339Y-55350000D01*
X101015606Y-55377259D01*
X100924394Y-55429920D01*
X100849920Y-55504394D01*
X100797259Y-55595606D01*
X100770000Y-55697339D01*
X100770000Y-55703553D01*
X100090524Y-55024077D01*
X100090523Y-55024077D01*
X100058143Y-55068644D01*
X99965244Y-55250968D01*
X99902009Y-55445582D01*
X99870000Y-55647682D01*
X50500500Y-55647682D01*
X50500500Y-53213389D01*
X102519500Y-53213389D01*
X102519500Y-53386611D01*
X102546598Y-53557701D01*
X102600127Y-53722445D01*
X102678768Y-53876788D01*
X102780586Y-54016928D01*
X102903072Y-54139414D01*
X103043212Y-54241232D01*
X103197555Y-54319873D01*
X103362299Y-54373402D01*
X103533389Y-54400500D01*
X103533390Y-54400500D01*
X103706610Y-54400500D01*
X103706611Y-54400500D01*
X103877701Y-54373402D01*
X104042445Y-54319873D01*
X104196788Y-54241232D01*
X104336928Y-54139414D01*
X104459414Y-54016928D01*
X104561232Y-53876788D01*
X104639873Y-53722445D01*
X104693402Y-53557701D01*
X104720500Y-53386611D01*
X104720500Y-53213389D01*
X112679500Y-53213389D01*
X112679500Y-53386611D01*
X112706598Y-53557701D01*
X112760127Y-53722445D01*
X112838768Y-53876788D01*
X112940586Y-54016928D01*
X113063072Y-54139414D01*
X113203212Y-54241232D01*
X113357555Y-54319873D01*
X113522299Y-54373402D01*
X113693389Y-54400500D01*
X113693390Y-54400500D01*
X113866610Y-54400500D01*
X113866611Y-54400500D01*
X114037701Y-54373402D01*
X114202445Y-54319873D01*
X114356788Y-54241232D01*
X114496928Y-54139414D01*
X114619414Y-54016928D01*
X114721232Y-53876788D01*
X114799873Y-53722445D01*
X114853402Y-53557701D01*
X114880500Y-53386611D01*
X114880500Y-53213389D01*
X114853402Y-53042299D01*
X114799873Y-52877555D01*
X114721232Y-52723212D01*
X114619414Y-52583072D01*
X114496928Y-52460586D01*
X114356788Y-52358768D01*
X114202445Y-52280127D01*
X114037701Y-52226598D01*
X114037699Y-52226597D01*
X114037698Y-52226597D01*
X113906271Y-52205781D01*
X113866611Y-52199500D01*
X113693389Y-52199500D01*
X113653728Y-52205781D01*
X113522302Y-52226597D01*
X113357552Y-52280128D01*
X113203211Y-52358768D01*
X113123256Y-52416859D01*
X113063072Y-52460586D01*
X113063070Y-52460588D01*
X113063069Y-52460588D01*
X112940588Y-52583069D01*
X112940588Y-52583070D01*
X112940586Y-52583072D01*
X112896859Y-52643256D01*
X112838768Y-52723211D01*
X112760128Y-52877552D01*
X112706597Y-53042302D01*
X112705299Y-53050500D01*
X112679500Y-53213389D01*
X104720500Y-53213389D01*
X104693402Y-53042299D01*
X104639873Y-52877555D01*
X104561232Y-52723212D01*
X104459414Y-52583072D01*
X104336928Y-52460586D01*
X104196788Y-52358768D01*
X104042445Y-52280127D01*
X103877701Y-52226598D01*
X103877699Y-52226597D01*
X103877698Y-52226597D01*
X103746271Y-52205781D01*
X103706611Y-52199500D01*
X103533389Y-52199500D01*
X103493728Y-52205781D01*
X103362302Y-52226597D01*
X103197552Y-52280128D01*
X103043211Y-52358768D01*
X102963256Y-52416859D01*
X102903072Y-52460586D01*
X102903070Y-52460588D01*
X102903069Y-52460588D01*
X102780588Y-52583069D01*
X102780588Y-52583070D01*
X102780586Y-52583072D01*
X102736859Y-52643256D01*
X102678768Y-52723211D01*
X102600128Y-52877552D01*
X102546597Y-53042302D01*
X102545299Y-53050500D01*
X102519500Y-53213389D01*
X50500500Y-53213389D01*
X50500500Y-51863389D01*
X100069500Y-51863389D01*
X100069500Y-52036611D01*
X100096598Y-52207701D01*
X100150127Y-52372445D01*
X100228768Y-52526788D01*
X100330586Y-52666928D01*
X100453072Y-52789414D01*
X100593212Y-52891232D01*
X100747555Y-52969873D01*
X100912299Y-53023402D01*
X101083389Y-53050500D01*
X101083390Y-53050500D01*
X101256610Y-53050500D01*
X101256611Y-53050500D01*
X101427701Y-53023402D01*
X101592445Y-52969873D01*
X101746788Y-52891232D01*
X101886928Y-52789414D01*
X102009414Y-52666928D01*
X102111232Y-52526788D01*
X102189873Y-52372445D01*
X102243402Y-52207701D01*
X102270500Y-52036611D01*
X102270500Y-51863389D01*
X102243402Y-51692299D01*
X102189873Y-51527555D01*
X102111232Y-51373212D01*
X102009414Y-51233072D01*
X101886928Y-51110586D01*
X101746788Y-51008768D01*
X101592445Y-50930127D01*
X101427701Y-50876598D01*
X101427699Y-50876597D01*
X101427698Y-50876597D01*
X101296271Y-50855781D01*
X101256611Y-50849500D01*
X101083389Y-50849500D01*
X101043728Y-50855781D01*
X100912302Y-50876597D01*
X100747552Y-50930128D01*
X100593211Y-51008768D01*
X100513256Y-51066859D01*
X100453072Y-51110586D01*
X100453070Y-51110588D01*
X100453069Y-51110588D01*
X100330588Y-51233069D01*
X100330588Y-51233070D01*
X100330586Y-51233072D01*
X100286859Y-51293256D01*
X100228768Y-51373211D01*
X100150128Y-51527552D01*
X100096597Y-51692302D01*
X100069500Y-51863389D01*
X50500500Y-51863389D01*
X50500500Y-49688443D01*
X89319500Y-49688443D01*
X89319500Y-49846557D01*
X89344504Y-49939871D01*
X89360423Y-49999283D01*
X89360426Y-49999290D01*
X89439475Y-50136209D01*
X89439479Y-50136214D01*
X89439480Y-50136216D01*
X89551284Y-50248020D01*
X89551286Y-50248021D01*
X89551290Y-50248024D01*
X89688209Y-50327073D01*
X89688216Y-50327077D01*
X89840943Y-50368000D01*
X89840945Y-50368000D01*
X89999055Y-50368000D01*
X89999057Y-50368000D01*
X90151784Y-50327077D01*
X90288716Y-50248020D01*
X90400520Y-50136216D01*
X90479577Y-49999284D01*
X90520500Y-49846557D01*
X90520500Y-49688443D01*
X90479577Y-49535716D01*
X90446129Y-49477781D01*
X90400524Y-49398790D01*
X90400518Y-49398782D01*
X90288717Y-49286981D01*
X90288709Y-49286975D01*
X90151790Y-49207926D01*
X90151786Y-49207924D01*
X90151784Y-49207923D01*
X89999057Y-49167000D01*
X89840943Y-49167000D01*
X89688216Y-49207923D01*
X89688209Y-49207926D01*
X89551290Y-49286975D01*
X89551282Y-49286981D01*
X89439481Y-49398782D01*
X89439475Y-49398790D01*
X89360426Y-49535709D01*
X89360423Y-49535716D01*
X89319500Y-49688443D01*
X50500500Y-49688443D01*
X50500500Y-48475889D01*
X100069500Y-48475889D01*
X100069500Y-48649111D01*
X100096598Y-48820201D01*
X100150127Y-48984945D01*
X100228768Y-49139288D01*
X100330586Y-49279428D01*
X100453072Y-49401914D01*
X100593212Y-49503732D01*
X100747555Y-49582373D01*
X100912299Y-49635902D01*
X101083389Y-49663000D01*
X101083390Y-49663000D01*
X101256610Y-49663000D01*
X101256611Y-49663000D01*
X101427701Y-49635902D01*
X101592445Y-49582373D01*
X101746788Y-49503732D01*
X101886928Y-49401914D01*
X102009414Y-49279428D01*
X102111232Y-49139288D01*
X102189873Y-48984945D01*
X102204950Y-48938543D01*
X115369499Y-48938543D01*
X115407947Y-49131829D01*
X115407950Y-49131839D01*
X115483364Y-49313907D01*
X115483371Y-49313920D01*
X115592860Y-49477781D01*
X115592863Y-49477785D01*
X115732214Y-49617136D01*
X115732218Y-49617139D01*
X115896079Y-49726628D01*
X115896092Y-49726635D01*
X116054025Y-49792052D01*
X116078165Y-49802051D01*
X116078169Y-49802051D01*
X116078170Y-49802052D01*
X116271456Y-49840500D01*
X116271459Y-49840500D01*
X116468543Y-49840500D01*
X116598582Y-49814632D01*
X116661835Y-49802051D01*
X116843914Y-49726632D01*
X117007782Y-49617139D01*
X117147139Y-49477782D01*
X117256632Y-49313914D01*
X117332051Y-49131835D01*
X117370500Y-48938541D01*
X117370500Y-48928543D01*
X117819499Y-48928543D01*
X117857947Y-49121829D01*
X117857950Y-49121839D01*
X117933364Y-49303907D01*
X117933371Y-49303920D01*
X118042860Y-49467781D01*
X118042863Y-49467785D01*
X118182214Y-49607136D01*
X118182218Y-49607139D01*
X118346079Y-49716628D01*
X118346092Y-49716635D01*
X118528160Y-49792049D01*
X118528165Y-49792051D01*
X118528169Y-49792051D01*
X118528170Y-49792052D01*
X118721456Y-49830500D01*
X118721459Y-49830500D01*
X118918543Y-49830500D01*
X119061572Y-49802049D01*
X119111835Y-49792051D01*
X119252655Y-49733721D01*
X119293907Y-49716635D01*
X119293907Y-49716634D01*
X119293914Y-49716632D01*
X119457782Y-49607139D01*
X119597139Y-49467782D01*
X119706632Y-49303914D01*
X119782051Y-49121835D01*
X119809280Y-48984947D01*
X119820500Y-48928543D01*
X119820500Y-48833389D01*
X120619500Y-48833389D01*
X120619500Y-49006610D01*
X120639333Y-49131835D01*
X120646598Y-49177701D01*
X120700127Y-49342445D01*
X120778768Y-49496788D01*
X120880586Y-49636928D01*
X121003072Y-49759414D01*
X121143212Y-49861232D01*
X121297555Y-49939873D01*
X121462299Y-49993402D01*
X121633389Y-50020500D01*
X121633390Y-50020500D01*
X121806610Y-50020500D01*
X121806611Y-50020500D01*
X121977701Y-49993402D01*
X122142445Y-49939873D01*
X122296788Y-49861232D01*
X122436928Y-49759414D01*
X122559414Y-49636928D01*
X122661232Y-49496788D01*
X122739873Y-49342445D01*
X122793402Y-49177701D01*
X122820500Y-49006611D01*
X122820500Y-48833389D01*
X122793402Y-48662299D01*
X122739873Y-48497555D01*
X122661232Y-48343212D01*
X122559414Y-48203072D01*
X122436928Y-48080586D01*
X122296788Y-47978768D01*
X122142445Y-47900127D01*
X121977701Y-47846598D01*
X121977699Y-47846597D01*
X121977698Y-47846597D01*
X121846271Y-47825781D01*
X121806611Y-47819500D01*
X121633389Y-47819500D01*
X121593728Y-47825781D01*
X121462302Y-47846597D01*
X121297552Y-47900128D01*
X121143211Y-47978768D01*
X121133654Y-47985712D01*
X121003072Y-48080586D01*
X121003070Y-48080588D01*
X121003069Y-48080588D01*
X120880588Y-48203069D01*
X120880588Y-48203070D01*
X120880586Y-48203072D01*
X120836859Y-48263256D01*
X120778768Y-48343211D01*
X120700128Y-48497552D01*
X120646597Y-48662302D01*
X120619500Y-48833389D01*
X119820500Y-48833389D01*
X119820500Y-48731456D01*
X119782052Y-48538170D01*
X119782051Y-48538169D01*
X119782051Y-48538165D01*
X119710777Y-48366092D01*
X119706635Y-48356092D01*
X119706628Y-48356079D01*
X119597139Y-48192218D01*
X119597136Y-48192214D01*
X119457785Y-48052863D01*
X119457781Y-48052860D01*
X119293920Y-47943371D01*
X119293907Y-47943364D01*
X119111839Y-47867950D01*
X119111829Y-47867947D01*
X118918543Y-47829500D01*
X118918541Y-47829500D01*
X118721459Y-47829500D01*
X118721457Y-47829500D01*
X118528170Y-47867947D01*
X118528160Y-47867950D01*
X118346092Y-47943364D01*
X118346079Y-47943371D01*
X118182218Y-48052860D01*
X118182214Y-48052863D01*
X118042863Y-48192214D01*
X118042860Y-48192218D01*
X117933371Y-48356079D01*
X117933364Y-48356092D01*
X117857950Y-48538160D01*
X117857947Y-48538170D01*
X117819500Y-48731456D01*
X117819500Y-48731459D01*
X117819500Y-48928541D01*
X117819500Y-48928543D01*
X117819499Y-48928543D01*
X117370500Y-48928543D01*
X117370500Y-48741459D01*
X117368510Y-48731456D01*
X117332052Y-48548170D01*
X117332051Y-48548169D01*
X117332051Y-48548165D01*
X117302114Y-48475889D01*
X117256635Y-48366092D01*
X117256628Y-48366079D01*
X117147139Y-48202218D01*
X117147136Y-48202214D01*
X117007785Y-48062863D01*
X117007781Y-48062860D01*
X116843920Y-47953371D01*
X116843907Y-47953364D01*
X116661839Y-47877950D01*
X116661829Y-47877947D01*
X116468543Y-47839500D01*
X116468541Y-47839500D01*
X116271459Y-47839500D01*
X116271457Y-47839500D01*
X116078170Y-47877947D01*
X116078160Y-47877950D01*
X115896092Y-47953364D01*
X115896079Y-47953371D01*
X115732218Y-48062860D01*
X115732214Y-48062863D01*
X115592863Y-48202214D01*
X115592860Y-48202218D01*
X115483371Y-48366079D01*
X115483364Y-48366092D01*
X115407950Y-48548160D01*
X115407947Y-48548170D01*
X115369500Y-48741456D01*
X115369500Y-48741459D01*
X115369500Y-48938541D01*
X115369500Y-48938543D01*
X115369499Y-48938543D01*
X102204950Y-48938543D01*
X102243402Y-48820201D01*
X102270500Y-48649111D01*
X102270500Y-48475889D01*
X102243402Y-48304799D01*
X102189873Y-48140055D01*
X102111232Y-47985712D01*
X102009414Y-47845572D01*
X101886928Y-47723086D01*
X101746788Y-47621268D01*
X101592445Y-47542627D01*
X101427701Y-47489098D01*
X101427699Y-47489097D01*
X101427698Y-47489097D01*
X101296271Y-47468281D01*
X101256611Y-47462000D01*
X101083389Y-47462000D01*
X101043728Y-47468281D01*
X100912302Y-47489097D01*
X100747552Y-47542628D01*
X100593211Y-47621268D01*
X100513256Y-47679359D01*
X100453072Y-47723086D01*
X100453070Y-47723088D01*
X100453069Y-47723088D01*
X100330588Y-47845569D01*
X100330588Y-47845570D01*
X100330586Y-47845572D01*
X100307064Y-47877947D01*
X100228768Y-47985711D01*
X100150128Y-48140052D01*
X100096597Y-48304802D01*
X100090514Y-48343211D01*
X100069500Y-48475889D01*
X50500500Y-48475889D01*
X50500500Y-44619071D01*
X95294499Y-44619071D01*
X95319497Y-44744738D01*
X95319499Y-44744744D01*
X95368533Y-44863124D01*
X95368538Y-44863133D01*
X95439723Y-44969668D01*
X95439726Y-44969672D01*
X95530327Y-45060273D01*
X95530331Y-45060276D01*
X95636866Y-45131461D01*
X95636872Y-45131464D01*
X95636873Y-45131465D01*
X95755256Y-45180501D01*
X95755260Y-45180501D01*
X95755261Y-45180502D01*
X95880928Y-45205500D01*
X95880931Y-45205500D01*
X96009071Y-45205500D01*
X96112403Y-45184945D01*
X96134744Y-45180501D01*
X96253127Y-45131465D01*
X96359669Y-45060276D01*
X96450276Y-44969669D01*
X96521465Y-44863127D01*
X96570501Y-44744744D01*
X96581054Y-44691691D01*
X96584197Y-44675889D01*
X100069500Y-44675889D01*
X100069500Y-44849111D01*
X100071720Y-44863127D01*
X100088594Y-44969669D01*
X100096598Y-45020201D01*
X100150127Y-45184945D01*
X100228768Y-45339288D01*
X100330586Y-45479428D01*
X100453072Y-45601914D01*
X100593212Y-45703732D01*
X100747555Y-45782373D01*
X100912299Y-45835902D01*
X101083389Y-45863000D01*
X101083390Y-45863000D01*
X101256610Y-45863000D01*
X101256611Y-45863000D01*
X101427701Y-45835902D01*
X101592445Y-45782373D01*
X101746788Y-45703732D01*
X101886928Y-45601914D01*
X102009414Y-45479428D01*
X102111232Y-45339288D01*
X102189873Y-45184945D01*
X102243402Y-45020201D01*
X102270500Y-44849111D01*
X102270500Y-44675889D01*
X102243402Y-44504799D01*
X102189873Y-44340055D01*
X102111232Y-44185712D01*
X102009414Y-44045572D01*
X101886928Y-43923086D01*
X101746788Y-43821268D01*
X101592445Y-43742627D01*
X101427701Y-43689098D01*
X101427699Y-43689097D01*
X101427698Y-43689097D01*
X101296271Y-43668281D01*
X101256611Y-43662000D01*
X101083389Y-43662000D01*
X101043728Y-43668281D01*
X100912302Y-43689097D01*
X100747552Y-43742628D01*
X100593211Y-43821268D01*
X100513256Y-43879359D01*
X100453072Y-43923086D01*
X100453070Y-43923088D01*
X100453069Y-43923088D01*
X100330588Y-44045569D01*
X100330588Y-44045570D01*
X100330586Y-44045572D01*
X100327568Y-44049726D01*
X100228768Y-44185711D01*
X100150128Y-44340052D01*
X100096597Y-44504802D01*
X100078499Y-44619069D01*
X100069500Y-44675889D01*
X96584197Y-44675889D01*
X96589979Y-44646825D01*
X96589979Y-44646824D01*
X96595500Y-44619070D01*
X96595500Y-44490928D01*
X96570502Y-44365261D01*
X96570501Y-44365260D01*
X96570501Y-44365256D01*
X96521465Y-44246873D01*
X96521464Y-44246872D01*
X96521461Y-44246866D01*
X96450276Y-44140331D01*
X96450273Y-44140327D01*
X96359672Y-44049726D01*
X96359668Y-44049723D01*
X96253133Y-43978538D01*
X96253124Y-43978533D01*
X96134744Y-43929499D01*
X96134738Y-43929497D01*
X96009071Y-43904500D01*
X96009069Y-43904500D01*
X95880931Y-43904500D01*
X95880929Y-43904500D01*
X95755261Y-43929497D01*
X95755255Y-43929499D01*
X95636875Y-43978533D01*
X95636866Y-43978538D01*
X95530331Y-44049723D01*
X95530327Y-44049726D01*
X95439726Y-44140327D01*
X95439723Y-44140331D01*
X95368538Y-44246866D01*
X95368533Y-44246875D01*
X95319499Y-44365255D01*
X95319497Y-44365261D01*
X95294500Y-44490928D01*
X95294500Y-44490931D01*
X95294500Y-44619069D01*
X95294500Y-44619071D01*
X95294499Y-44619071D01*
X50500500Y-44619071D01*
X50500500Y-33862332D01*
X51899500Y-33862332D01*
X51899500Y-34137667D01*
X51899501Y-34137684D01*
X51935438Y-34410655D01*
X51935439Y-34410660D01*
X51935440Y-34410666D01*
X51935441Y-34410668D01*
X52006704Y-34676630D01*
X52112075Y-34931017D01*
X52112080Y-34931028D01*
X52194861Y-35074407D01*
X52249751Y-35169479D01*
X52249753Y-35169482D01*
X52249754Y-35169483D01*
X52417370Y-35387926D01*
X52417376Y-35387933D01*
X52612066Y-35582623D01*
X52612072Y-35582628D01*
X52830521Y-35750249D01*
X52983778Y-35838732D01*
X53068971Y-35887919D01*
X53068976Y-35887921D01*
X53068979Y-35887923D01*
X53323368Y-35993295D01*
X53589334Y-36064560D01*
X53862326Y-36100500D01*
X53862333Y-36100500D01*
X54137667Y-36100500D01*
X54137674Y-36100500D01*
X54410666Y-36064560D01*
X54676632Y-35993295D01*
X54931021Y-35887923D01*
X55169479Y-35750249D01*
X55387928Y-35582628D01*
X55582628Y-35387928D01*
X55750249Y-35169479D01*
X55887923Y-34931021D01*
X55993295Y-34676632D01*
X56064560Y-34410666D01*
X56100500Y-34137674D01*
X56100500Y-33862332D01*
X143899500Y-33862332D01*
X143899500Y-34137667D01*
X143899501Y-34137684D01*
X143935438Y-34410655D01*
X143935439Y-34410660D01*
X143935440Y-34410666D01*
X143935441Y-34410668D01*
X144006704Y-34676630D01*
X144112075Y-34931017D01*
X144112080Y-34931028D01*
X144194861Y-35074407D01*
X144249751Y-35169479D01*
X144249753Y-35169482D01*
X144249754Y-35169483D01*
X144417370Y-35387926D01*
X144417376Y-35387933D01*
X144612066Y-35582623D01*
X144612072Y-35582628D01*
X144830521Y-35750249D01*
X144983778Y-35838732D01*
X145068971Y-35887919D01*
X145068976Y-35887921D01*
X145068979Y-35887923D01*
X145323368Y-35993295D01*
X145589334Y-36064560D01*
X145862326Y-36100500D01*
X145862333Y-36100500D01*
X146137667Y-36100500D01*
X146137674Y-36100500D01*
X146410666Y-36064560D01*
X146676632Y-35993295D01*
X146931021Y-35887923D01*
X147169479Y-35750249D01*
X147387928Y-35582628D01*
X147582628Y-35387928D01*
X147750249Y-35169479D01*
X147887923Y-34931021D01*
X147993295Y-34676632D01*
X148064560Y-34410666D01*
X148100500Y-34137674D01*
X148100500Y-33862326D01*
X148064560Y-33589334D01*
X147993295Y-33323368D01*
X147887923Y-33068979D01*
X147887921Y-33068976D01*
X147887919Y-33068971D01*
X147838732Y-32983778D01*
X147750249Y-32830521D01*
X147582628Y-32612072D01*
X147582623Y-32612066D01*
X147387933Y-32417376D01*
X147387926Y-32417370D01*
X147169483Y-32249754D01*
X147169482Y-32249753D01*
X147169479Y-32249751D01*
X147074407Y-32194861D01*
X146931028Y-32112080D01*
X146931017Y-32112075D01*
X146676630Y-32006704D01*
X146543649Y-31971072D01*
X146410666Y-31935440D01*
X146410660Y-31935439D01*
X146410655Y-31935438D01*
X146137684Y-31899501D01*
X146137679Y-31899500D01*
X146137674Y-31899500D01*
X145862326Y-31899500D01*
X145862320Y-31899500D01*
X145862315Y-31899501D01*
X145589344Y-31935438D01*
X145589337Y-31935439D01*
X145589334Y-31935440D01*
X145533125Y-31950500D01*
X145323369Y-32006704D01*
X145068982Y-32112075D01*
X145068971Y-32112080D01*
X144830516Y-32249754D01*
X144612073Y-32417370D01*
X144612066Y-32417376D01*
X144417376Y-32612066D01*
X144417370Y-32612073D01*
X144249754Y-32830516D01*
X144112080Y-33068971D01*
X144112075Y-33068982D01*
X144006704Y-33323369D01*
X143935441Y-33589331D01*
X143935438Y-33589344D01*
X143899501Y-33862315D01*
X143899500Y-33862332D01*
X56100500Y-33862332D01*
X56100500Y-33862326D01*
X56064560Y-33589334D01*
X55993295Y-33323368D01*
X55887923Y-33068979D01*
X55887921Y-33068976D01*
X55887919Y-33068971D01*
X55838732Y-32983778D01*
X55750249Y-32830521D01*
X55582628Y-32612072D01*
X55582623Y-32612066D01*
X55387933Y-32417376D01*
X55387926Y-32417370D01*
X55169483Y-32249754D01*
X55169482Y-32249753D01*
X55169479Y-32249751D01*
X55074407Y-32194861D01*
X54931028Y-32112080D01*
X54931017Y-32112075D01*
X54676630Y-32006704D01*
X54543649Y-31971072D01*
X54410666Y-31935440D01*
X54410660Y-31935439D01*
X54410655Y-31935438D01*
X54137684Y-31899501D01*
X54137679Y-31899500D01*
X54137674Y-31899500D01*
X53862326Y-31899500D01*
X53862320Y-31899500D01*
X53862315Y-31899501D01*
X53589344Y-31935438D01*
X53589337Y-31935439D01*
X53589334Y-31935440D01*
X53533125Y-31950500D01*
X53323369Y-32006704D01*
X53068982Y-32112075D01*
X53068971Y-32112080D01*
X52830516Y-32249754D01*
X52612073Y-32417370D01*
X52612066Y-32417376D01*
X52417376Y-32612066D01*
X52417370Y-32612073D01*
X52249754Y-32830516D01*
X52112080Y-33068971D01*
X52112075Y-33068982D01*
X52006704Y-33323369D01*
X51935441Y-33589331D01*
X51935438Y-33589344D01*
X51899501Y-33862315D01*
X51899500Y-33862332D01*
X50500500Y-33862332D01*
X50500500Y-30624500D01*
X50520185Y-30557461D01*
X50572989Y-30511706D01*
X50624500Y-30500500D01*
X149375500Y-30500500D01*
X149442539Y-30520185D01*
G37*
%TD.AperFunction*%
%TD*%
M02*
