M48
; DRILL file KiCad 10.0.5 date 2026-08-12T11:50:04
; FORMAT={-:-/ absolute / metric / decimal}
; #@! TF.CreationDate,2026-08-12T11:50:04+02:00
; #@! TF.GenerationSoftware,Kicad,Pcbnew,10.0.5
; #@! TF.FileFunction,Plated,1,4,PTH
FMAT,2
METRIC
; #@! TA.AperFunction,Plated,PTH,ViaDrill
T1C0.300
; #@! TA.AperFunction,Plated,PTH,ViaDrill
T2C0.400
; #@! TA.AperFunction,Plated,PTH,ComponentDrill
T3C0.600
; #@! TA.AperFunction,Plated,PTH,ComponentDrill
T4C0.700
; #@! TA.AperFunction,Plated,PTH,ComponentDrill
T5C0.750
; #@! TA.AperFunction,Plated,PTH,ComponentDrill
T6C0.800
; #@! TA.AperFunction,Plated,PTH,ComponentDrill
T7C0.900
; #@! TA.AperFunction,Plated,PTH,ComponentDrill
T8C1.000
; #@! TA.AperFunction,Plated,PTH,ComponentDrill
T9C1.100
; #@! TA.AperFunction,Plated,PTH,ComponentDrill
T10C1.300
; #@! TA.AperFunction,Plated,PTH,ComponentDrill
T11C3.200
%
G90
G05
T1
X57.55Y-109.55
X60.75Y-107.8
X61.1Y-124.9
X62.0Y-113.0
X62.206Y-128.176
X62.4Y-121.95
X63.4Y-126.3
X63.45Y-123.8
X65.0Y-102.8
X65.35Y-112.5
X65.45Y-125.25
X66.5Y-100.85
X66.95Y-105.9
X67.05Y-118.55
X67.3Y-110.7
X67.75Y-122.25
X68.05Y-115.75
X68.166Y-104.798
X68.5Y-101.209
X69.25Y-125.25
X70.15Y-110.95
X70.6Y-105.5
X70.75Y-99.55
X71.284Y-118.328
X72.45Y-99.6
X72.6Y-105.55
X72.8Y-98.4
X73.5Y-114.5
X73.55Y-118.3
X73.9Y-102.2
X74.1Y-105.65
X74.1Y-109.45
X75.1Y-111.35
X76.0Y-117.5
X76.281Y-111.931
X77.15Y-119.65
X77.5Y-115.75
X78.15Y-100.3
X78.934Y-108.113
X80.125Y-105.825
X81.1Y-116.55
X82.6Y-86.0
X84.2Y-109.35
X87.05Y-81.55
X89.17Y-54.017
X89.92Y-49.767
X92.92Y-49.95
X93.17Y-45.95
X97.92Y-54.95
X106.65Y-103.15
X111.05Y-103.2
X116.85Y-112.4
X117.85Y-100.35
X120.3Y-105.15
X121.25Y-109.25
X121.85Y-105.15
X125.9Y-113.7
X125.982Y-56.175
X128.032Y-56.175
X130.65Y-52.2
X132.05Y-112.9
X132.25Y-115.2
X132.25Y-118.0
X136.85Y-119.0
X139.25Y-54.25
X139.25Y-59.5
T2
X54.0Y-41.5
X54.0Y-118.5
X71.75Y-38.75
X71.75Y-40.75
X71.75Y-42.75
X71.75Y-44.75
X71.75Y-46.75
X71.75Y-48.75
X71.75Y-50.75
X71.75Y-52.75
X71.75Y-54.75
X71.75Y-56.75
X71.75Y-58.75
X71.75Y-60.75
X71.75Y-62.75
X71.75Y-64.75
X71.75Y-66.75
X71.75Y-68.75
X71.75Y-70.75
X77.5Y-33.25
X77.5Y-77.25
X78.4Y-118.65
X79.5Y-33.25
X79.5Y-77.25
X81.5Y-33.25
X81.5Y-77.25
X83.5Y-33.25
X83.5Y-77.25
X83.9Y-124.25
X83.95Y-122.1
X85.5Y-33.25
X85.5Y-77.25
X87.5Y-33.25
X87.5Y-77.25
X89.5Y-33.25
X89.5Y-77.25
X91.5Y-33.25
X91.5Y-77.25
X93.5Y-33.25
X93.5Y-77.25
X95.5Y-33.25
X95.5Y-77.25
X95.945Y-44.555
X97.5Y-33.25
X97.5Y-77.25
X99.5Y-33.25
X99.5Y-77.25
X99.5Y-110.5
X100.5Y-110.5
X101.5Y-33.25
X101.5Y-77.25
X101.5Y-110.5
X103.25Y-110.5
X103.5Y-33.25
X103.5Y-77.25
X105.0Y-110.5
X105.5Y-33.25
X105.5Y-77.25
X106.0Y-110.5
X107.0Y-110.5
X107.5Y-33.25
X107.5Y-77.25
X109.5Y-33.25
X109.5Y-77.25
X111.5Y-33.25
X111.5Y-77.25
X113.5Y-33.25
X113.5Y-77.25
X115.5Y-33.25
X115.5Y-77.25
X117.5Y-33.25
X117.5Y-77.25
X117.7Y-108.7
X118.35Y-108.7
X118.7Y-104.8
X119.5Y-33.25
X119.5Y-77.25
X121.5Y-33.25
X121.5Y-77.25
X122.55Y-115.4
X122.7Y-111.55
X122.7Y-112.4
X123.5Y-33.25
X123.5Y-77.25
X125.5Y-33.25
X125.5Y-77.25
X127.5Y-33.25
X127.5Y-77.25
X129.5Y-33.25
X129.5Y-77.25
X131.5Y-77.25
X133.75Y-125.85
X136.75Y-40.25
X136.75Y-42.25
X136.75Y-44.25
X136.75Y-51.5
X136.75Y-53.5
X136.75Y-55.5
X136.75Y-57.5
X136.75Y-59.5
X136.75Y-61.5
X136.75Y-63.5
X136.75Y-65.5
X136.75Y-67.5
X136.75Y-69.5
X136.75Y-71.5
X146.25Y-118.5
T4
X88.17Y-59.767
X89.44Y-58.497
X89.44Y-61.037
X90.71Y-59.767
X111.16Y-58.9
X116.37Y-48.84
X116.37Y-56.46
X118.78Y-58.9
X118.82Y-48.83
X118.82Y-56.45
T5
X96.88Y-70.66
X98.15Y-70.66
X99.42Y-70.66
T6
X80.155Y-68.4
X82.155Y-68.4
X91.55Y-124.795
X91.55Y-126.795
X100.45Y-61.45
X100.45Y-63.45
X101.17Y-44.762
X101.17Y-48.562
X101.17Y-51.95
X101.17Y-55.75
X103.62Y-53.3
X113.78Y-53.3
X114.1Y-107.5
X116.1Y-107.5
X121.72Y-48.92
X121.72Y-59.08
X128.155Y-111.4
X130.155Y-111.4
T7
X83.55Y-96.432
X83.55Y-98.591
X83.55Y-100.75
X83.55Y-102.909
T8
X57.89Y-116.5
X60.43Y-116.5
X62.97Y-116.5
X65.51Y-116.5
X88.8Y-106.075
X88.8Y-108.615
X119.75Y-119.95
X119.75Y-123.75
X131.0Y-119.982
X131.0Y-123.782
X137.55Y-110.55
X137.55Y-114.35
T9
X80.27Y-126.7
X82.81Y-126.7
X85.35Y-126.7
X139.4Y-120.71
X139.4Y-123.25
X139.4Y-125.79
T10
X100.75Y-125.75
X105.75Y-125.75
T11
X54.0Y-34.0
X54.0Y-126.0
X73.75Y-35.25
X73.75Y-75.25
X134.75Y-35.25
X134.75Y-75.25
X146.0Y-34.0
X146.25Y-126.25
T3
X56.195Y-105.2G85X56.195Y-105.7
G05
X56.195Y-110.3G85X56.195Y-110.8
G05
M30
