%TF.GenerationSoftware,KiCad,Pcbnew,10.0.5*%
%TF.CreationDate,2026-08-21T17:35:10+02:00*%
%TF.ProjectId,LM399VoltageStandard,4c4d3339-3956-46f6-9c74-616765537461,rev?*%
%TF.SameCoordinates,Original*%
%TF.FileFunction,Paste,Top*%
%TF.FilePolarity,Positive*%
%FSLAX46Y46*%
G04 Gerber Fmt 4.6, Leading zero omitted, Abs format (unit mm)*
G04 Created by KiCad (PCBNEW 10.0.5) date 2026-08-21 17:35:10*
%MOMM*%
%LPD*%
G01*
G04 APERTURE LIST*
G04 Aperture macros list*
%AMRoundRect*
0 Rectangle with rounded corners*
0 $1 Rounding radius*
0 $2 $3 $4 $5 $6 $7 $8 $9 X,Y pos of 4 corners*
0 Add a 4 corners polygon primitive as box body*
4,1,4,$2,$3,$4,$5,$6,$7,$8,$9,$2,$3,0*
0 Add four circle primitives for the rounded corners*
1,1,$1+$1,$2,$3*
1,1,$1+$1,$4,$5*
1,1,$1+$1,$6,$7*
1,1,$1+$1,$8,$9*
0 Add four rect primitives between the rounded corners*
20,1,$1+$1,$2,$3,$4,$5,0*
20,1,$1+$1,$4,$5,$6,$7,0*
20,1,$1+$1,$6,$7,$8,$9,0*
20,1,$1+$1,$8,$9,$2,$3,0*%
G04 Aperture macros list end*
%ADD10RoundRect,0.225000X0.250000X-0.225000X0.250000X0.225000X-0.250000X0.225000X-0.250000X-0.225000X0*%
%ADD11RoundRect,0.250001X0.106066X0.813171X-0.813171X-0.106066X-0.106066X-0.813171X0.813171X0.106066X0*%
%ADD12RoundRect,0.160000X-0.160000X0.245000X-0.160000X-0.245000X0.160000X-0.245000X0.160000X0.245000X0*%
%ADD13RoundRect,0.093750X-0.106250X0.093750X-0.106250X-0.093750X0.106250X-0.093750X0.106250X0.093750X0*%
%ADD14RoundRect,0.250000X-0.262500X-0.450000X0.262500X-0.450000X0.262500X0.450000X-0.262500X0.450000X0*%
%ADD15RoundRect,0.200000X-0.200000X-0.275000X0.200000X-0.275000X0.200000X0.275000X-0.200000X0.275000X0*%
%ADD16RoundRect,0.250000X-0.650000X0.325000X-0.650000X-0.325000X0.650000X-0.325000X0.650000X0.325000X0*%
%ADD17RoundRect,0.250000X-0.450000X0.262500X-0.450000X-0.262500X0.450000X-0.262500X0.450000X0.262500X0*%
%ADD18RoundRect,0.225000X0.225000X0.250000X-0.225000X0.250000X-0.225000X-0.250000X0.225000X-0.250000X0*%
%ADD19RoundRect,0.075000X0.662500X0.075000X-0.662500X0.075000X-0.662500X-0.075000X0.662500X-0.075000X0*%
%ADD20RoundRect,0.075000X0.075000X0.662500X-0.075000X0.662500X-0.075000X-0.662500X0.075000X-0.662500X0*%
%ADD21RoundRect,0.150000X0.150000X-0.825000X0.150000X0.825000X-0.150000X0.825000X-0.150000X-0.825000X0*%
%ADD22RoundRect,0.200000X-0.275000X0.200000X-0.275000X-0.200000X0.275000X-0.200000X0.275000X0.200000X0*%
%ADD23RoundRect,0.225000X-0.225000X-0.250000X0.225000X-0.250000X0.225000X0.250000X-0.225000X0.250000X0*%
%ADD24RoundRect,0.225000X-0.250000X0.225000X-0.250000X-0.225000X0.250000X-0.225000X0.250000X0.225000X0*%
%ADD25RoundRect,0.200000X0.275000X-0.200000X0.275000X0.200000X-0.275000X0.200000X-0.275000X-0.200000X0*%
%ADD26RoundRect,0.200000X0.200000X0.275000X-0.200000X0.275000X-0.200000X-0.275000X0.200000X-0.275000X0*%
%ADD27RoundRect,0.218750X-0.218750X-0.256250X0.218750X-0.256250X0.218750X0.256250X-0.218750X0.256250X0*%
%ADD28RoundRect,0.250000X-0.475000X0.250000X-0.475000X-0.250000X0.475000X-0.250000X0.475000X0.250000X0*%
%ADD29RoundRect,0.087500X0.087500X-0.250000X0.087500X0.250000X-0.087500X0.250000X-0.087500X-0.250000X0*%
%ADD30RoundRect,0.250000X-0.625000X0.312500X-0.625000X-0.312500X0.625000X-0.312500X0.625000X0.312500X0*%
%ADD31RoundRect,0.249999X-1.535001X1.030001X-1.535001X-1.030001X1.535001X-1.030001X1.535001X1.030001X0*%
%ADD32RoundRect,0.225000X0.017678X-0.335876X0.335876X-0.017678X-0.017678X0.335876X-0.335876X0.017678X0*%
%ADD33RoundRect,0.150000X-0.512500X-0.150000X0.512500X-0.150000X0.512500X0.150000X-0.512500X0.150000X0*%
%ADD34RoundRect,0.150000X0.825000X0.150000X-0.825000X0.150000X-0.825000X-0.150000X0.825000X-0.150000X0*%
%ADD35RoundRect,0.250000X0.475000X-0.250000X0.475000X0.250000X-0.475000X0.250000X-0.475000X-0.250000X0*%
%ADD36RoundRect,0.225000X-0.335876X-0.017678X-0.017678X-0.335876X0.335876X0.017678X0.017678X0.335876X0*%
%ADD37RoundRect,0.100000X-0.550000X0.100000X-0.550000X-0.100000X0.550000X-0.100000X0.550000X0.100000X0*%
%ADD38RoundRect,0.250000X-0.250000X-0.475000X0.250000X-0.475000X0.250000X0.475000X-0.250000X0.475000X0*%
G04 APERTURE END LIST*
D10*
%TO.C,C39*%
X74000000Y-100300000D03*
X74000000Y-98750000D03*
%TD*%
D11*
%TO.C,Y1*%
X81410419Y-107797919D03*
X79854784Y-109353554D03*
X81056865Y-110555635D03*
X82612500Y-109000000D03*
%TD*%
D12*
%TO.C,U4*%
X80850000Y-118662500D03*
X80050000Y-118662500D03*
D13*
X81100000Y-117775000D03*
X80450000Y-117775000D03*
X79800000Y-117775000D03*
X79800000Y-119550000D03*
X80450000Y-119550000D03*
X81100000Y-119550000D03*
%TD*%
D14*
%TO.C,R17*%
X123457500Y-45325000D03*
X125282500Y-45325000D03*
%TD*%
D10*
%TO.C,C32*%
X70750000Y-102325000D03*
X70750000Y-100775000D03*
%TD*%
D15*
%TO.C,R18*%
X59375000Y-102800000D03*
X61025000Y-102800000D03*
%TD*%
D16*
%TO.C,C20*%
X130700000Y-47825000D03*
X130700000Y-50775000D03*
%TD*%
D17*
%TO.C,R7*%
X108670000Y-48875000D03*
X108670000Y-50700000D03*
%TD*%
D18*
%TO.C,C1*%
X95945000Y-45950000D03*
X94395000Y-45950000D03*
%TD*%
%TO.C,C10*%
X116550000Y-112500000D03*
X115000000Y-112500000D03*
%TD*%
D15*
%TO.C,R19*%
X62500000Y-102800000D03*
X64150000Y-102800000D03*
%TD*%
D19*
%TO.C,U7*%
X77012500Y-111200000D03*
X77012500Y-110700000D03*
X77012500Y-110200000D03*
X77012500Y-109700000D03*
X77012500Y-109200000D03*
X77012500Y-108700000D03*
X77012500Y-108200000D03*
X77012500Y-107700000D03*
X77012500Y-107200000D03*
X77012500Y-106700000D03*
X77012500Y-106200000D03*
X77012500Y-105700000D03*
D20*
X75600000Y-104287500D03*
X75100000Y-104287500D03*
X74600000Y-104287500D03*
X74100000Y-104287500D03*
X73600000Y-104287500D03*
X73100000Y-104287500D03*
X72600000Y-104287500D03*
X72100000Y-104287500D03*
X71600000Y-104287500D03*
X71100000Y-104287500D03*
X70600000Y-104287500D03*
X70100000Y-104287500D03*
D19*
X68687500Y-105700000D03*
X68687500Y-106200000D03*
X68687500Y-106700000D03*
X68687500Y-107200000D03*
X68687500Y-107700000D03*
X68687500Y-108200000D03*
X68687500Y-108700000D03*
X68687500Y-109200000D03*
X68687500Y-109700000D03*
X68687500Y-110200000D03*
X68687500Y-110700000D03*
X68687500Y-111200000D03*
D20*
X70100000Y-112612500D03*
X70600000Y-112612500D03*
X71100000Y-112612500D03*
X71600000Y-112612500D03*
X72100000Y-112612500D03*
X72600000Y-112612500D03*
X73100000Y-112612500D03*
X73600000Y-112612500D03*
X74100000Y-112612500D03*
X74600000Y-112612500D03*
X75100000Y-112612500D03*
X75600000Y-112612500D03*
%TD*%
D21*
%TO.C,U2*%
X94765000Y-52925000D03*
X96035000Y-52925000D03*
X97305000Y-52925000D03*
X98575000Y-52925000D03*
X98575000Y-47975000D03*
X97305000Y-47975000D03*
X96035000Y-47975000D03*
X94765000Y-47975000D03*
%TD*%
D22*
%TO.C,R11*%
X103670000Y-49375000D03*
X103670000Y-51025000D03*
%TD*%
D23*
%TO.C,C19*%
X111450000Y-112500000D03*
X113000000Y-112500000D03*
%TD*%
%TO.C,C18*%
X80725000Y-124250000D03*
X82275000Y-124250000D03*
%TD*%
D18*
%TO.C,C41*%
X77075000Y-98700000D03*
X75525000Y-98700000D03*
%TD*%
D24*
%TO.C,C30*%
X77500000Y-113225000D03*
X77500000Y-114775000D03*
%TD*%
D25*
%TO.C,R21*%
X73500000Y-117250000D03*
X73500000Y-115600000D03*
%TD*%
D26*
%TO.C,R25*%
X109825000Y-105000000D03*
X108175000Y-105000000D03*
%TD*%
D15*
%TO.C,R24*%
X108175000Y-103250000D03*
X109825000Y-103250000D03*
%TD*%
D25*
%TO.C,R20*%
X62000000Y-112025000D03*
X62000000Y-110375000D03*
%TD*%
D24*
%TO.C,C40*%
X76000000Y-114700000D03*
X76000000Y-116250000D03*
%TD*%
D22*
%TO.C,R13*%
X106170000Y-48875000D03*
X106170000Y-50525000D03*
%TD*%
D27*
%TO.C,FB1*%
X75525000Y-100300000D03*
X77100000Y-100300000D03*
%TD*%
D15*
%TO.C,R22*%
X69150000Y-115750000D03*
X70800000Y-115750000D03*
%TD*%
D17*
%TO.C,R8*%
X111220000Y-48925000D03*
X111220000Y-50750000D03*
%TD*%
D28*
%TO.C,C27*%
X84700000Y-118500000D03*
X84700000Y-120400000D03*
%TD*%
D29*
%TO.C,U10*%
X61400000Y-127300000D03*
X61900000Y-127300000D03*
X62400000Y-127300000D03*
X62400000Y-125875000D03*
X61900000Y-125875000D03*
X61400000Y-125875000D03*
%TD*%
D10*
%TO.C,C33*%
X72450000Y-102325000D03*
X72450000Y-100775000D03*
%TD*%
D30*
%TO.C,R6*%
X103670000Y-44737500D03*
X103670000Y-47662500D03*
%TD*%
D23*
%TO.C,C36*%
X66450000Y-125250000D03*
X68000000Y-125250000D03*
%TD*%
D31*
%TO.C,C22*%
X127032500Y-48450000D03*
X127032500Y-54000000D03*
%TD*%
D18*
%TO.C,C29*%
X68150000Y-112500000D03*
X66600000Y-112500000D03*
%TD*%
D32*
%TO.C,C34*%
X82714492Y-111698008D03*
X83810508Y-110601992D03*
%TD*%
D22*
%TO.C,R1*%
X90920000Y-51192500D03*
X90920000Y-52842500D03*
%TD*%
D18*
%TO.C,C2*%
X94600000Y-44300000D03*
X93050000Y-44300000D03*
%TD*%
%TO.C,C24*%
X78700000Y-120800000D03*
X77150000Y-120800000D03*
%TD*%
D33*
%TO.C,U8*%
X59750000Y-106850000D03*
X59750000Y-107800000D03*
X59750000Y-108750000D03*
X62025000Y-108750000D03*
X62025000Y-107800000D03*
X62025000Y-106850000D03*
%TD*%
D10*
%TO.C,C31*%
X68500000Y-103800000D03*
X68500000Y-102250000D03*
%TD*%
D34*
%TO.C,U9*%
X71225000Y-123655000D03*
X71225000Y-122385000D03*
X71225000Y-121115000D03*
X71225000Y-119845000D03*
X66275000Y-119845000D03*
X66275000Y-121115000D03*
X66275000Y-122385000D03*
X66275000Y-123655000D03*
%TD*%
D24*
%TO.C,C26*%
X82750000Y-118525000D03*
X82750000Y-120075000D03*
%TD*%
D35*
%TO.C,C38*%
X66500000Y-103750000D03*
X66500000Y-101850000D03*
%TD*%
D36*
%TO.C,C35*%
X82966484Y-106353984D03*
X84062500Y-107450000D03*
%TD*%
D10*
%TO.C,C21*%
X92920000Y-52817500D03*
X92920000Y-51267500D03*
%TD*%
D17*
%TO.C,R16*%
X121720000Y-51737500D03*
X121720000Y-53562500D03*
%TD*%
D10*
%TO.C,C37*%
X62400000Y-124550000D03*
X62400000Y-123000000D03*
%TD*%
D37*
%TO.C,J2*%
X56245000Y-106700000D03*
X56245000Y-107350000D03*
X56245000Y-108000000D03*
X56245000Y-108650000D03*
X56245000Y-109300000D03*
%TD*%
D24*
%TO.C,C6*%
X89170000Y-51267500D03*
X89170000Y-52817500D03*
%TD*%
D38*
%TO.C,C28*%
X80550000Y-122100000D03*
X82450000Y-122100000D03*
%TD*%
M02*
