%TF.GenerationSoftware,KiCad,Pcbnew,10.0.5*%
%TF.CreationDate,2026-08-21T17:35:10+02:00*%
%TF.ProjectId,LM399VoltageStandard,4c4d3339-3956-46f6-9c74-616765537461,rev?*%
%TF.SameCoordinates,Original*%
%TF.FileFunction,Soldermask,Top*%
%TF.FilePolarity,Negative*%
%FSLAX46Y46*%
G04 Gerber Fmt 4.6, Leading zero omitted, Abs format (unit mm)*
G04 Created by KiCad (PCBNEW 10.0.5) date 2026-08-21 17:35:10*
%MOMM*%
%LPD*%
G01*
G04 APERTURE LIST*
G04 Aperture macros list*
%AMRoundRect*
0 Rectangle with rounded corners*
0 $1 Rounding radius*
0 $2 $3 $4 $5 $6 $7 $8 $9 X,Y pos of 4 corners*
0 Add a 4 corners polygon primitive as box body*
4,1,4,$2,$3,$4,$5,$6,$7,$8,$9,$2,$3,0*
0 Add four circle primitives for the rounded corners*
1,1,$1+$1,$2,$3*
1,1,$1+$1,$4,$5*
1,1,$1+$1,$6,$7*
1,1,$1+$1,$8,$9*
0 Add four rect primitives between the rounded corners*
20,1,$1+$1,$2,$3,$4,$5,0*
20,1,$1+$1,$4,$5,$6,$7,0*
20,1,$1+$1,$6,$7,$8,$9,0*
20,1,$1+$1,$8,$9,$2,$3,0*%
%AMFreePoly0*
4,1,23,0.500000,-0.750000,0.000000,-0.750000,0.000000,-0.745722,-0.065263,-0.745722,-0.191342,-0.711940,-0.304381,-0.646677,-0.396677,-0.554381,-0.461940,-0.441342,-0.495722,-0.315263,-0.495722,-0.250000,-0.500000,-0.250000,-0.500000,0.250000,-0.495722,0.250000,-0.495722,0.315263,-0.461940,0.441342,-0.396677,0.554381,-0.304381,0.646677,-0.191342,0.711940,-0.065263,0.745722,0.000000,0.745722,
0.000000,0.750000,0.500000,0.750000,0.500000,-0.750000,0.500000,-0.750000,$1*%
%AMFreePoly1*
4,1,23,0.000000,0.745722,0.065263,0.745722,0.191342,0.711940,0.304381,0.646677,0.396677,0.554381,0.461940,0.441342,0.495722,0.315263,0.495722,0.250000,0.500000,0.250000,0.500000,-0.250000,0.495722,-0.250000,0.495722,-0.315263,0.461940,-0.441342,0.396677,-0.554381,0.304381,-0.646677,0.191342,-0.711940,0.065263,-0.745722,0.000000,-0.745722,0.000000,-0.750000,-0.500000,-0.750000,
-0.500000,0.750000,0.000000,0.750000,0.000000,0.745722,0.000000,0.745722,$1*%
G04 Aperture macros list end*
%ADD10FreePoly0,90.000000*%
%ADD11FreePoly1,90.000000*%
%ADD12RoundRect,0.225000X0.250000X-0.225000X0.250000X0.225000X-0.250000X0.225000X-0.250000X-0.225000X0*%
%ADD13RoundRect,0.250001X0.106066X0.813171X-0.813171X-0.106066X-0.106066X-0.813171X0.813171X0.106066X0*%
%ADD14C,1.600000*%
%ADD15RoundRect,0.250000X0.750000X-0.750000X0.750000X0.750000X-0.750000X0.750000X-0.750000X-0.750000X0*%
%ADD16C,2.000000*%
%ADD17C,1.400000*%
%ADD18RoundRect,0.093750X-0.106250X0.093750X-0.106250X-0.093750X0.106250X-0.093750X0.106250X0.093750X0*%
%ADD19R,1.600000X1.000000*%
%ADD20RoundRect,0.250000X-0.262500X-0.450000X0.262500X-0.450000X0.262500X0.450000X-0.262500X0.450000X0*%
%ADD21C,3.600000*%
%ADD22C,6.400000*%
%ADD23C,1.500000*%
%ADD24RoundRect,0.200000X-0.200000X-0.275000X0.200000X-0.275000X0.200000X0.275000X-0.200000X0.275000X0*%
%ADD25RoundRect,0.250000X-0.650000X0.325000X-0.650000X-0.325000X0.650000X-0.325000X0.650000X0.325000X0*%
%ADD26RoundRect,0.250000X-0.450000X0.262500X-0.450000X-0.262500X0.450000X-0.262500X0.450000X0.262500X0*%
%ADD27RoundRect,0.225000X0.225000X0.250000X-0.225000X0.250000X-0.225000X-0.250000X0.225000X-0.250000X0*%
%ADD28RoundRect,0.075000X0.662500X0.075000X-0.662500X0.075000X-0.662500X-0.075000X0.662500X-0.075000X0*%
%ADD29RoundRect,0.075000X0.075000X0.662500X-0.075000X0.662500X-0.075000X-0.662500X0.075000X-0.662500X0*%
%ADD30R,1.700000X1.700000*%
%ADD31C,1.700000*%
%ADD32RoundRect,0.150000X0.150000X-0.825000X0.150000X0.825000X-0.150000X0.825000X-0.150000X-0.825000X0*%
%ADD33RoundRect,0.200000X-0.275000X0.200000X-0.275000X-0.200000X0.275000X-0.200000X0.275000X0.200000X0*%
%ADD34RoundRect,0.225000X-0.225000X-0.250000X0.225000X-0.250000X0.225000X0.250000X-0.225000X0.250000X0*%
%ADD35R,1.800000X1.800000*%
%ADD36C,1.800000*%
%ADD37R,1.905000X2.000000*%
%ADD38O,1.905000X2.000000*%
%ADD39RoundRect,0.250000X-0.550000X0.550000X-0.550000X-0.550000X0.550000X-0.550000X0.550000X0.550000X0*%
%ADD40O,1.600000X1.200000*%
%ADD41C,1.200000*%
%ADD42RoundRect,0.225000X-0.250000X0.225000X-0.250000X-0.225000X0.250000X-0.225000X0.250000X0.225000X0*%
%ADD43RoundRect,0.200000X0.275000X-0.200000X0.275000X0.200000X-0.275000X0.200000X-0.275000X-0.200000X0*%
%ADD44RoundRect,0.200000X0.200000X0.275000X-0.200000X0.275000X-0.200000X-0.275000X0.200000X-0.275000X0*%
%ADD45RoundRect,0.250000X0.550000X0.550000X-0.550000X0.550000X-0.550000X-0.550000X0.550000X-0.550000X0*%
%ADD46RoundRect,0.218750X-0.218750X-0.256250X0.218750X-0.256250X0.218750X0.256250X-0.218750X0.256250X0*%
%ADD47R,2.000000X2.000000*%
%ADD48RoundRect,0.250000X-0.475000X0.250000X-0.475000X-0.250000X0.475000X-0.250000X0.475000X0.250000X0*%
%ADD49RoundRect,0.250000X-0.750000X0.750000X-0.750000X-0.750000X0.750000X-0.750000X0.750000X0.750000X0*%
%ADD50RoundRect,0.087500X0.087500X-0.250000X0.087500X0.250000X-0.087500X0.250000X-0.087500X-0.250000X0*%
%ADD51RoundRect,0.250001X-1.149999X-1.149999X1.149999X-1.149999X1.149999X1.149999X-1.149999X1.149999X0*%
%ADD52C,2.800000*%
%ADD53R,4.000000X4.000000*%
%ADD54RoundRect,0.250000X-0.625000X0.312500X-0.625000X-0.312500X0.625000X-0.312500X0.625000X0.312500X0*%
%ADD55RoundRect,0.249999X-1.535001X1.030001X-1.535001X-1.030001X1.535001X-1.030001X1.535001X1.030001X0*%
%ADD56R,2.000000X1.905000*%
%ADD57O,2.000000X1.905000*%
%ADD58RoundRect,0.225000X0.017678X-0.335876X0.335876X-0.017678X-0.017678X0.335876X-0.335876X0.017678X0*%
%ADD59R,1.050000X1.500000*%
%ADD60O,1.050000X1.500000*%
%ADD61RoundRect,0.250000X0.550000X-0.550000X0.550000X0.550000X-0.550000X0.550000X-0.550000X-0.550000X0*%
%ADD62RoundRect,0.150000X-0.512500X-0.150000X0.512500X-0.150000X0.512500X0.150000X-0.512500X0.150000X0*%
%ADD63RoundRect,0.150000X0.825000X0.150000X-0.825000X0.150000X-0.825000X-0.150000X0.825000X-0.150000X0*%
%ADD64RoundRect,0.250000X0.475000X-0.250000X0.475000X0.250000X-0.475000X0.250000X-0.475000X-0.250000X0*%
%ADD65RoundRect,0.225000X-0.335876X-0.017678X-0.017678X-0.335876X0.335876X0.017678X0.017678X0.335876X0*%
%ADD66C,1.100000*%
%ADD67RoundRect,0.100000X-0.550000X0.100000X-0.550000X-0.100000X0.550000X-0.100000X0.550000X0.100000X0*%
%ADD68O,1.100000X1.600000*%
%ADD69RoundRect,0.250000X-0.250000X-0.475000X0.250000X-0.475000X0.250000X0.475000X-0.250000X0.475000X0*%
G04 APERTURE END LIST*
%TO.C,JP11*%
G36*
X112970000Y-45950000D02*
G01*
X114470000Y-45950000D01*
X114470000Y-46250000D01*
X112970000Y-46250000D01*
X112970000Y-45950000D01*
G37*
%TO.C,JP9*%
G36*
X107920000Y-45950000D02*
G01*
X109420000Y-45950000D01*
X109420000Y-46250000D01*
X107920000Y-46250000D01*
X107920000Y-45950000D01*
G37*
%TO.C,JP14*%
G36*
X120470000Y-45950000D02*
G01*
X121970000Y-45950000D01*
X121970000Y-46250000D01*
X120470000Y-46250000D01*
X120470000Y-45950000D01*
G37*
%TO.C,JP12*%
G36*
X115470000Y-45950000D02*
G01*
X116970000Y-45950000D01*
X116970000Y-46250000D01*
X115470000Y-46250000D01*
X115470000Y-45950000D01*
G37*
%TO.C,JP13*%
G36*
X117970000Y-45950000D02*
G01*
X119470000Y-45950000D01*
X119470000Y-46250000D01*
X117970000Y-46250000D01*
X117970000Y-45950000D01*
G37*
%TO.C,JP10*%
G36*
X110470000Y-45950000D02*
G01*
X111970000Y-45950000D01*
X111970000Y-46250000D01*
X110470000Y-46250000D01*
X110470000Y-45950000D01*
G37*
%TO.C,JP8*%
G36*
X105420000Y-45950000D02*
G01*
X106920000Y-45950000D01*
X106920000Y-46250000D01*
X105420000Y-46250000D01*
X105420000Y-45950000D01*
G37*
%TD*%
D10*
%TO.C,JP11*%
X113720000Y-46750000D03*
D11*
X113720000Y-45450000D03*
%TD*%
D12*
%TO.C,C39*%
X74000000Y-100300000D03*
X74000000Y-98750000D03*
%TD*%
D13*
%TO.C,Y1*%
X81410419Y-107797919D03*
X79854784Y-109353554D03*
X81056865Y-110555635D03*
X82612500Y-109000000D03*
%TD*%
D14*
%TO.C,R9*%
X113780000Y-53300000D03*
X103620000Y-53300000D03*
%TD*%
D15*
%TO.C,C15*%
X137550000Y-114350000D03*
D16*
X137550000Y-110550000D03*
%TD*%
D17*
%TO.C,R12*%
X118820000Y-48830000D03*
X118820000Y-56450000D03*
%TD*%
D14*
%TO.C,R4*%
X101170000Y-44762500D03*
X101170000Y-48562500D03*
%TD*%
D18*
%TO.C,U4*%
X81100000Y-117775000D03*
X80450000Y-117775000D03*
X79800000Y-117775000D03*
X79800000Y-119550000D03*
X80450000Y-119550000D03*
X81100000Y-119550000D03*
D19*
X80450000Y-118662500D03*
%TD*%
D20*
%TO.C,R17*%
X123457500Y-45325000D03*
X125282500Y-45325000D03*
%TD*%
D21*
%TO.C,H3*%
X73750000Y-35250000D03*
D22*
X73750000Y-35250000D03*
%TD*%
D10*
%TO.C,JP9*%
X108670000Y-46750000D03*
D11*
X108670000Y-45450000D03*
%TD*%
D12*
%TO.C,C32*%
X70750000Y-102325000D03*
X70750000Y-100775000D03*
%TD*%
D23*
%TO.C,TP4*%
X114050000Y-99000000D03*
%TD*%
D24*
%TO.C,R18*%
X59375000Y-102800000D03*
X61025000Y-102800000D03*
%TD*%
D25*
%TO.C,C20*%
X130700000Y-47825000D03*
X130700000Y-50775000D03*
%TD*%
D21*
%TO.C,H5*%
X146000000Y-34000000D03*
D22*
X146000000Y-34000000D03*
%TD*%
D26*
%TO.C,R7*%
X108670000Y-48875000D03*
X108670000Y-50700000D03*
%TD*%
D27*
%TO.C,C1*%
X95945000Y-45950000D03*
X94395000Y-45950000D03*
%TD*%
%TO.C,C10*%
X116550000Y-112500000D03*
X115000000Y-112500000D03*
%TD*%
D24*
%TO.C,R19*%
X62500000Y-102800000D03*
X64150000Y-102800000D03*
%TD*%
D28*
%TO.C,U7*%
X77012500Y-111200000D03*
X77012500Y-110700000D03*
X77012500Y-110200000D03*
X77012500Y-109700000D03*
X77012500Y-109200000D03*
X77012500Y-108700000D03*
X77012500Y-108200000D03*
X77012500Y-107700000D03*
X77012500Y-107200000D03*
X77012500Y-106700000D03*
X77012500Y-106200000D03*
X77012500Y-105700000D03*
D29*
X75600000Y-104287500D03*
X75100000Y-104287500D03*
X74600000Y-104287500D03*
X74100000Y-104287500D03*
X73600000Y-104287500D03*
X73100000Y-104287500D03*
X72600000Y-104287500D03*
X72100000Y-104287500D03*
X71600000Y-104287500D03*
X71100000Y-104287500D03*
X70600000Y-104287500D03*
X70100000Y-104287500D03*
D28*
X68687500Y-105700000D03*
X68687500Y-106200000D03*
X68687500Y-106700000D03*
X68687500Y-107200000D03*
X68687500Y-107700000D03*
X68687500Y-108200000D03*
X68687500Y-108700000D03*
X68687500Y-109200000D03*
X68687500Y-109700000D03*
X68687500Y-110200000D03*
X68687500Y-110700000D03*
X68687500Y-111200000D03*
D29*
X70100000Y-112612500D03*
X70600000Y-112612500D03*
X71100000Y-112612500D03*
X71600000Y-112612500D03*
X72100000Y-112612500D03*
X72600000Y-112612500D03*
X73100000Y-112612500D03*
X73600000Y-112612500D03*
X74100000Y-112612500D03*
X74600000Y-112612500D03*
X75100000Y-112612500D03*
X75600000Y-112612500D03*
%TD*%
D30*
%TO.C,J4*%
X88800000Y-106075000D03*
D31*
X88800000Y-108615000D03*
%TD*%
D32*
%TO.C,U2*%
X94765000Y-52925000D03*
X96035000Y-52925000D03*
X97305000Y-52925000D03*
X98575000Y-52925000D03*
X98575000Y-47975000D03*
X97305000Y-47975000D03*
X96035000Y-47975000D03*
X94765000Y-47975000D03*
%TD*%
D33*
%TO.C,R11*%
X103670000Y-49375000D03*
X103670000Y-51025000D03*
%TD*%
D34*
%TO.C,C19*%
X111450000Y-112500000D03*
X113000000Y-112500000D03*
%TD*%
D30*
%TO.C,J3*%
X57890000Y-116500000D03*
D31*
X60430000Y-116500000D03*
X62970000Y-116500000D03*
X65510000Y-116500000D03*
%TD*%
D34*
%TO.C,C18*%
X80725000Y-124250000D03*
X82275000Y-124250000D03*
%TD*%
D35*
%TO.C,D5*%
X83550000Y-96432000D03*
D36*
X83550000Y-98591000D03*
X83550000Y-100750000D03*
X83550000Y-102909000D03*
%TD*%
D37*
%TO.C,U13*%
X111960000Y-109950000D03*
D38*
X114500000Y-109950000D03*
X117040000Y-109950000D03*
%TD*%
D10*
%TO.C,JP14*%
X121220000Y-46750000D03*
D11*
X121220000Y-45450000D03*
%TD*%
D21*
%TO.C,H8*%
X54000000Y-34000000D03*
D22*
X54000000Y-34000000D03*
%TD*%
D39*
%TO.C,C16*%
X100450000Y-61450000D03*
D14*
X100450000Y-63450000D03*
%TD*%
D40*
%TO.C,U1*%
X90710000Y-59767500D03*
D41*
X89440000Y-58497500D03*
X88170000Y-59767500D03*
X89440000Y-61037500D03*
%TD*%
D27*
%TO.C,C41*%
X77075000Y-98700000D03*
X75525000Y-98700000D03*
%TD*%
D42*
%TO.C,C30*%
X77500000Y-113225000D03*
X77500000Y-114775000D03*
%TD*%
D43*
%TO.C,R21*%
X73500000Y-117250000D03*
X73500000Y-115600000D03*
%TD*%
D44*
%TO.C,R25*%
X109825000Y-105000000D03*
X108175000Y-105000000D03*
%TD*%
D21*
%TO.C,H1*%
X134750000Y-75250000D03*
D22*
X134750000Y-75250000D03*
%TD*%
D24*
%TO.C,R24*%
X108175000Y-103250000D03*
X109825000Y-103250000D03*
%TD*%
D45*
%TO.C,C17*%
X82155113Y-68400000D03*
D14*
X80155113Y-68400000D03*
%TD*%
D17*
%TO.C,R14*%
X118780000Y-58900000D03*
X111160000Y-58900000D03*
%TD*%
D43*
%TO.C,R20*%
X62000000Y-112025000D03*
X62000000Y-110375000D03*
%TD*%
D42*
%TO.C,C40*%
X76000000Y-114700000D03*
X76000000Y-116250000D03*
%TD*%
D23*
%TO.C,TP5*%
X121900000Y-99100000D03*
%TD*%
D33*
%TO.C,R13*%
X106170000Y-48875000D03*
X106170000Y-50525000D03*
%TD*%
D46*
%TO.C,FB1*%
X75525000Y-100300000D03*
X77100000Y-100300000D03*
%TD*%
D24*
%TO.C,R22*%
X69150000Y-115750000D03*
X70800000Y-115750000D03*
%TD*%
D26*
%TO.C,R8*%
X111220000Y-48925000D03*
X111220000Y-50750000D03*
%TD*%
D47*
%TO.C,D6*%
X110500000Y-117000000D03*
D16*
X105500000Y-117000000D03*
X100500000Y-117000000D03*
X95500000Y-117000000D03*
%TD*%
D10*
%TO.C,JP12*%
X116220000Y-46750000D03*
D11*
X116220000Y-45450000D03*
%TD*%
D48*
%TO.C,C27*%
X84700000Y-118500000D03*
X84700000Y-120400000D03*
%TD*%
D49*
%TO.C,C4*%
X131000000Y-119982323D03*
D16*
X131000000Y-123782323D03*
%TD*%
D50*
%TO.C,U10*%
X61400000Y-127300000D03*
X61900000Y-127300000D03*
X62400000Y-127300000D03*
X62400000Y-125875000D03*
X61900000Y-125875000D03*
X61400000Y-125875000D03*
%TD*%
D37*
%TO.C,U6*%
X85350000Y-126700000D03*
D38*
X82810000Y-126700000D03*
X80270000Y-126700000D03*
%TD*%
D51*
%TO.C,J1*%
X100750000Y-125750000D03*
D52*
X105750000Y-125750000D03*
%TD*%
D12*
%TO.C,C33*%
X72450000Y-102325000D03*
X72450000Y-100775000D03*
%TD*%
D53*
%TO.C,TP7*%
X141950000Y-42350000D03*
%TD*%
D10*
%TO.C,JP13*%
X118720000Y-46750000D03*
D11*
X118720000Y-45450000D03*
%TD*%
D10*
%TO.C,JP10*%
X111220000Y-46750000D03*
D11*
X111220000Y-45450000D03*
%TD*%
D14*
%TO.C,R5*%
X101170000Y-51950000D03*
X101170000Y-55750000D03*
%TD*%
D54*
%TO.C,R6*%
X103670000Y-44737500D03*
X103670000Y-47662500D03*
%TD*%
D34*
%TO.C,C36*%
X66450000Y-125250000D03*
X68000000Y-125250000D03*
%TD*%
D55*
%TO.C,C22*%
X127032500Y-48450000D03*
X127032500Y-54000000D03*
%TD*%
D27*
%TO.C,C29*%
X68150000Y-112500000D03*
X66600000Y-112500000D03*
%TD*%
D53*
%TO.C,TP3*%
X141950000Y-47500000D03*
%TD*%
D45*
%TO.C,C14*%
X130155112Y-111400000D03*
D14*
X128155112Y-111400000D03*
%TD*%
D10*
%TO.C,JP8*%
X106170000Y-46750000D03*
D11*
X106170000Y-45450000D03*
%TD*%
D56*
%TO.C,U5*%
X139400000Y-120710000D03*
D57*
X139400000Y-123250000D03*
X139400000Y-125790000D03*
%TD*%
D58*
%TO.C,C34*%
X82714492Y-111698008D03*
X83810508Y-110601992D03*
%TD*%
D33*
%TO.C,R1*%
X90920000Y-51192500D03*
X90920000Y-52842500D03*
%TD*%
D27*
%TO.C,C2*%
X94600000Y-44300000D03*
X93050000Y-44300000D03*
%TD*%
D53*
%TO.C,TP8*%
X141950000Y-59500000D03*
%TD*%
D59*
%TO.C,U12*%
X96880000Y-70660000D03*
D60*
X98150000Y-70660000D03*
X99420000Y-70660000D03*
%TD*%
D61*
%TO.C,C9*%
X122500000Y-111455112D03*
D14*
X122500000Y-109455112D03*
%TD*%
D53*
%TO.C,TP6*%
X141950000Y-54350000D03*
%TD*%
D27*
%TO.C,C24*%
X78700000Y-120800000D03*
X77150000Y-120800000D03*
%TD*%
D17*
%TO.C,R10*%
X116370000Y-48840000D03*
X116370000Y-56460000D03*
%TD*%
D62*
%TO.C,U8*%
X59750000Y-106850000D03*
X59750000Y-107800000D03*
X59750000Y-108750000D03*
X62025000Y-108750000D03*
X62025000Y-107800000D03*
X62025000Y-106850000D03*
%TD*%
D23*
%TO.C,TP2*%
X117850000Y-99000000D03*
%TD*%
D12*
%TO.C,C31*%
X68500000Y-103800000D03*
X68500000Y-102250000D03*
%TD*%
D63*
%TO.C,U9*%
X71225000Y-123655000D03*
X71225000Y-122385000D03*
X71225000Y-121115000D03*
X71225000Y-119845000D03*
X66275000Y-119845000D03*
X66275000Y-121115000D03*
X66275000Y-122385000D03*
X66275000Y-123655000D03*
%TD*%
D42*
%TO.C,C26*%
X82750000Y-118525000D03*
X82750000Y-120075000D03*
%TD*%
D64*
%TO.C,C38*%
X66500000Y-103750000D03*
X66500000Y-101850000D03*
%TD*%
D15*
%TO.C,C48*%
X99500000Y-110767677D03*
D16*
X99500000Y-106967677D03*
%TD*%
D65*
%TO.C,C35*%
X82966484Y-106353984D03*
X84062500Y-107450000D03*
%TD*%
D21*
%TO.C,H4*%
X134750000Y-35250000D03*
D22*
X134750000Y-35250000D03*
%TD*%
D21*
%TO.C,H2*%
X73750000Y-75250000D03*
D22*
X73750000Y-75250000D03*
%TD*%
D12*
%TO.C,C21*%
X92920000Y-52817500D03*
X92920000Y-51267500D03*
%TD*%
D21*
%TO.C,H7*%
X54000000Y-126000000D03*
D22*
X54000000Y-126000000D03*
%TD*%
D26*
%TO.C,R16*%
X121720000Y-51737500D03*
X121720000Y-53562500D03*
%TD*%
D49*
%TO.C,C5*%
X119750000Y-119950000D03*
D16*
X119750000Y-123750000D03*
%TD*%
D12*
%TO.C,C37*%
X62400000Y-124550000D03*
X62400000Y-123000000D03*
%TD*%
D66*
%TO.C,J2*%
X53995000Y-105500000D03*
X53995000Y-110500000D03*
D67*
X56245000Y-106700000D03*
X56245000Y-107350000D03*
X56245000Y-108000000D03*
X56245000Y-108650000D03*
X56245000Y-109300000D03*
D68*
X56195000Y-105450000D03*
X56195000Y-110550000D03*
%TD*%
D42*
%TO.C,C6*%
X89170000Y-51267500D03*
X89170000Y-52817500D03*
%TD*%
D14*
%TO.C,R15*%
X121720000Y-48920000D03*
X121720000Y-59080000D03*
%TD*%
D39*
%TO.C,C23*%
X91550000Y-124794888D03*
D14*
X91550000Y-126794888D03*
%TD*%
D21*
%TO.C,H6*%
X146250000Y-126250000D03*
D22*
X146250000Y-126250000D03*
%TD*%
D69*
%TO.C,C28*%
X80550000Y-122100000D03*
X82450000Y-122100000D03*
%TD*%
G36*
X138443039Y-31519685D02*
G01*
X138488794Y-31572489D01*
X138500000Y-31624000D01*
X138500000Y-46376000D01*
X138480315Y-46443039D01*
X138427511Y-46488794D01*
X138376000Y-46500000D01*
X135124000Y-46500000D01*
X135056961Y-46480315D01*
X135011206Y-46427511D01*
X135000000Y-46376000D01*
X135000000Y-35000000D01*
X73500000Y-35000000D01*
X73500000Y-75500000D01*
X135000000Y-75500000D01*
X135000000Y-50374000D01*
X135019685Y-50306961D01*
X135072489Y-50261206D01*
X135124000Y-50250000D01*
X138376000Y-50250000D01*
X138443039Y-50269685D01*
X138488794Y-50322489D01*
X138500000Y-50374000D01*
X138500000Y-78876000D01*
X138480315Y-78943039D01*
X138427511Y-78988794D01*
X138376000Y-79000000D01*
X70124000Y-79000000D01*
X70056961Y-78980315D01*
X70011206Y-78927511D01*
X70000000Y-78876000D01*
X70000000Y-31624000D01*
X70019685Y-31556961D01*
X70072489Y-31511206D01*
X70124000Y-31500000D01*
X138376000Y-31500000D01*
X138443039Y-31519685D01*
G37*
M02*
